<svg width="559" height="234" viewBox="0 0 559 234" fill="none" xmlns="http://www.w3.org/2000/svg">
<path fill-rule="evenodd" clip-rule="evenodd" d="M403.641 48.5459C409.914 48.5459 415 53.6173 415 59.8732C415 66.1291 409.914 71.2004 403.641 71.2004H338.731C345.004 71.2004 350.09 76.2718 350.09 82.5277C350.09 88.7836 345.004 93.855 338.731 93.855H374.431C380.705 93.855 385.79 98.9264 385.79 105.182C385.79 111.438 380.705 116.51 374.431 116.51H357.921C350.011 116.51 343.599 121.581 343.599 127.837C343.599 132.007 346.844 135.783 353.335 139.164C359.609 139.164 364.695 144.235 364.695 150.491C364.695 156.747 359.609 161.819 353.335 161.819H218.647C212.373 161.819 207.287 156.747 207.287 150.491C207.287 144.235 212.373 139.164 218.647 139.164H155.359C149.086 139.164 144 134.093 144 127.837C144 121.581 149.086 116.51 155.359 116.51H220.269C226.543 116.51 231.629 111.438 231.629 105.182C231.629 98.9264 226.543 93.855 220.269 93.855H179.701C173.427 93.855 168.341 88.7836 168.341 82.5277C168.341 76.2718 173.427 71.2004 179.701 71.2004H244.611C238.337 71.2004 233.251 66.1291 233.251 59.8732C233.251 53.6173 238.337 48.5459 244.611 48.5459H403.641ZM403.641 93.855C409.914 93.855 415 98.9264 415 105.182C415 111.438 409.914 116.51 403.641 116.51C397.367 116.51 392.281 111.438 392.281 105.182C392.281 98.9264 397.367 93.855 403.641 93.855Z" fill="#EDF1F7"/>
<path fill-rule="evenodd" clip-rule="evenodd" d="M251.033 145.219L253.132 145.146V174.764C253.132 175.434 253.677 175.977 254.349 175.977H327.373C328.045 175.977 328.59 175.434 328.59 174.764V76.0545C328.59 73.5968 326.592 71.6045 324.128 71.6045H257.595C255.13 71.6045 253.132 73.5968 253.132 76.0545V94.3446L251.033 94.2719C250.787 94.2633 250.54 94.259 250.292 94.259C237.565 94.259 227.168 105.63 227.168 119.745C227.168 133.861 237.565 145.232 250.292 145.232C250.54 145.232 250.787 145.227 251.033 145.219ZM251.266 135.484C250.943 135.51 250.618 135.523 250.292 135.523C242.61 135.523 236.526 128.393 236.526 119.745C236.526 111.098 242.61 103.968 250.292 103.968C250.618 103.968 250.943 103.981 251.266 104.007L253.132 104.156V135.335L251.266 135.484Z" fill="white" stroke="#8F9BB3" stroke-width="2.5"/>
<path d="M316.012 84.4395V114.082M316.012 123.276V130.951V123.276Z" stroke="#C5CEE0" stroke-width="2.5" stroke-linecap="round" stroke-linejoin="round"/>
<path d="M217.025 165.863H251.84M196.137 165.863H207.288H196.137ZM381.131 165.863H385.791H381.131ZM337.109 165.863H373.503H337.109Z" stroke="#8F9BB3" stroke-width="2.5" stroke-linecap="round" stroke-linejoin="round"/>
<path d="M294.917 3.23633C290.589 10.0546 288.426 15.9879 288.426 21.0363C288.426 30.0272 295.978 34.0537 295.978 43.7928C295.978 48.7358 293.46 53.6438 288.426 58.5168" stroke="#C5CEE0" stroke-width="2.5" stroke-linecap="round"/>
<path d="M275.442 21.0361C274.026 29.9567 280.31 31.6064 280.31 39.6041C280.31 43.6633 278.688 47.7224 275.442 51.7816" stroke="#C5CEE0" stroke-width="2.5" stroke-linecap="round"/>
<path d="M305.943 16.9492C303.8 22.4821 305.004 25.8545 305.943 27.8396C307.951 32.0825 311.144 35.7452 311.144 40.0628C311.144 45.0775 309.411 49.9036 305.943 54.5411" stroke="#C5CEE0" stroke-width="2.5" stroke-linecap="round"/>
<path d="M10.4578 215.625V227H8.95782V216.859H3.34845V227H1.84064V215.625H10.4578ZM12.7406 222.867V222.688C12.7406 222.078 12.8292 221.513 13.0063 220.992C13.1833 220.466 13.4386 220.01 13.7719 219.625C14.1052 219.234 14.5089 218.932 14.9828 218.719C15.4568 218.5 15.988 218.391 16.5766 218.391C17.1703 218.391 17.7042 218.5 18.1781 218.719C18.6573 218.932 19.0636 219.234 19.3969 219.625C19.7354 220.01 19.9932 220.466 20.1703 220.992C20.3474 221.513 20.4359 222.078 20.4359 222.688V222.867C20.4359 223.477 20.3474 224.042 20.1703 224.562C19.9932 225.083 19.7354 225.539 19.3969 225.93C19.0636 226.315 18.6599 226.617 18.1859 226.836C17.7172 227.049 17.1859 227.156 16.5922 227.156C15.9984 227.156 15.4646 227.049 14.9906 226.836C14.5167 226.617 14.1104 226.315 13.7719 225.93C13.4386 225.539 13.1833 225.083 13.0063 224.562C12.8292 224.042 12.7406 223.477 12.7406 222.867ZM14.1859 222.688V222.867C14.1859 223.289 14.2354 223.688 14.3344 224.062C14.4333 224.432 14.5818 224.76 14.7797 225.047C14.9828 225.333 15.2354 225.56 15.5375 225.727C15.8396 225.888 16.1912 225.969 16.5922 225.969C16.988 225.969 17.3344 225.888 17.6313 225.727C17.9333 225.56 18.1833 225.333 18.3813 225.047C18.5792 224.76 18.7276 224.432 18.8266 224.062C18.9307 223.688 18.9828 223.289 18.9828 222.867V222.688C18.9828 222.271 18.9307 221.878 18.8266 221.508C18.7276 221.133 18.5766 220.802 18.3734 220.516C18.1755 220.224 17.9255 219.995 17.6234 219.828C17.3266 219.661 16.9776 219.578 16.5766 219.578C16.1807 219.578 15.8318 219.661 15.5297 219.828C15.2328 219.995 14.9828 220.224 14.7797 220.516C14.5818 220.802 14.4333 221.133 14.3344 221.508C14.2354 221.878 14.1859 222.271 14.1859 222.688ZM24.7891 223.32L21.5859 218.547H23.3281L25.5156 222.047H27.2031L26.9922 223.32H24.7891ZM25.5781 223.172L23.125 227H21.2969L24.6641 222.125L25.5781 223.172ZM27.9453 218.547V227H26.5V218.547H27.9453ZM32.875 218.547L29.6719 223.32H27.4688L27.2422 222.047H28.9375L31.125 218.547H32.875ZM31.3281 227L28.8672 223.172L29.7969 222.125L33.1563 227H31.3281ZM39.6266 225.555V221.203C39.6266 220.87 39.5589 220.581 39.4235 220.336C39.2932 220.086 39.0953 219.893 38.8297 219.758C38.5641 219.622 38.236 219.555 37.8453 219.555C37.4807 219.555 37.1604 219.617 36.8844 219.742C36.6136 219.867 36.4 220.031 36.2438 220.234C36.0927 220.438 36.0172 220.656 36.0172 220.891H34.5719C34.5719 220.589 34.65 220.289 34.8063 219.992C34.9625 219.695 35.1865 219.427 35.4781 219.188C35.775 218.943 36.1292 218.75 36.5406 218.609C36.9573 218.464 37.4208 218.391 37.9313 218.391C38.5458 218.391 39.0875 218.495 39.5563 218.703C40.0302 218.911 40.4 219.227 40.6656 219.648C40.9365 220.065 41.0719 220.589 41.0719 221.219V225.156C41.0719 225.438 41.0953 225.737 41.1422 226.055C41.1943 226.372 41.2698 226.646 41.3688 226.875V227H39.861C39.788 226.833 39.7307 226.612 39.6891 226.336C39.6474 226.055 39.6266 225.794 39.6266 225.555ZM39.8766 221.875L39.8922 222.891H38.4313C38.0198 222.891 37.6526 222.924 37.3297 222.992C37.0068 223.055 36.736 223.151 36.5172 223.281C36.2985 223.411 36.1318 223.576 36.0172 223.773C35.9026 223.966 35.8453 224.193 35.8453 224.453C35.8453 224.719 35.9052 224.961 36.025 225.18C36.1448 225.398 36.3245 225.573 36.5641 225.703C36.8089 225.828 37.1083 225.891 37.4625 225.891C37.9052 225.891 38.2958 225.797 38.6344 225.609C38.9729 225.422 39.2412 225.193 39.4391 224.922C39.6422 224.651 39.7516 224.388 39.7672 224.133L40.3844 224.828C40.3479 225.047 40.249 225.289 40.0875 225.555C39.9261 225.82 39.7099 226.076 39.4391 226.32C39.1735 226.56 38.8557 226.76 38.486 226.922C38.1214 227.078 37.7099 227.156 37.2516 227.156C36.6787 227.156 36.1761 227.044 35.7438 226.82C35.3167 226.596 34.9833 226.297 34.7438 225.922C34.5094 225.542 34.3922 225.117 34.3922 224.648C34.3922 224.195 34.4807 223.797 34.6578 223.453C34.8349 223.104 35.0901 222.815 35.4235 222.586C35.7568 222.352 36.1578 222.174 36.6266 222.055C37.0953 221.935 37.6188 221.875 38.1969 221.875H39.8766ZM49.1438 218.547V219.742H45.0578V218.547H49.1438ZM50.4172 218.547V227H48.9719V218.547H50.4172ZM44.7063 218.547H46.1594L45.9406 222.625C45.9042 223.255 45.8443 223.812 45.7609 224.297C45.6828 224.776 45.5734 225.188 45.4328 225.531C45.2974 225.875 45.1255 226.156 44.9172 226.375C44.7141 226.589 44.4693 226.747 44.1828 226.852C43.8964 226.951 43.5656 227 43.1906 227H42.7375V225.727L43.05 225.703C43.274 225.688 43.4641 225.635 43.6203 225.547C43.7818 225.458 43.9172 225.328 44.0266 225.156C44.1359 224.979 44.2245 224.753 44.2922 224.477C44.3651 224.201 44.4198 223.872 44.4563 223.492C44.4979 223.112 44.5292 222.669 44.55 222.164L44.7063 218.547ZM55.2703 226.125L57.6219 218.547H59.1688L55.7781 228.305C55.7 228.513 55.5958 228.737 55.4656 228.977C55.3406 229.221 55.1792 229.453 54.9813 229.672C54.7833 229.891 54.5438 230.068 54.2625 230.203C53.9865 230.344 53.6557 230.414 53.2703 230.414C53.1557 230.414 53.0099 230.398 52.8328 230.367C52.6557 230.336 52.5307 230.31 52.4578 230.289L52.45 229.117C52.4917 229.122 52.5568 229.128 52.6453 229.133C52.7391 229.143 52.8042 229.148 52.8406 229.148C53.1688 229.148 53.4474 229.104 53.6766 229.016C53.9057 228.932 54.0984 228.789 54.2547 228.586C54.4162 228.388 54.5542 228.115 54.6688 227.766L55.2703 226.125ZM53.5438 218.547L55.7391 225.109L56.1141 226.633L55.075 227.164L51.9656 218.547H53.5438ZM62.186 224.711L66.0844 218.547H67.5375V227H66.0844V220.836L62.186 227H60.7485V218.547H62.186V224.711ZM65.2953 215.484H66.4672C66.4672 215.891 66.3735 216.253 66.186 216.57C65.9985 216.883 65.7302 217.128 65.3813 217.305C65.0323 217.482 64.6182 217.57 64.1391 217.57C63.4151 217.57 62.8422 217.378 62.4203 216.992C62.0037 216.602 61.7953 216.099 61.7953 215.484H62.9672C62.9672 215.792 63.0557 216.062 63.2328 216.297C63.4099 216.531 63.712 216.648 64.1391 216.648C64.5557 216.648 64.8526 216.531 65.0297 216.297C65.2068 216.062 65.2953 215.792 65.2953 215.484ZM73.3906 225.969C73.7344 225.969 74.0521 225.898 74.3438 225.758C74.6354 225.617 74.875 225.424 75.0625 225.18C75.25 224.93 75.3568 224.646 75.3828 224.328H76.7578C76.7318 224.828 76.5625 225.294 76.25 225.727C75.9427 226.154 75.5391 226.5 75.0391 226.766C74.5391 227.026 73.9896 227.156 73.3906 227.156C72.7552 227.156 72.2005 227.044 71.7266 226.82C71.2578 226.596 70.8672 226.289 70.5547 225.898C70.2474 225.508 70.0156 225.06 69.8594 224.555C69.7083 224.044 69.6328 223.505 69.6328 222.938V222.609C69.6328 222.042 69.7083 221.505 69.8594 221C70.0156 220.49 70.2474 220.039 70.5547 219.648C70.8672 219.258 71.2578 218.951 71.7266 218.727C72.2005 218.503 72.7552 218.391 73.3906 218.391C74.0521 218.391 74.6302 218.526 75.125 218.797C75.6198 219.062 76.0078 219.427 76.2891 219.891C76.5755 220.349 76.7318 220.87 76.7578 221.453H75.3828C75.3568 221.104 75.2578 220.789 75.086 220.508C74.9193 220.227 74.6901 220.003 74.3985 219.836C74.112 219.664 73.7761 219.578 73.3906 219.578C72.9479 219.578 72.5755 219.667 72.2735 219.844C71.9766 220.016 71.7396 220.25 71.5625 220.547C71.3906 220.839 71.2656 221.164 71.1875 221.523C71.1146 221.878 71.0781 222.24 71.0781 222.609V222.938C71.0781 223.307 71.1146 223.672 71.1875 224.031C71.2604 224.391 71.3828 224.716 71.5547 225.008C71.7318 225.299 71.9688 225.534 72.2656 225.711C72.5677 225.883 72.9427 225.969 73.3906 225.969ZM81.9781 218.547V227H80.525V218.547H81.9781ZM84.8141 218.547V219.719H77.7438V218.547H84.8141ZM91.2453 225.555V221.203C91.2453 220.87 91.1776 220.581 91.0422 220.336C90.912 220.086 90.7141 219.893 90.4484 219.758C90.1828 219.622 89.8547 219.555 89.4641 219.555C89.0995 219.555 88.7792 219.617 88.5031 219.742C88.2323 219.867 88.0188 220.031 87.8625 220.234C87.7115 220.438 87.6359 220.656 87.6359 220.891H86.1906C86.1906 220.589 86.2688 220.289 86.425 219.992C86.5813 219.695 86.8052 219.427 87.0969 219.188C87.3938 218.943 87.7479 218.75 88.1594 218.609C88.5761 218.464 89.0396 218.391 89.55 218.391C90.1646 218.391 90.7063 218.495 91.175 218.703C91.649 218.911 92.0188 219.227 92.2844 219.648C92.5552 220.065 92.6906 220.589 92.6906 221.219V225.156C92.6906 225.438 92.7141 225.737 92.7609 226.055C92.813 226.372 92.8886 226.646 92.9875 226.875V227H91.4797C91.4068 226.833 91.3495 226.612 91.3078 226.336C91.2662 226.055 91.2453 225.794 91.2453 225.555ZM91.4953 221.875L91.5109 222.891H90.05C89.6386 222.891 89.2714 222.924 88.9484 222.992C88.6255 223.055 88.3547 223.151 88.1359 223.281C87.9172 223.411 87.7505 223.576 87.6359 223.773C87.5214 223.966 87.4641 224.193 87.4641 224.453C87.4641 224.719 87.524 224.961 87.6438 225.18C87.7636 225.398 87.9432 225.573 88.1828 225.703C88.4276 225.828 88.7271 225.891 89.0813 225.891C89.524 225.891 89.9146 225.797 90.2531 225.609C90.5917 225.422 90.8599 225.193 91.0578 224.922C91.2609 224.651 91.3703 224.388 91.3859 224.133L92.0031 224.828C91.9667 225.047 91.8677 225.289 91.7063 225.555C91.5448 225.82 91.3287 226.076 91.0578 226.32C90.7922 226.56 90.4745 226.76 90.1047 226.922C89.7401 227.078 89.3287 227.156 88.8703 227.156C88.2974 227.156 87.7948 227.044 87.3625 226.82C86.9354 226.596 86.6021 226.297 86.3625 225.922C86.1281 225.542 86.0109 225.117 86.0109 224.648C86.0109 224.195 86.0995 223.797 86.2766 223.453C86.4537 223.104 86.7089 222.815 87.0422 222.586C87.3755 222.352 87.7766 222.174 88.2453 222.055C88.7141 221.935 89.2375 221.875 89.8156 221.875H91.4953ZM96.4266 225.281V226.445C96.4266 226.919 96.3068 227.419 96.0672 227.945C95.8276 228.477 95.4917 228.919 95.0594 229.273L94.2391 228.703C94.4057 228.474 94.5464 228.24 94.6609 228C94.7755 227.766 94.8615 227.521 94.9188 227.266C94.9813 227.016 95.0125 226.75 95.0125 226.469V225.281H96.4266ZM108.172 218.547V219.742H103.898V218.547H108.172ZM104.109 218.547V227H102.664V218.547H104.109ZM109.453 218.547V227H108V218.547H109.453ZM113.369 220.172V230.25H111.916V218.547H113.244L113.369 220.172ZM119.064 222.703V222.867C119.064 223.482 118.991 224.052 118.845 224.578C118.699 225.099 118.486 225.552 118.205 225.938C117.929 226.323 117.588 226.622 117.181 226.836C116.775 227.049 116.309 227.156 115.783 227.156C115.246 227.156 114.772 227.068 114.361 226.891C113.949 226.714 113.601 226.456 113.314 226.117C113.028 225.779 112.798 225.372 112.627 224.898C112.46 224.424 112.345 223.891 112.283 223.297V222.422C112.345 221.797 112.463 221.237 112.634 220.742C112.806 220.247 113.033 219.826 113.314 219.477C113.601 219.122 113.947 218.854 114.353 218.672C114.759 218.484 115.228 218.391 115.759 218.391C116.291 218.391 116.762 218.495 117.173 218.703C117.585 218.906 117.931 219.198 118.213 219.578C118.494 219.958 118.705 220.414 118.845 220.945C118.991 221.471 119.064 222.057 119.064 222.703ZM117.611 222.867V222.703C117.611 222.281 117.567 221.885 117.478 221.516C117.39 221.141 117.252 220.812 117.064 220.531C116.882 220.245 116.647 220.021 116.361 219.859C116.074 219.693 115.733 219.609 115.338 219.609C114.973 219.609 114.655 219.672 114.384 219.797C114.119 219.922 113.892 220.091 113.705 220.305C113.517 220.513 113.364 220.753 113.244 221.023C113.129 221.289 113.043 221.565 112.986 221.852V223.875C113.09 224.24 113.236 224.583 113.423 224.906C113.611 225.224 113.861 225.482 114.173 225.68C114.486 225.872 114.879 225.969 115.353 225.969C115.744 225.969 116.08 225.888 116.361 225.727C116.647 225.56 116.882 225.333 117.064 225.047C117.252 224.76 117.39 224.432 117.478 224.062C117.567 223.688 117.611 223.289 117.611 222.867ZM120.675 222.867V222.688C120.675 222.078 120.764 221.513 120.941 220.992C121.118 220.466 121.373 220.01 121.706 219.625C122.04 219.234 122.443 218.932 122.917 218.719C123.391 218.5 123.922 218.391 124.511 218.391C125.105 218.391 125.639 218.5 126.113 218.719C126.592 218.932 126.998 219.234 127.331 219.625C127.67 220.01 127.928 220.466 128.105 220.992C128.282 221.513 128.37 222.078 128.37 222.688V222.867C128.37 223.477 128.282 224.042 128.105 224.562C127.928 225.083 127.67 225.539 127.331 225.93C126.998 226.315 126.594 226.617 126.12 226.836C125.652 227.049 125.12 227.156 124.527 227.156C123.933 227.156 123.399 227.049 122.925 226.836C122.451 226.617 122.045 226.315 121.706 225.93C121.373 225.539 121.118 225.083 120.941 224.562C120.764 224.042 120.675 223.477 120.675 222.867ZM122.12 222.688V222.867C122.12 223.289 122.17 223.688 122.269 224.062C122.368 224.432 122.516 224.76 122.714 225.047C122.917 225.333 123.17 225.56 123.472 225.727C123.774 225.888 124.126 225.969 124.527 225.969C124.922 225.969 125.269 225.888 125.566 225.727C125.868 225.56 126.118 225.333 126.316 225.047C126.514 224.76 126.662 224.432 126.761 224.062C126.865 223.688 126.917 223.289 126.917 222.867V222.688C126.917 222.271 126.865 221.878 126.761 221.508C126.662 221.133 126.511 220.802 126.308 220.516C126.11 220.224 125.86 219.995 125.558 219.828C125.261 219.661 124.912 219.578 124.511 219.578C124.115 219.578 123.766 219.661 123.464 219.828C123.167 219.995 122.917 220.224 122.714 220.516C122.516 220.802 122.368 221.133 122.269 221.508C122.17 221.878 122.12 222.271 122.12 222.688ZM131.895 224.711L135.794 218.547H137.247V227H135.794V220.836L131.895 227H130.458V218.547H131.895V224.711ZM135.005 215.484H136.177C136.177 215.891 136.083 216.253 135.895 216.57C135.708 216.883 135.44 217.128 135.091 217.305C134.742 217.482 134.328 217.57 133.848 217.57C133.124 217.57 132.552 217.378 132.13 216.992C131.713 216.602 131.505 216.099 131.505 215.484H132.677C132.677 215.792 132.765 216.062 132.942 216.297C133.119 216.531 133.421 216.648 133.848 216.648C134.265 216.648 134.562 216.531 134.739 216.297C134.916 216.062 135.005 215.792 135.005 215.484ZM141.241 218.547H142.686L142.561 221.711C142.53 222.513 142.439 223.206 142.288 223.789C142.136 224.372 141.944 224.87 141.709 225.281C141.475 225.688 141.212 226.029 140.92 226.305C140.634 226.581 140.337 226.812 140.03 227H139.311L139.35 225.82L139.647 225.812C139.819 225.609 139.985 225.401 140.147 225.188C140.308 224.969 140.457 224.711 140.592 224.414C140.728 224.112 140.84 223.745 140.928 223.312C141.022 222.875 141.082 222.341 141.108 221.711L141.241 218.547ZM141.6 218.547H146.686V227H145.241V219.883H141.6V218.547ZM138.983 225.812H147.772V229.492H146.327V227H140.428V229.492H138.975L138.983 225.812ZM151.086 224.711L154.984 218.547H156.438V227H154.984V220.836L151.086 227H149.648V218.547H151.086V224.711ZM162.353 218.547V227H160.9V218.547H162.353ZM165.189 218.547V219.719H158.119V218.547H165.189ZM169.644 227.156C169.055 227.156 168.521 227.057 168.042 226.859C167.568 226.656 167.159 226.372 166.816 226.008C166.477 225.643 166.217 225.211 166.034 224.711C165.852 224.211 165.761 223.664 165.761 223.07V222.742C165.761 222.055 165.863 221.443 166.066 220.906C166.269 220.365 166.545 219.906 166.894 219.531C167.243 219.156 167.639 218.872 168.081 218.68C168.524 218.487 168.982 218.391 169.456 218.391C170.06 218.391 170.581 218.495 171.019 218.703C171.461 218.911 171.823 219.203 172.105 219.578C172.386 219.948 172.594 220.385 172.73 220.891C172.865 221.391 172.933 221.938 172.933 222.531V223.18H166.62V222H171.488V221.891C171.467 221.516 171.389 221.151 171.253 220.797C171.123 220.443 170.915 220.151 170.628 219.922C170.342 219.693 169.951 219.578 169.456 219.578C169.128 219.578 168.826 219.648 168.55 219.789C168.274 219.924 168.037 220.128 167.839 220.398C167.641 220.669 167.488 221 167.378 221.391C167.269 221.781 167.214 222.232 167.214 222.742V223.07C167.214 223.471 167.269 223.849 167.378 224.203C167.493 224.552 167.657 224.859 167.87 225.125C168.089 225.391 168.352 225.599 168.659 225.75C168.972 225.901 169.326 225.977 169.722 225.977C170.232 225.977 170.665 225.872 171.019 225.664C171.373 225.456 171.683 225.177 171.948 224.828L172.823 225.523C172.641 225.799 172.409 226.062 172.128 226.312C171.847 226.562 171.501 226.766 171.089 226.922C170.683 227.078 170.201 227.156 169.644 227.156ZM180.334 220.172V230.25H178.881V218.547H180.209L180.334 220.172ZM186.03 222.703V222.867C186.03 223.482 185.957 224.052 185.811 224.578C185.665 225.099 185.452 225.552 185.17 225.938C184.894 226.323 184.553 226.622 184.147 226.836C183.741 227.049 183.274 227.156 182.748 227.156C182.212 227.156 181.738 227.068 181.327 226.891C180.915 226.714 180.566 226.456 180.28 226.117C179.993 225.779 179.764 225.372 179.592 224.898C179.426 224.424 179.311 223.891 179.248 223.297V222.422C179.311 221.797 179.428 221.237 179.6 220.742C179.772 220.247 179.998 219.826 180.28 219.477C180.566 219.122 180.913 218.854 181.319 218.672C181.725 218.484 182.194 218.391 182.725 218.391C183.256 218.391 183.728 218.495 184.139 218.703C184.551 218.906 184.897 219.198 185.178 219.578C185.459 219.958 185.67 220.414 185.811 220.945C185.957 221.471 186.03 222.057 186.03 222.703ZM184.577 222.867V222.703C184.577 222.281 184.532 221.885 184.444 221.516C184.355 221.141 184.217 220.812 184.03 220.531C183.847 220.245 183.613 220.021 183.327 219.859C183.04 219.693 182.699 219.609 182.303 219.609C181.939 219.609 181.621 219.672 181.35 219.797C181.084 219.922 180.858 220.091 180.67 220.305C180.483 220.513 180.329 220.753 180.209 221.023C180.095 221.289 180.009 221.565 179.952 221.852V223.875C180.056 224.24 180.202 224.583 180.389 224.906C180.577 225.224 180.827 225.482 181.139 225.68C181.452 225.872 181.845 225.969 182.319 225.969C182.709 225.969 183.045 225.888 183.327 225.727C183.613 225.56 183.847 225.333 184.03 225.047C184.217 224.76 184.355 224.432 184.444 224.062C184.532 223.688 184.577 223.289 184.577 222.867ZM191.531 227.156C190.943 227.156 190.409 227.057 189.93 226.859C189.456 226.656 189.047 226.372 188.703 226.008C188.365 225.643 188.104 225.211 187.922 224.711C187.74 224.211 187.648 223.664 187.648 223.07V222.742C187.648 222.055 187.75 221.443 187.953 220.906C188.156 220.365 188.432 219.906 188.781 219.531C189.13 219.156 189.526 218.872 189.969 218.68C190.411 218.487 190.87 218.391 191.344 218.391C191.948 218.391 192.469 218.495 192.906 218.703C193.349 218.911 193.711 219.203 193.992 219.578C194.273 219.948 194.482 220.385 194.617 220.891C194.753 221.391 194.82 221.938 194.82 222.531V223.18H188.508V222H193.375V221.891C193.354 221.516 193.276 221.151 193.141 220.797C193.01 220.443 192.802 220.151 192.516 219.922C192.229 219.693 191.839 219.578 191.344 219.578C191.016 219.578 190.714 219.648 190.438 219.789C190.161 219.924 189.924 220.128 189.727 220.398C189.529 220.669 189.375 221 189.266 221.391C189.156 221.781 189.102 222.232 189.102 222.742V223.07C189.102 223.471 189.156 223.849 189.266 224.203C189.38 224.552 189.544 224.859 189.758 225.125C189.977 225.391 190.24 225.599 190.547 225.75C190.859 225.901 191.214 225.977 191.609 225.977C192.12 225.977 192.552 225.872 192.906 225.664C193.26 225.456 193.57 225.177 193.836 224.828L194.711 225.523C194.529 225.799 194.297 226.062 194.016 226.312C193.734 226.562 193.388 226.766 192.977 226.922C192.57 227.078 192.089 227.156 191.531 227.156ZM202.119 218.547V219.742H198.213V227H196.767V218.547H202.119ZM205.089 224.711L208.988 218.547H210.441V227H208.988V220.836L205.089 227H203.652V218.547H205.089V224.711ZM216.294 225.969C216.638 225.969 216.955 225.898 217.247 225.758C217.539 225.617 217.778 225.424 217.966 225.18C218.153 224.93 218.26 224.646 218.286 224.328H219.661C219.635 224.828 219.466 225.294 219.153 225.727C218.846 226.154 218.442 226.5 217.942 226.766C217.442 227.026 216.893 227.156 216.294 227.156C215.658 227.156 215.104 227.044 214.63 226.82C214.161 226.596 213.77 226.289 213.458 225.898C213.151 225.508 212.919 225.06 212.763 224.555C212.611 224.044 212.536 223.505 212.536 222.938V222.609C212.536 222.042 212.611 221.505 212.763 221C212.919 220.49 213.151 220.039 213.458 219.648C213.77 219.258 214.161 218.951 214.63 218.727C215.104 218.503 215.658 218.391 216.294 218.391C216.955 218.391 217.533 218.526 218.028 218.797C218.523 219.062 218.911 219.427 219.192 219.891C219.479 220.349 219.635 220.87 219.661 221.453H218.286C218.26 221.104 218.161 220.789 217.989 220.508C217.822 220.227 217.593 220.003 217.302 219.836C217.015 219.664 216.679 219.578 216.294 219.578C215.851 219.578 215.479 219.667 215.177 219.844C214.88 220.016 214.643 220.25 214.466 220.547C214.294 220.839 214.169 221.164 214.091 221.523C214.018 221.878 213.981 222.24 213.981 222.609V222.938C213.981 223.307 214.018 223.672 214.091 224.031C214.164 224.391 214.286 224.716 214.458 225.008C214.635 225.299 214.872 225.534 215.169 225.711C215.471 225.883 215.846 225.969 216.294 225.969ZM224.881 218.547V227H223.428V218.547H224.881ZM227.717 218.547V219.719H220.647V218.547H227.717ZM230.734 220.172V230.25H229.281V218.547H230.609L230.734 220.172ZM236.43 222.703V222.867C236.43 223.482 236.357 224.052 236.211 224.578C236.065 225.099 235.852 225.552 235.57 225.938C235.294 226.323 234.953 226.622 234.547 226.836C234.141 227.049 233.674 227.156 233.148 227.156C232.612 227.156 232.138 227.068 231.727 226.891C231.315 226.714 230.966 226.456 230.68 226.117C230.393 225.779 230.164 225.372 229.992 224.898C229.826 224.424 229.711 223.891 229.648 223.297V222.422C229.711 221.797 229.828 221.237 230 220.742C230.172 220.247 230.398 219.826 230.68 219.477C230.966 219.122 231.313 218.854 231.719 218.672C232.125 218.484 232.594 218.391 233.125 218.391C233.656 218.391 234.128 218.495 234.539 218.703C234.951 218.906 235.297 219.198 235.578 219.578C235.859 219.958 236.07 220.414 236.211 220.945C236.357 221.471 236.43 222.057 236.43 222.703ZM234.977 222.867V222.703C234.977 222.281 234.932 221.885 234.844 221.516C234.755 221.141 234.617 220.812 234.43 220.531C234.247 220.245 234.013 220.021 233.727 219.859C233.44 219.693 233.099 219.609 232.703 219.609C232.339 219.609 232.021 219.672 231.75 219.797C231.484 219.922 231.258 220.091 231.07 220.305C230.883 220.513 230.729 220.753 230.609 221.023C230.495 221.289 230.409 221.565 230.352 221.852V223.875C230.456 224.24 230.602 224.583 230.789 224.906C230.977 225.224 231.227 225.482 231.539 225.68C231.852 225.872 232.245 225.969 232.719 225.969C233.109 225.969 233.445 225.888 233.727 225.727C234.013 225.56 234.247 225.333 234.43 225.047C234.617 224.76 234.755 224.432 234.844 224.062C234.932 223.688 234.977 223.289 234.977 222.867ZM243.408 225.555V221.203C243.408 220.87 243.34 220.581 243.205 220.336C243.074 220.086 242.877 219.893 242.611 219.758C242.345 219.622 242.017 219.555 241.627 219.555C241.262 219.555 240.942 219.617 240.666 219.742C240.395 219.867 240.181 220.031 240.025 220.234C239.874 220.438 239.798 220.656 239.798 220.891H238.353C238.353 220.589 238.431 220.289 238.588 219.992C238.744 219.695 238.968 219.427 239.259 219.188C239.556 218.943 239.91 218.75 240.322 218.609C240.739 218.464 241.202 218.391 241.713 218.391C242.327 218.391 242.869 218.495 243.338 218.703C243.811 218.911 244.181 219.227 244.447 219.648C244.718 220.065 244.853 220.589 244.853 221.219V225.156C244.853 225.438 244.877 225.737 244.923 226.055C244.976 226.372 245.051 226.646 245.15 226.875V227H243.642C243.569 226.833 243.512 226.612 243.47 226.336C243.429 226.055 243.408 225.794 243.408 225.555ZM243.658 221.875L243.673 222.891H242.213C241.801 222.891 241.434 222.924 241.111 222.992C240.788 223.055 240.517 223.151 240.298 223.281C240.08 223.411 239.913 223.576 239.798 223.773C239.684 223.966 239.627 224.193 239.627 224.453C239.627 224.719 239.686 224.961 239.806 225.18C239.926 225.398 240.106 225.573 240.345 225.703C240.59 225.828 240.89 225.891 241.244 225.891C241.686 225.891 242.077 225.797 242.416 225.609C242.754 225.422 243.022 225.193 243.22 224.922C243.423 224.651 243.533 224.388 243.548 224.133L244.166 224.828C244.129 225.047 244.03 225.289 243.869 225.555C243.707 225.82 243.491 226.076 243.22 226.32C242.955 226.56 242.637 226.76 242.267 226.922C241.903 227.078 241.491 227.156 241.033 227.156C240.46 227.156 239.957 227.044 239.525 226.82C239.098 226.596 238.765 226.297 238.525 225.922C238.291 225.542 238.173 225.117 238.173 224.648C238.173 224.195 238.262 223.797 238.439 223.453C238.616 223.104 238.871 222.815 239.205 222.586C239.538 222.352 239.939 222.174 240.408 222.055C240.877 221.935 241.4 221.875 241.978 221.875H243.658ZM247.402 227V218.547H248.847V225.812H252.738V218.547H254.191V227H247.402ZM255.191 225.812L255.05 229.508H253.761V227H252.659V225.812H255.191ZM258.473 224.711L262.372 218.547H263.825V227H262.372V220.836L258.473 227H257.036V218.547H258.473V224.711ZM271.108 222.133V223.312H266.616V222.133H271.108ZM267.873 218.547V227H266.428V218.547H267.873ZM269.873 222.867V222.688C269.873 222.078 269.962 221.513 270.139 220.992C270.316 220.466 270.571 220.01 270.905 219.625C271.243 219.234 271.647 218.932 272.116 218.719C272.59 218.5 273.121 218.391 273.709 218.391C274.308 218.391 274.845 218.5 275.319 218.719C275.793 218.932 276.196 219.234 276.53 219.625C276.868 220.01 277.126 220.466 277.303 220.992C277.48 221.513 277.569 222.078 277.569 222.688V222.867C277.569 223.477 277.48 224.042 277.303 224.562C277.126 225.083 276.871 225.539 276.538 225.93C276.204 226.315 275.801 226.617 275.327 226.836C274.853 227.049 274.319 227.156 273.725 227.156C273.131 227.156 272.597 227.049 272.123 226.836C271.649 226.617 271.243 226.315 270.905 225.93C270.571 225.539 270.316 225.083 270.139 224.562C269.962 224.042 269.873 223.477 269.873 222.867ZM271.327 222.688V222.867C271.327 223.289 271.376 223.688 271.475 224.062C271.574 224.432 271.722 224.76 271.92 225.047C272.123 225.333 272.373 225.56 272.67 225.727C272.972 225.888 273.324 225.969 273.725 225.969C274.126 225.969 274.475 225.888 274.772 225.727C275.074 225.56 275.324 225.333 275.522 225.047C275.72 224.76 275.868 224.432 275.967 224.062C276.071 223.688 276.123 223.289 276.123 222.867V222.688C276.123 222.271 276.071 221.878 275.967 221.508C275.868 221.133 275.717 220.802 275.514 220.516C275.316 220.224 275.066 219.995 274.764 219.828C274.462 219.661 274.11 219.578 273.709 219.578C273.314 219.578 272.967 219.661 272.67 219.828C272.373 219.995 272.123 220.224 271.92 220.516C271.722 220.802 271.574 221.133 271.475 221.508C271.376 221.878 271.327 222.271 271.327 222.688ZM285.15 218.547H286.595L286.47 221.711C286.439 222.513 286.348 223.206 286.197 223.789C286.046 224.372 285.853 224.87 285.619 225.281C285.384 225.688 285.121 226.029 284.83 226.305C284.543 226.581 284.246 226.812 283.939 227H283.22L283.259 225.82L283.556 225.812C283.728 225.609 283.895 225.401 284.056 225.188C284.218 224.969 284.366 224.711 284.502 224.414C284.637 224.112 284.749 223.745 284.838 223.312C284.931 222.875 284.991 222.341 285.017 221.711L285.15 218.547ZM285.509 218.547H290.595V227H289.15V219.883H285.509V218.547ZM282.892 225.812H291.681V229.492H290.236V227H284.338V229.492H282.884L282.892 225.812ZM299.081 218.547V219.742H294.995V218.547H299.081ZM300.355 218.547V227H298.909V218.547H300.355ZM294.644 218.547H296.097L295.878 222.625C295.842 223.255 295.782 223.812 295.698 224.297C295.62 224.776 295.511 225.188 295.37 225.531C295.235 225.875 295.063 226.156 294.855 226.375C294.652 226.589 294.407 226.747 294.12 226.852C293.834 226.951 293.503 227 293.128 227H292.675V225.727L292.988 225.703C293.211 225.688 293.402 225.635 293.558 225.547C293.719 225.458 293.855 225.328 293.964 225.156C294.073 224.979 294.162 224.753 294.23 224.477C294.303 224.201 294.357 223.872 294.394 223.492C294.435 223.112 294.467 222.669 294.488 222.164L294.644 218.547ZM304.544 222.969H306.106L303.661 227H302.098L304.544 222.969ZM305.755 218.547H309.286V227H307.841V219.719H305.755C305.343 219.719 305.007 219.789 304.747 219.93C304.486 220.065 304.296 220.242 304.177 220.461C304.057 220.68 303.997 220.906 303.997 221.141C303.997 221.37 304.052 221.591 304.161 221.805C304.27 222.013 304.442 222.185 304.677 222.32C304.911 222.456 305.213 222.523 305.583 222.523H308.231V223.711H305.583C305.098 223.711 304.669 223.646 304.294 223.516C303.919 223.385 303.601 223.206 303.341 222.977C303.08 222.742 302.882 222.469 302.747 222.156C302.611 221.839 302.544 221.495 302.544 221.125C302.544 220.755 302.614 220.414 302.755 220.102C302.901 219.789 303.109 219.516 303.38 219.281C303.656 219.047 303.992 218.867 304.388 218.742C304.789 218.612 305.244 218.547 305.755 218.547ZM317.406 218.547H318.852L318.727 221.711C318.695 222.513 318.604 223.206 318.453 223.789C318.302 224.372 318.109 224.87 317.875 225.281C317.641 225.688 317.378 226.029 317.086 226.305C316.799 226.581 316.503 226.812 316.195 227H315.477L315.516 225.82L315.812 225.812C315.984 225.609 316.151 225.401 316.312 225.188C316.474 224.969 316.622 224.711 316.758 224.414C316.893 224.112 317.005 223.745 317.094 223.312C317.188 222.875 317.247 222.341 317.273 221.711L317.406 218.547ZM317.766 218.547H322.852V227H321.406V219.883H317.766V218.547ZM315.148 225.812H323.938V229.492H322.492V227H316.594V229.492H315.141L315.148 225.812ZM330.673 225.555V221.203C330.673 220.87 330.606 220.581 330.47 220.336C330.34 220.086 330.142 219.893 329.877 219.758C329.611 219.622 329.283 219.555 328.892 219.555C328.528 219.555 328.207 219.617 327.931 219.742C327.66 219.867 327.447 220.031 327.291 220.234C327.14 220.438 327.064 220.656 327.064 220.891H325.619C325.619 220.589 325.697 220.289 325.853 219.992C326.009 219.695 326.233 219.427 326.525 219.188C326.822 218.943 327.176 218.75 327.588 218.609C328.004 218.464 328.468 218.391 328.978 218.391C329.593 218.391 330.134 218.495 330.603 218.703C331.077 218.911 331.447 219.227 331.713 219.648C331.983 220.065 332.119 220.589 332.119 221.219V225.156C332.119 225.438 332.142 225.737 332.189 226.055C332.241 226.372 332.317 226.646 332.416 226.875V227H330.908C330.835 226.833 330.778 226.612 330.736 226.336C330.694 226.055 330.673 225.794 330.673 225.555ZM330.923 221.875L330.939 222.891H329.478C329.067 222.891 328.7 222.924 328.377 222.992C328.054 223.055 327.783 223.151 327.564 223.281C327.345 223.411 327.179 223.576 327.064 223.773C326.95 223.966 326.892 224.193 326.892 224.453C326.892 224.719 326.952 224.961 327.072 225.18C327.192 225.398 327.371 225.573 327.611 225.703C327.856 225.828 328.155 225.891 328.509 225.891C328.952 225.891 329.343 225.797 329.681 225.609C330.02 225.422 330.288 225.193 330.486 224.922C330.689 224.651 330.798 224.388 330.814 224.133L331.431 224.828C331.395 225.047 331.296 225.289 331.134 225.555C330.973 225.82 330.757 226.076 330.486 226.32C330.22 226.56 329.903 226.76 329.533 226.922C329.168 227.078 328.757 227.156 328.298 227.156C327.726 227.156 327.223 227.044 326.791 226.82C326.364 226.596 326.03 226.297 325.791 225.922C325.556 225.542 325.439 225.117 325.439 224.648C325.439 224.195 325.528 223.797 325.705 223.453C325.882 223.104 326.137 222.815 326.47 222.586C326.804 222.352 327.205 222.174 327.673 222.055C328.142 221.935 328.666 221.875 329.244 221.875H330.923ZM340.191 218.547V219.742H336.105V218.547H340.191ZM341.464 218.547V227H340.019V218.547H341.464ZM335.753 218.547H337.206L336.988 222.625C336.951 223.255 336.891 223.812 336.808 224.297C336.73 224.776 336.62 225.188 336.48 225.531C336.344 225.875 336.172 226.156 335.964 226.375C335.761 226.589 335.516 226.747 335.23 226.852C334.943 226.951 334.613 227 334.238 227H333.784V225.727L334.097 225.703C334.321 225.688 334.511 225.635 334.667 225.547C334.829 225.458 334.964 225.328 335.073 225.156C335.183 224.979 335.271 224.753 335.339 224.477C335.412 224.201 335.467 223.872 335.503 223.492C335.545 223.112 335.576 222.669 335.597 222.164L335.753 218.547ZM345.13 221.453H347.669C348.351 221.453 348.927 221.573 349.395 221.812C349.864 222.047 350.218 222.372 350.458 222.789C350.703 223.201 350.825 223.669 350.825 224.195C350.825 224.586 350.757 224.953 350.622 225.297C350.486 225.635 350.283 225.932 350.013 226.188C349.747 226.443 349.416 226.643 349.02 226.789C348.63 226.93 348.179 227 347.669 227H344.075V218.547H345.52V225.812H347.669C348.085 225.812 348.419 225.737 348.669 225.586C348.919 225.435 349.098 225.24 349.208 225C349.317 224.76 349.372 224.51 349.372 224.25C349.372 223.995 349.317 223.745 349.208 223.5C349.098 223.255 348.919 223.052 348.669 222.891C348.419 222.724 348.085 222.641 347.669 222.641H345.13V221.453ZM358.514 222.211V223.383H354.045V222.211H358.514ZM354.35 218.547V227H352.905V218.547H354.35ZM359.686 218.547V227H358.233V218.547H359.686ZM365.672 227.156C365.083 227.156 364.549 227.057 364.07 226.859C363.596 226.656 363.188 226.372 362.844 226.008C362.505 225.643 362.245 225.211 362.062 224.711C361.88 224.211 361.789 223.664 361.789 223.07V222.742C361.789 222.055 361.891 221.443 362.094 220.906C362.297 220.365 362.573 219.906 362.922 219.531C363.271 219.156 363.667 218.872 364.109 218.68C364.552 218.487 365.01 218.391 365.484 218.391C366.089 218.391 366.609 218.495 367.047 218.703C367.49 218.911 367.852 219.203 368.133 219.578C368.414 219.948 368.622 220.385 368.758 220.891C368.893 221.391 368.961 221.938 368.961 222.531V223.18H362.648V222H367.516V221.891C367.495 221.516 367.417 221.151 367.281 220.797C367.151 220.443 366.943 220.151 366.656 219.922C366.37 219.693 365.979 219.578 365.484 219.578C365.156 219.578 364.854 219.648 364.578 219.789C364.302 219.924 364.065 220.128 363.867 220.398C363.669 220.669 363.516 221 363.406 221.391C363.297 221.781 363.242 222.232 363.242 222.742V223.07C363.242 223.471 363.297 223.849 363.406 224.203C363.521 224.552 363.685 224.859 363.898 225.125C364.117 225.391 364.38 225.599 364.688 225.75C365 225.901 365.354 225.977 365.75 225.977C366.26 225.977 366.693 225.872 367.047 225.664C367.401 225.456 367.711 225.177 367.977 224.828L368.852 225.523C368.669 225.799 368.438 226.062 368.156 226.312C367.875 226.562 367.529 226.766 367.117 226.922C366.711 227.078 366.229 227.156 365.672 227.156ZM372.361 224.711L376.259 218.547H377.713V227H376.259V220.836L372.361 227H370.923V218.547H372.361V224.711ZM375.47 215.484H376.642C376.642 215.891 376.548 216.253 376.361 216.57C376.173 216.883 375.905 217.128 375.556 217.305C375.207 217.482 374.793 217.57 374.314 217.57C373.59 217.57 373.017 217.378 372.595 216.992C372.179 216.602 371.97 216.099 371.97 215.484H373.142C373.142 215.792 373.231 216.062 373.408 216.297C373.585 216.531 373.887 216.648 374.314 216.648C374.731 216.648 375.028 216.531 375.205 216.297C375.382 216.062 375.47 215.792 375.47 215.484ZM380.308 218.547H381.753V225.812H384.847V218.547H386.3V225.812H389.386V218.547H390.831V227H380.308V218.547ZM394.848 224.711L398.747 218.547H400.2V227H398.747V220.836L394.848 227H393.411V218.547H394.848V224.711ZM403.647 218.547L405.498 221.625L407.373 218.547H409.069L406.303 222.719L409.155 227H407.483L405.53 223.828L403.577 227H401.897L404.741 222.719L401.983 218.547H403.647ZM416.4 218.547H417.845L417.72 221.711C417.689 222.513 417.598 223.206 417.447 223.789C417.296 224.372 417.103 224.87 416.869 225.281C416.634 225.688 416.371 226.029 416.08 226.305C415.793 226.581 415.496 226.812 415.189 227H414.47L414.509 225.82L414.806 225.812C414.978 225.609 415.145 225.401 415.306 225.188C415.468 224.969 415.616 224.711 415.752 224.414C415.887 224.112 415.999 223.745 416.088 223.312C416.181 222.875 416.241 222.341 416.267 221.711L416.4 218.547ZM416.759 218.547H421.845V227H420.4V219.883H416.759V218.547ZM414.142 225.812H422.931V229.492H421.486V227H415.588V229.492H414.134L414.142 225.812ZM428.191 227.156C427.602 227.156 427.068 227.057 426.589 226.859C426.115 226.656 425.706 226.372 425.363 226.008C425.024 225.643 424.764 225.211 424.581 224.711C424.399 224.211 424.308 223.664 424.308 223.07V222.742C424.308 222.055 424.409 221.443 424.613 220.906C424.816 220.365 425.092 219.906 425.441 219.531C425.79 219.156 426.185 218.872 426.628 218.68C427.071 218.487 427.529 218.391 428.003 218.391C428.607 218.391 429.128 218.495 429.566 218.703C430.008 218.911 430.37 219.203 430.652 219.578C430.933 219.948 431.141 220.385 431.277 220.891C431.412 221.391 431.48 221.938 431.48 222.531V223.18H425.167V222H430.034V221.891C430.014 221.516 429.935 221.151 429.8 220.797C429.67 220.443 429.461 220.151 429.175 219.922C428.889 219.693 428.498 219.578 428.003 219.578C427.675 219.578 427.373 219.648 427.097 219.789C426.821 219.924 426.584 220.128 426.386 220.398C426.188 220.669 426.034 221 425.925 221.391C425.816 221.781 425.761 222.232 425.761 222.742V223.07C425.761 223.471 425.816 223.849 425.925 224.203C426.04 224.552 426.204 224.859 426.417 225.125C426.636 225.391 426.899 225.599 427.206 225.75C427.519 225.901 427.873 225.977 428.269 225.977C428.779 225.977 429.211 225.872 429.566 225.664C429.92 225.456 430.23 225.177 430.495 224.828L431.37 225.523C431.188 225.799 430.956 226.062 430.675 226.312C430.394 226.562 430.047 226.766 429.636 226.922C429.23 227.078 428.748 227.156 428.191 227.156ZM434.88 224.711L438.778 218.547H440.231V227H438.778V220.836L434.88 227H433.442V218.547H434.88V224.711ZM437.989 215.484H439.161C439.161 215.891 439.067 216.253 438.88 216.57C438.692 216.883 438.424 217.128 438.075 217.305C437.726 217.482 437.312 217.57 436.833 217.57C436.109 217.57 435.536 217.378 435.114 216.992C434.697 216.602 434.489 216.099 434.489 215.484H435.661C435.661 215.792 435.749 216.062 435.927 216.297C436.104 216.531 436.406 216.648 436.833 216.648C437.249 216.648 437.546 216.531 437.723 216.297C437.901 216.062 437.989 215.792 437.989 215.484ZM446.084 225.969C446.428 225.969 446.746 225.898 447.038 225.758C447.329 225.617 447.569 225.424 447.756 225.18C447.944 224.93 448.051 224.646 448.077 224.328H449.452C449.426 224.828 449.256 225.294 448.944 225.727C448.636 226.154 448.233 226.5 447.733 226.766C447.233 227.026 446.683 227.156 446.084 227.156C445.449 227.156 444.894 227.044 444.42 226.82C443.952 226.596 443.561 226.289 443.248 225.898C442.941 225.508 442.709 225.06 442.553 224.555C442.402 224.044 442.327 223.505 442.327 222.938V222.609C442.327 222.042 442.402 221.505 442.553 221C442.709 220.49 442.941 220.039 443.248 219.648C443.561 219.258 443.952 218.951 444.42 218.727C444.894 218.503 445.449 218.391 446.084 218.391C446.746 218.391 447.324 218.526 447.819 218.797C448.314 219.062 448.702 219.427 448.983 219.891C449.269 220.349 449.426 220.87 449.452 221.453H448.077C448.051 221.104 447.952 220.789 447.78 220.508C447.613 220.227 447.384 220.003 447.092 219.836C446.806 219.664 446.47 219.578 446.084 219.578C445.642 219.578 445.269 219.667 444.967 219.844C444.67 220.016 444.433 220.25 444.256 220.547C444.084 220.839 443.959 221.164 443.881 221.523C443.808 221.878 443.772 222.24 443.772 222.609V222.938C443.772 223.307 443.808 223.672 443.881 224.031C443.954 224.391 444.077 224.716 444.248 225.008C444.426 225.299 444.663 225.534 444.959 225.711C445.261 225.883 445.636 225.969 446.084 225.969ZM455.195 223.281H452.422L452.406 222.125H454.672C455.12 222.125 455.492 222.081 455.789 221.992C456.091 221.904 456.318 221.771 456.469 221.594C456.62 221.417 456.695 221.198 456.695 220.938C456.695 220.734 456.651 220.557 456.562 220.406C456.479 220.25 456.352 220.122 456.18 220.023C456.008 219.919 455.794 219.844 455.539 219.797C455.289 219.745 454.995 219.719 454.656 219.719H452.805V227H451.359V218.547H454.656C455.193 218.547 455.674 218.594 456.102 218.688C456.534 218.781 456.901 218.924 457.203 219.117C457.51 219.305 457.745 219.544 457.906 219.836C458.068 220.128 458.148 220.471 458.148 220.867C458.148 221.122 458.096 221.365 457.992 221.594C457.888 221.823 457.734 222.026 457.531 222.203C457.328 222.38 457.078 222.526 456.781 222.641C456.484 222.75 456.143 222.82 455.758 222.852L455.195 223.281ZM455.195 227H451.898L452.617 225.828H455.195C455.596 225.828 455.93 225.779 456.195 225.68C456.461 225.576 456.659 225.43 456.789 225.242C456.924 225.049 456.992 224.82 456.992 224.555C456.992 224.289 456.924 224.062 456.789 223.875C456.659 223.682 456.461 223.536 456.195 223.438C455.93 223.333 455.596 223.281 455.195 223.281H453L453.016 222.125H455.758L456.281 222.562C456.745 222.599 457.138 222.714 457.461 222.906C457.784 223.099 458.029 223.344 458.195 223.641C458.362 223.932 458.445 224.25 458.445 224.594C458.445 224.99 458.37 225.339 458.219 225.641C458.073 225.943 457.859 226.195 457.578 226.398C457.297 226.596 456.956 226.747 456.555 226.852C456.154 226.951 455.701 227 455.195 227ZM462.095 224.711L465.994 218.547H467.447V227H465.994V220.836L462.095 227H460.658V218.547H462.095V224.711ZM471.48 224.711L475.378 218.547H476.831V227H475.378V220.836L471.48 227H470.042V218.547H471.48V224.711ZM474.589 215.484H475.761C475.761 215.891 475.667 216.253 475.48 216.57C475.292 216.883 475.024 217.128 474.675 217.305C474.326 217.482 473.912 217.57 473.433 217.57C472.709 217.57 472.136 217.378 471.714 216.992C471.297 216.602 471.089 216.099 471.089 215.484H472.261C472.261 215.792 472.349 216.062 472.527 216.297C472.704 216.531 473.006 216.648 473.433 216.648C473.849 216.648 474.146 216.531 474.323 216.297C474.501 216.062 474.589 215.792 474.589 215.484ZM487.389 223.281H484.616L484.6 222.125H486.866C487.314 222.125 487.686 222.081 487.983 221.992C488.285 221.904 488.511 221.771 488.663 221.594C488.814 221.417 488.889 221.198 488.889 220.938C488.889 220.734 488.845 220.557 488.756 220.406C488.673 220.25 488.545 220.122 488.373 220.023C488.202 219.919 487.988 219.844 487.733 219.797C487.483 219.745 487.189 219.719 486.85 219.719H484.998V227H483.553V218.547H486.85C487.386 218.547 487.868 218.594 488.295 218.688C488.728 218.781 489.095 218.924 489.397 219.117C489.704 219.305 489.939 219.544 490.1 219.836C490.261 220.128 490.342 220.471 490.342 220.867C490.342 221.122 490.29 221.365 490.186 221.594C490.082 221.823 489.928 222.026 489.725 222.203C489.522 222.38 489.272 222.526 488.975 222.641C488.678 222.75 488.337 222.82 487.952 222.852L487.389 223.281ZM487.389 227H484.092L484.811 225.828H487.389C487.79 225.828 488.123 225.779 488.389 225.68C488.655 225.576 488.853 225.43 488.983 225.242C489.118 225.049 489.186 224.82 489.186 224.555C489.186 224.289 489.118 224.062 488.983 223.875C488.853 223.682 488.655 223.536 488.389 223.438C488.123 223.333 487.79 223.281 487.389 223.281H485.194L485.209 222.125H487.952L488.475 222.562C488.939 222.599 489.332 222.714 489.655 222.906C489.978 223.099 490.222 223.344 490.389 223.641C490.556 223.932 490.639 224.25 490.639 224.594C490.639 224.99 490.564 225.339 490.413 225.641C490.267 225.943 490.053 226.195 489.772 226.398C489.491 226.596 489.149 226.747 488.748 226.852C488.347 226.951 487.894 227 487.389 227ZM500.228 225.969C500.572 225.969 500.89 225.898 501.181 225.758C501.473 225.617 501.713 225.424 501.9 225.18C502.088 224.93 502.194 224.646 502.22 224.328H503.595C503.569 224.828 503.4 225.294 503.088 225.727C502.78 226.154 502.377 226.5 501.877 226.766C501.377 227.026 500.827 227.156 500.228 227.156C499.593 227.156 499.038 227.044 498.564 226.82C498.095 226.596 497.705 226.289 497.392 225.898C497.085 225.508 496.853 225.06 496.697 224.555C496.546 224.044 496.47 223.505 496.47 222.938V222.609C496.47 222.042 496.546 221.505 496.697 221C496.853 220.49 497.085 220.039 497.392 219.648C497.705 219.258 498.095 218.951 498.564 218.727C499.038 218.503 499.593 218.391 500.228 218.391C500.89 218.391 501.468 218.526 501.963 218.797C502.457 219.062 502.845 219.427 503.127 219.891C503.413 220.349 503.569 220.87 503.595 221.453H502.22C502.194 221.104 502.095 220.789 501.923 220.508C501.757 220.227 501.528 220.003 501.236 219.836C500.95 219.664 500.614 219.578 500.228 219.578C499.785 219.578 499.413 219.667 499.111 219.844C498.814 220.016 498.577 220.25 498.4 220.547C498.228 220.839 498.103 221.164 498.025 221.523C497.952 221.878 497.916 222.24 497.916 222.609V222.938C497.916 223.307 497.952 223.672 498.025 224.031C498.098 224.391 498.22 224.716 498.392 225.008C498.569 225.299 498.806 225.534 499.103 225.711C499.405 225.883 499.78 225.969 500.228 225.969ZM506.933 224.711L510.831 218.547H512.284V227H510.831V220.836L506.933 227H505.495V218.547H506.933V224.711ZM518.138 225.969C518.481 225.969 518.799 225.898 519.091 225.758C519.382 225.617 519.622 225.424 519.809 225.18C519.997 224.93 520.104 224.646 520.13 224.328H521.505C521.479 224.828 521.309 225.294 520.997 225.727C520.69 226.154 520.286 226.5 519.786 226.766C519.286 227.026 518.736 227.156 518.138 227.156C517.502 227.156 516.947 227.044 516.473 226.82C516.005 226.596 515.614 226.289 515.302 225.898C514.994 225.508 514.763 225.06 514.606 224.555C514.455 224.044 514.38 223.505 514.38 222.938V222.609C514.38 222.042 514.455 221.505 514.606 221C514.763 220.49 514.994 220.039 515.302 219.648C515.614 219.258 516.005 218.951 516.473 218.727C516.947 218.503 517.502 218.391 518.138 218.391C518.799 218.391 519.377 218.526 519.872 218.797C520.367 219.062 520.755 219.427 521.036 219.891C521.322 220.349 521.479 220.87 521.505 221.453H520.13C520.104 221.104 520.005 220.789 519.833 220.508C519.666 220.227 519.437 220.003 519.145 219.836C518.859 219.664 518.523 219.578 518.138 219.578C517.695 219.578 517.322 219.667 517.02 219.844C516.723 220.016 516.486 220.25 516.309 220.547C516.138 220.839 516.013 221.164 515.934 221.523C515.861 221.878 515.825 222.24 515.825 222.609V222.938C515.825 223.307 515.861 223.672 515.934 224.031C516.007 224.391 516.13 224.716 516.302 225.008C516.479 225.299 516.716 225.534 517.013 225.711C517.315 225.883 517.69 225.969 518.138 225.969ZM526.725 218.547V227H525.272V218.547H526.725ZM529.561 218.547V219.719H522.491V218.547H529.561ZM534.016 227.156C533.427 227.156 532.893 227.057 532.414 226.859C531.94 226.656 531.531 226.372 531.188 226.008C530.849 225.643 530.589 225.211 530.406 224.711C530.224 224.211 530.133 223.664 530.133 223.07V222.742C530.133 222.055 530.234 221.443 530.438 220.906C530.641 220.365 530.917 219.906 531.266 219.531C531.615 219.156 532.01 218.872 532.453 218.68C532.896 218.487 533.354 218.391 533.828 218.391C534.432 218.391 534.953 218.495 535.391 218.703C535.833 218.911 536.195 219.203 536.477 219.578C536.758 219.948 536.966 220.385 537.102 220.891C537.237 221.391 537.305 221.938 537.305 222.531V223.18H530.992V222H535.859V221.891C535.839 221.516 535.76 221.151 535.625 220.797C535.495 220.443 535.286 220.151 535 219.922C534.714 219.693 534.323 219.578 533.828 219.578C533.5 219.578 533.198 219.648 532.922 219.789C532.646 219.924 532.409 220.128 532.211 220.398C532.013 220.669 531.859 221 531.75 221.391C531.641 221.781 531.586 222.232 531.586 222.742V223.07C531.586 223.471 531.641 223.849 531.75 224.203C531.865 224.552 532.029 224.859 532.242 225.125C532.461 225.391 532.724 225.599 533.031 225.75C533.344 225.901 533.698 225.977 534.094 225.977C534.604 225.977 535.036 225.872 535.391 225.664C535.745 225.456 536.055 225.177 536.32 224.828L537.195 225.523C537.013 225.799 536.781 226.062 536.5 226.312C536.219 226.562 535.872 226.766 535.461 226.922C535.055 227.078 534.573 227.156 534.016 227.156ZM544.002 225.078L546.877 218.547H548.267L544.502 227H543.502L539.752 218.547H541.142L544.002 225.078ZM540.72 218.547V227H539.275V218.547H540.72ZM547.236 227V218.547H548.689V227H547.236ZM554.675 227.156C554.086 227.156 553.553 227.057 553.073 226.859C552.599 226.656 552.191 226.372 551.847 226.008C551.508 225.643 551.248 225.211 551.066 224.711C550.883 224.211 550.792 223.664 550.792 223.07V222.742C550.792 222.055 550.894 221.443 551.097 220.906C551.3 220.365 551.576 219.906 551.925 219.531C552.274 219.156 552.67 218.872 553.112 218.68C553.555 218.487 554.014 218.391 554.487 218.391C555.092 218.391 555.612 218.495 556.05 218.703C556.493 218.911 556.855 219.203 557.136 219.578C557.417 219.948 557.626 220.385 557.761 220.891C557.896 221.391 557.964 221.938 557.964 222.531V223.18H551.652V222H556.519V221.891C556.498 221.516 556.42 221.151 556.284 220.797C556.154 220.443 555.946 220.151 555.659 219.922C555.373 219.693 554.982 219.578 554.487 219.578C554.159 219.578 553.857 219.648 553.581 219.789C553.305 219.924 553.068 220.128 552.87 220.398C552.672 220.669 552.519 221 552.409 221.391C552.3 221.781 552.245 222.232 552.245 222.742V223.07C552.245 223.471 552.3 223.849 552.409 224.203C552.524 224.552 552.688 224.859 552.902 225.125C553.12 225.391 553.383 225.599 553.691 225.75C554.003 225.901 554.357 225.977 554.753 225.977C555.264 225.977 555.696 225.872 556.05 225.664C556.404 225.456 556.714 225.177 556.98 224.828L557.855 225.523C557.672 225.799 557.441 226.062 557.159 226.312C556.878 226.562 556.532 226.766 556.12 226.922C555.714 227.078 555.232 227.156 554.675 227.156Z" fill="#8F9BB3"/>
</svg>
