<svg width="20" height="20" viewBox="0 0 20 20" fill="none" xmlns="http://www.w3.org/2000/svg">
<path d="M10.0013 9.99967C10.4615 9.99967 10.8346 9.62658 10.8346 9.16634C10.8346 8.7061 10.4615 8.33301 10.0013 8.33301C9.54106 8.33301 9.16797 8.7061 9.16797 9.16634C9.16797 9.62658 9.54106 9.99967 10.0013 9.99967Z" fill="#8F9BB3"/>
<path d="M13.3333 9.99967C13.7936 9.99967 14.1667 9.62658 14.1667 9.16634C14.1667 8.7061 13.7936 8.33301 13.3333 8.33301C12.8731 8.33301 12.5 8.7061 12.5 9.16634C12.5 9.62658 12.8731 9.99967 13.3333 9.99967Z" fill="#8F9BB3"/>
<path d="M6.66536 9.99967C7.1256 9.99967 7.4987 9.62658 7.4987 9.16634C7.4987 8.7061 7.1256 8.33301 6.66536 8.33301C6.20513 8.33301 5.83203 8.7061 5.83203 9.16634C5.83203 9.62658 6.20513 9.99967 6.66536 9.99967Z" fill="#8F9BB3"/>
<path d="M15.8346 2.5H4.16797C3.50493 2.5 2.86904 2.76339 2.4002 3.23223C1.93136 3.70107 1.66797 4.33696 1.66797 5V17.5C1.66822 17.6477 1.70771 17.7926 1.78239 17.92C1.85706 18.0474 1.96425 18.1526 2.09297 18.225C2.21752 18.2956 2.35815 18.3329 2.5013 18.3333C2.65087 18.3333 2.79767 18.293 2.9263 18.2167L6.66797 15.95C6.80627 15.8677 6.96546 15.8271 7.1263 15.8333H15.8346C16.4977 15.8333 17.1336 15.5699 17.6024 15.1011C18.0712 14.6323 18.3346 13.9964 18.3346 13.3333V5C18.3346 4.33696 18.0712 3.70107 17.6024 3.23223C17.1336 2.76339 16.4977 2.5 15.8346 2.5ZM16.668 13.3333C16.668 13.5543 16.5802 13.7663 16.4239 13.9226C16.2676 14.0789 16.0556 14.1667 15.8346 14.1667H7.1263C6.67116 14.1663 6.22454 14.2902 5.83464 14.525L3.33464 16.025V5C3.33464 4.77899 3.42243 4.56702 3.57871 4.41074C3.73499 4.25446 3.94696 4.16667 4.16797 4.16667H15.8346C16.0556 4.16667 16.2676 4.25446 16.4239 4.41074C16.5802 4.56702 16.668 4.77899 16.668 5V13.3333Z" fill="#8F9BB3"/>
</svg>
