<svg width="24" height="24" viewBox="0 0 24 24" fill="none" xmlns="http://www.w3.org/2000/svg">
<path fill-rule="evenodd" clip-rule="evenodd" d="M12.0002 15.5002C11.7442 15.5002 11.4883 15.4023 11.2933 15.2073L7.29325 11.2072C6.90225 10.8162 6.90225 10.1842 7.29325 9.79325C7.68425 9.40225 8.31625 9.40225 8.70725 9.79325L12.0122 13.0982L15.3053 9.91825C15.7043 9.53525 16.3352 9.54625 16.7192 9.94325C17.1032 10.3403 17.0922 10.9742 16.6952 11.3572L12.6953 15.2193C12.5002 15.4073 12.2502 15.5002 12.0002 15.5002Z" fill="#8F9BB3"/>
<mask id="mask0_5317_31144" style="mask-type:alpha" maskUnits="userSpaceOnUse" x="7" y="9" width="10" height="7">
<path fill-rule="evenodd" clip-rule="evenodd" d="M12.0002 15.5002C11.7442 15.5002 11.4883 15.4023 11.2933 15.2073L7.29325 11.2072C6.90225 10.8162 6.90225 10.1842 7.29325 9.79325C7.68425 9.40225 8.31625 9.40225 8.70725 9.79325L12.0122 13.0982L15.3053 9.91825C15.7043 9.53525 16.3352 9.54625 16.7192 9.94325C17.1032 10.3403 17.0922 10.9742 16.6952 11.3572L12.6953 15.2193C12.5002 15.4073 12.2502 15.5002 12.0002 15.5002Z" fill="white"/>
</mask>
<g mask="url(#mask0_5317_31144)">
</g>
</svg>
