<svg width="20" height="20" viewBox="0 0 20 20" fill="none" xmlns="http://www.w3.org/2000/svg">
<path fill-rule="evenodd" clip-rule="evenodd" d="M17.4937 5.8025C17.4921 5.7425 17.4746 5.68583 17.4587 5.62833C17.4462 5.58 17.4404 5.53083 17.4196 5.48667C17.4004 5.44333 17.3679 5.40833 17.3396 5.36833C17.3046 5.3175 17.2729 5.26667 17.2279 5.225C17.2204 5.2175 17.2171 5.2075 17.2087 5.20083C17.1787 5.175 17.1421 5.16583 17.1096 5.145C17.0596 5.1125 17.0104 5.07917 16.9537 5.0575C16.8979 5.0375 16.8429 5.0325 16.7854 5.02417C16.7454 5.01833 16.7096 5 16.6671 5H12.5004C12.0396 5 11.6671 5.37333 11.6671 5.83333C11.6671 6.29333 12.0396 6.66667 12.5004 6.66667H14.8554L11.4921 10.59L7.92875 8.4525C7.57625 8.23917 7.12291 8.3175 6.85958 8.63333L2.69291 13.6333C2.39875 13.9867 2.44625 14.5125 2.79958 14.8067C2.95625 14.9367 3.14458 15 3.33291 15C3.57208 15 3.80875 14.8983 3.97375 14.7L7.68375 10.2483L11.2379 12.3817C11.5871 12.5908 12.0354 12.5175 12.2996 12.2092L15.8337 8.08583V10C15.8337 10.46 16.2062 10.8333 16.6671 10.8333C17.1279 10.8333 17.5004 10.46 17.5004 10V5.83333C17.5004 5.8225 17.4946 5.81333 17.4937 5.8025Z" fill="#8F9BB3"/>
<mask id="mask0_5317_31164" style="mask-type:alpha" maskUnits="userSpaceOnUse" x="2" y="5" width="16" height="10">
<path fill-rule="evenodd" clip-rule="evenodd" d="M17.4937 5.8025C17.4921 5.7425 17.4746 5.68583 17.4587 5.62833C17.4462 5.58 17.4404 5.53083 17.4196 5.48667C17.4004 5.44333 17.3679 5.40833 17.3396 5.36833C17.3046 5.3175 17.2729 5.26667 17.2279 5.225C17.2204 5.2175 17.2171 5.2075 17.2087 5.20083C17.1787 5.175 17.1421 5.16583 17.1096 5.145C17.0596 5.1125 17.0104 5.07917 16.9537 5.0575C16.8979 5.0375 16.8429 5.0325 16.7854 5.02417C16.7454 5.01833 16.7096 5 16.6671 5H12.5004C12.0396 5 11.6671 5.37333 11.6671 5.83333C11.6671 6.29333 12.0396 6.66667 12.5004 6.66667H14.8554L11.4921 10.59L7.92875 8.4525C7.57625 8.23917 7.12291 8.3175 6.85958 8.63333L2.69291 13.6333C2.39875 13.9867 2.44625 14.5125 2.79958 14.8067C2.95625 14.9367 3.14458 15 3.33291 15C3.57208 15 3.80875 14.8983 3.97375 14.7L7.68375 10.2483L11.2379 12.3817C11.5871 12.5908 12.0354 12.5175 12.2996 12.2092L15.8337 8.08583V10C15.8337 10.46 16.2062 10.8333 16.6671 10.8333C17.1279 10.8333 17.5004 10.46 17.5004 10V5.83333C17.5004 5.8225 17.4946 5.81333 17.4937 5.8025Z" fill="white"/>
</mask>
<g mask="url(#mask0_5317_31164)">
</g>
</svg>
