<svg width="20" height="20" viewBox="0 0 20 20" fill="none" xmlns="http://www.w3.org/2000/svg">
<path d="M15.8346 4.16699H4.16797C3.50493 4.16699 2.86904 4.43038 2.4002 4.89923C1.93136 5.36807 1.66797 6.00395 1.66797 6.66699V13.3337C1.66797 13.9967 1.93136 14.6326 2.4002 15.1014C2.86904 15.5703 3.50493 15.8337 4.16797 15.8337H15.8346C16.4977 15.8337 17.1336 15.5703 17.6024 15.1014C18.0712 14.6326 18.3346 13.9967 18.3346 13.3337V6.66699C18.3346 6.00395 18.0712 5.36807 17.6024 4.89923C17.1336 4.43038 16.4977 4.16699 15.8346 4.16699ZM3.33464 6.66699C3.33464 6.44598 3.42243 6.23402 3.57871 6.07774C3.73499 5.92146 3.94696 5.83366 4.16797 5.83366H15.8346C16.0556 5.83366 16.2676 5.92146 16.4239 6.07774C16.5802 6.23402 16.668 6.44598 16.668 6.66699V7.50033H3.33464V6.66699ZM16.668 13.3337C16.668 13.5547 16.5802 13.7666 16.4239 13.9229C16.2676 14.0792 16.0556 14.167 15.8346 14.167H4.16797C3.94696 14.167 3.73499 14.0792 3.57871 13.9229C3.42243 13.7666 3.33464 13.5547 3.33464 13.3337V9.16699H16.668V13.3337Z" fill="#8F9BB3"/>
<path d="M5.83333 12.4997H9.16667C9.38768 12.4997 9.59964 12.4119 9.75592 12.2556C9.9122 12.0993 10 11.8874 10 11.6663C10 11.4453 9.9122 11.2334 9.75592 11.0771C9.59964 10.9208 9.38768 10.833 9.16667 10.833H5.83333C5.61232 10.833 5.40036 10.9208 5.24408 11.0771C5.0878 11.2334 5 11.4453 5 11.6663C5 11.8874 5.0878 12.0993 5.24408 12.2556C5.40036 12.4119 5.61232 12.4997 5.83333 12.4997Z" fill="#8F9BB3"/>
<path d="M12.5013 12.4997H14.168C14.389 12.4997 14.6009 12.4119 14.7572 12.2556C14.9135 12.0993 15.0013 11.8874 15.0013 11.6663C15.0013 11.4453 14.9135 11.2334 14.7572 11.0771C14.6009 10.9208 14.389 10.833 14.168 10.833H12.5013C12.2803 10.833 12.0683 10.9208 11.912 11.0771C11.7558 11.2334 11.668 11.4453 11.668 11.6663C11.668 11.8874 11.7558 12.0993 11.912 12.2556C12.0683 12.4119 12.2803 12.4997 12.5013 12.4997V12.4997Z" fill="#8F9BB3"/>
</svg>
