<svg width="20" height="20" viewBox="0 0 20 20" fill="none" xmlns="http://www.w3.org/2000/svg">
<path d="M15.8307 7.50001C15.3149 7.50146 14.8122 7.66241 14.3915 7.96079C13.9708 8.25918 13.6527 8.68039 13.4807 9.16668H2.4974C2.27638 9.16668 2.06442 9.25448 1.90814 9.41076C1.75186 9.56704 1.66406 9.779 1.66406 10C1.66406 10.221 1.75186 10.433 1.90814 10.5893C2.06442 10.7455 2.27638 10.8333 2.4974 10.8333H13.4807C13.6336 11.2657 13.9025 11.6478 14.2579 11.9376C14.6134 12.2274 15.0417 12.4139 15.496 12.4765C15.9504 12.5392 16.4132 12.4757 16.8338 12.293C17.2545 12.1103 17.6168 11.8153 17.881 11.4405C18.1453 11.0657 18.3013 10.6254 18.3321 10.1678C18.3629 9.71017 18.2672 9.25292 18.0555 8.84607C17.8438 8.43922 17.5243 8.09844 17.1319 7.86103C16.7395 7.62362 16.2894 7.49872 15.8307 7.50001ZM15.8307 10.8333C15.6659 10.8333 15.5048 10.7845 15.3678 10.6929C15.2307 10.6013 15.1239 10.4712 15.0608 10.3189C14.9978 10.1666 14.9813 9.99909 15.0134 9.83744C15.0456 9.67579 15.1249 9.5273 15.2415 9.41076C15.358 9.29421 15.5065 9.21484 15.6682 9.18269C15.8298 9.15054 15.9974 9.16704 16.1496 9.23011C16.3019 9.29318 16.4321 9.39999 16.5236 9.53704C16.6152 9.67408 16.6641 9.83519 16.6641 10C16.6641 10.221 16.5763 10.433 16.42 10.5893C16.2637 10.7455 16.0517 10.8333 15.8307 10.8333Z" fill="#2E3A59"/>
<path d="M2.4974 5.83326H3.48073C3.6559 6.31589 3.97542 6.73288 4.39587 7.02756C4.81631 7.32224 5.3173 7.48033 5.83073 7.48033C6.34416 7.48033 6.84514 7.32224 7.26559 7.02756C7.68604 6.73288 8.00556 6.31589 8.18073 5.83326H17.4974C17.7184 5.83326 17.9304 5.74546 18.0867 5.58918C18.2429 5.4329 18.3307 5.22094 18.3307 4.99993C18.3307 4.77891 18.2429 4.56695 18.0867 4.41067C17.9304 4.25439 17.7184 4.1666 17.4974 4.1666H8.18073C8.00556 3.68397 7.68604 3.26698 7.26559 2.9723C6.84514 2.67761 6.34416 2.51953 5.83073 2.51953C5.3173 2.51953 4.81631 2.67761 4.39587 2.9723C3.97542 3.26698 3.6559 3.68397 3.48073 4.1666H2.4974C2.27638 4.1666 2.06442 4.25439 1.90814 4.41067C1.75186 4.56695 1.66406 4.77891 1.66406 4.99993C1.66406 5.22094 1.75186 5.4329 1.90814 5.58918C2.06442 5.74546 2.27638 5.83326 2.4974 5.83326ZM5.83073 4.1666C5.99555 4.1666 6.15666 4.21547 6.2937 4.30704C6.43075 4.3986 6.53756 4.52875 6.60063 4.68103C6.6637 4.8333 6.6802 5.00085 6.64805 5.1625C6.6159 5.32415 6.53653 5.47264 6.41998 5.58918C6.30344 5.70573 6.15495 5.7851 5.9933 5.81725C5.83165 5.8494 5.6641 5.8329 5.51183 5.76983C5.35955 5.70676 5.22941 5.59994 5.13784 5.4629C5.04627 5.32586 4.9974 5.16475 4.9974 4.99993C4.9974 4.77891 5.08519 4.56695 5.24147 4.41067C5.39775 4.25439 5.60972 4.1666 5.83073 4.1666Z" fill="#2E3A59"/>
<path d="M17.4974 14.1666H11.5141C11.3389 13.684 11.0194 13.267 10.5989 12.9723C10.1785 12.6776 9.6775 12.5195 9.16406 12.5195C8.65063 12.5195 8.14965 12.6776 7.7292 12.9723C7.30875 13.267 6.98923 13.684 6.81406 14.1666H2.4974C2.27638 14.1666 2.06442 14.2544 1.90814 14.4107C1.75186 14.567 1.66406 14.7789 1.66406 14.9999C1.66406 15.2209 1.75186 15.4329 1.90814 15.5892C2.06442 15.7455 2.27638 15.8333 2.4974 15.8333H6.81406C6.98923 16.3159 7.30875 16.7329 7.7292 17.0276C8.14965 17.3222 8.65063 17.4803 9.16406 17.4803C9.6775 17.4803 10.1785 17.3222 10.5989 17.0276C11.0194 16.7329 11.3389 16.3159 11.5141 15.8333H17.4974C17.7184 15.8333 17.9304 15.7455 18.0867 15.5892C18.2429 15.4329 18.3307 15.2209 18.3307 14.9999C18.3307 14.7789 18.2429 14.567 18.0867 14.4107C17.9304 14.2544 17.7184 14.1666 17.4974 14.1666ZM9.16406 15.8333C8.99924 15.8333 8.83813 15.7844 8.70109 15.6928C8.56405 15.6013 8.45724 15.4711 8.39416 15.3188C8.33109 15.1666 8.31459 14.999 8.34674 14.8374C8.3789 14.6757 8.45826 14.5272 8.57481 14.4107C8.69135 14.2941 8.83984 14.2148 9.00149 14.1826C9.16314 14.1505 9.33069 14.167 9.48297 14.23C9.63524 14.2931 9.76539 14.3999 9.85695 14.537C9.94852 14.674 9.9974 14.8351 9.9974 14.9999C9.9974 15.2209 9.9096 15.4329 9.75332 15.5892C9.59704 15.7455 9.38508 15.8333 9.16406 15.8333Z" fill="#2E3A59"/>
</svg>
