<svg width="20" height="20" viewBox="0 0 20 20" fill="none" xmlns="http://www.w3.org/2000/svg">
<path d="M7.17588 18.3337C6.76924 18.3313 6.37439 18.1967 6.05088 17.9503L4.32588 16.667C3.92781 16.3566 3.66368 15.9056 3.58774 15.4066C3.5118 14.9076 3.62982 14.3984 3.91755 13.9837C4.06979 13.7589 4.16654 13.5012 4.19986 13.2317C4.23318 12.9623 4.20211 12.6888 4.10922 12.4337L4.05922 12.3003C3.99453 12.0694 3.87631 11.857 3.71414 11.6804C3.55197 11.5037 3.35043 11.3678 3.12588 11.2837H2.99255C2.50578 11.12 2.10322 10.7709 1.87231 10.3122C1.64139 9.85345 1.60075 9.32216 1.75922 8.83366L2.44255 6.66699C2.50545 6.41596 2.62126 6.18127 2.78223 5.97862C2.94319 5.77598 3.1456 5.61007 3.37588 5.49199C3.59034 5.38149 3.82499 5.31566 4.06563 5.29847C4.30627 5.28128 4.5479 5.3131 4.77588 5.39199C5.02412 5.47554 5.289 5.49719 5.54751 5.45507C5.80602 5.41296 6.05034 5.30834 6.25922 5.15033L6.36755 5.06699C6.55663 4.91612 6.70944 4.72474 6.81473 4.50696C6.92001 4.28918 6.97508 4.05055 6.97588 3.80866V3.60866C6.97364 3.09877 7.17293 2.60864 7.53034 2.24498C7.88776 1.88132 8.37436 1.67358 8.88422 1.66699H11.0092C11.2573 1.66766 11.5028 1.71733 11.7316 1.81314C11.9604 1.90896 12.168 2.04904 12.3426 2.22533C12.7095 2.59848 12.9133 3.10201 12.9092 3.62533V3.85866C12.905 4.08845 12.9548 4.31602 13.0547 4.52302C13.1546 4.73001 13.3017 4.91064 13.4842 5.05033L13.5759 5.11699C13.7629 5.25724 13.9811 5.35019 14.2118 5.38792C14.4425 5.42565 14.6789 5.40703 14.9009 5.33366L15.1842 5.24199C15.4243 5.16242 15.6779 5.13201 15.93 5.15257C16.182 5.17314 16.4274 5.24426 16.6513 5.36169C16.8753 5.47913 17.0733 5.64047 17.2336 5.83609C17.3939 6.03172 17.5131 6.25762 17.5842 6.50033L18.2426 8.60033C18.3949 9.08565 18.3532 9.61112 18.1264 10.0664C17.8995 10.5217 17.5051 10.8714 17.0259 11.042L16.8592 11.1003C16.6141 11.1806 16.3924 11.3198 16.2137 11.5058C16.035 11.6918 15.9047 11.9189 15.8342 12.167C15.7679 12.3977 15.7522 12.6399 15.7881 12.8773C15.8241 13.1146 15.9109 13.3413 16.0426 13.542L16.2592 13.8587C16.5466 14.2757 16.6635 14.7868 16.586 15.2873C16.5085 15.7878 16.2425 16.2397 15.8426 16.5503L14.1676 17.842C13.9652 17.9968 13.7333 18.1084 13.4861 18.1702C13.239 18.232 12.9818 18.2425 12.7304 18.2011C12.4791 18.1597 12.2388 18.0673 12.0245 17.9296C11.8102 17.7919 11.6263 17.6118 11.4842 17.4003L11.3842 17.2587C11.2477 17.0535 11.0615 16.8864 10.8429 16.7727C10.6243 16.659 10.3805 16.6026 10.1342 16.6087C9.8992 16.6147 9.6689 16.676 9.4619 16.7874C9.2549 16.8989 9.077 17.0575 8.94255 17.2503L8.75088 17.5253C8.60875 17.7383 8.42452 17.9198 8.20954 18.0589C7.99456 18.1979 7.75339 18.2914 7.50088 18.3337C7.39281 18.3442 7.28396 18.3442 7.17588 18.3337ZM3.66755 9.68366C4.13813 9.85146 4.56274 10.1274 4.90722 10.4892C5.25169 10.8511 5.50642 11.2887 5.65088 11.767V11.867C5.83083 12.3642 5.88991 12.8971 5.82326 13.4216C5.75661 13.9461 5.56613 14.4473 5.26755 14.8837C5.21485 14.9419 5.18566 15.0176 5.18566 15.0962C5.18566 15.1747 5.21485 15.2504 5.26755 15.3087L7.05922 16.667C7.08259 16.6854 7.10963 16.6985 7.1385 16.7055C7.16738 16.7126 7.19743 16.7134 7.22663 16.7079C7.25584 16.7023 7.28352 16.6906 7.30783 16.6735C7.33214 16.6564 7.3525 16.6343 7.36755 16.6087L7.55922 16.3337C7.84829 15.916 8.23434 15.5746 8.68427 15.3388C9.13419 15.103 9.63459 14.9799 10.1426 14.9799C10.6505 14.9799 11.1509 15.103 11.6008 15.3388C12.0508 15.5746 12.4368 15.916 12.7259 16.3337L12.8259 16.4837C12.8617 16.5345 12.9152 16.5701 12.9759 16.5837C13.0037 16.5878 13.0321 16.5862 13.0593 16.579C13.0865 16.5719 13.112 16.5593 13.1342 16.542L14.8509 15.242C14.911 15.1943 14.9505 15.1254 14.9614 15.0494C14.9722 14.9735 14.9536 14.8963 14.9092 14.8337L14.6926 14.517C14.4102 14.1053 14.224 13.6355 14.1475 13.1422C14.0711 12.649 14.1064 12.1448 14.2509 11.667C14.3973 11.1648 14.6622 10.7051 15.0233 10.3266C15.3844 9.94814 15.8311 9.6619 16.3259 9.49199L16.4926 9.43366C16.562 9.40583 16.6176 9.35166 16.6473 9.28297C16.677 9.21427 16.6783 9.13663 16.6509 9.06699L16.0009 6.99199C15.9853 6.95569 15.9625 6.92293 15.9338 6.89571C15.9052 6.8685 15.8713 6.84738 15.8342 6.83366C15.8097 6.82121 15.7826 6.81473 15.7551 6.81473C15.7275 6.81473 15.7004 6.82121 15.6759 6.83366L15.3926 6.92533C14.9133 7.08351 14.4027 7.12293 13.9048 7.04019C13.4069 6.95745 12.9366 6.75503 12.5342 6.45033L12.5009 6.37533C12.1148 6.08293 11.8017 5.705 11.5863 5.27123C11.3708 4.83746 11.2589 4.35965 11.2592 3.87533V3.61699C11.2607 3.53667 11.2308 3.45893 11.1759 3.40033C11.1279 3.357 11.0655 3.33321 11.0009 3.33366H8.88422C8.85027 3.33578 8.81707 3.34458 8.78653 3.35956C8.756 3.37454 8.72872 3.39541 8.70626 3.42096C8.68381 3.44651 8.66662 3.47625 8.65569 3.50846C8.64475 3.54067 8.64029 3.57472 8.64255 3.60866V3.81699C8.6426 4.31452 8.52842 4.80543 8.30882 5.25187C8.08921 5.69831 7.77003 6.08837 7.37588 6.39199L7.26755 6.47533C6.84233 6.79908 6.34399 7.01327 5.81646 7.09901C5.28894 7.18475 4.74842 7.13941 4.24255 6.96699C4.2047 6.95429 4.16374 6.95429 4.12588 6.96699C4.07885 6.99556 4.04343 7.03984 4.02588 7.09199L3.33422 9.26699C3.31011 9.34107 3.31576 9.42162 3.34997 9.49161C3.38419 9.56159 3.44428 9.61552 3.51755 9.64199L3.66755 9.68366Z" fill="#8F9BB3"/>
<path d="M9.9987 12.9163C9.42184 12.9163 8.85793 12.7453 8.37829 12.4248C7.89864 12.1043 7.52481 11.6488 7.30405 11.1158C7.08329 10.5829 7.02554 9.99644 7.13808 9.43066C7.25062 8.86488 7.5284 8.34518 7.93631 7.93728C8.34421 7.52938 8.86391 7.25159 9.42969 7.13905C9.99546 7.02651 10.5819 7.08427 11.1149 7.30503C11.6478 7.52578 12.1033 7.89962 12.4238 8.37926C12.7443 8.85891 12.9154 9.42281 12.9154 9.99968C12.9154 10.7732 12.6081 11.5151 12.0611 12.0621C11.5141 12.6091 10.7722 12.9163 9.9987 12.9163V12.9163ZM9.9987 8.74968C9.75147 8.74968 9.5098 8.82299 9.30424 8.96034C9.09868 9.09769 8.93846 9.29291 8.84385 9.52132C8.74924 9.74973 8.72449 10.0011 8.77272 10.2435C8.82095 10.486 8.94 10.7087 9.11482 10.8836C9.28963 11.0584 9.51236 11.1774 9.75484 11.2257C9.99731 11.2739 10.2486 11.2491 10.4771 11.1545C10.7055 11.0599 10.9007 10.8997 11.038 10.6941C11.1754 10.4886 11.2487 10.2469 11.2487 9.99968C11.2487 9.66816 11.117 9.35021 10.8826 9.11579C10.6482 8.88137 10.3302 8.74968 9.9987 8.74968Z" fill="#8F9BB3"/>
</svg>
