<svg width="32" height="32" viewBox="0 0 32 32" fill="none" xmlns="http://www.w3.org/2000/svg">
<g filter="url(#filter0_d_5317_31152)">
<path fill-rule="evenodd" clip-rule="evenodd" d="M9.51534 15.9998L10.6953 14.8178C11.0733 14.4398 11.2813 13.9378 11.2813 13.4038V8.72683C11.2813 7.36983 11.8713 6.07283 12.9013 5.17083C13.9393 4.26083 15.2613 3.86083 16.6383 4.04183C18.9653 4.35083 20.7203 6.45483 20.7203 8.93683V13.4038C20.7203 13.9378 20.9283 14.4398 21.3053 14.8168L22.4863 15.9998H9.51534ZM18.0003 18.3408C18.0003 19.2398 17.0843 19.9998 16.0003 19.9998C14.9163 19.9998 14.0003 19.2398 14.0003 18.3408V17.9998H18.0003V18.3408ZM24.5213 15.2078L22.7203 13.4038V8.93683C22.7203 5.45583 20.2183 2.49883 16.9003 2.05983C14.9783 1.80383 13.0383 2.39083 11.5833 3.66683C10.1193 4.94883 9.28134 6.79283 9.28134 8.72683L9.28034 13.4038L7.47934 15.2078C7.01034 15.6778 6.87134 16.3768 7.12534 16.9898C7.38034 17.6038 7.97334 17.9998 8.63734 17.9998H12.0003V18.3408C12.0003 20.3588 13.7943 21.9998 16.0003 21.9998C18.2063 21.9998 20.0003 20.3588 20.0003 18.3408V17.9998H23.3633C24.0273 17.9998 24.6193 17.6038 24.8733 16.9908C25.1283 16.3768 24.9903 15.6768 24.5213 15.2078Z" fill="#8F9BB3"/>
<mask id="mask0_5317_31152" style="mask-type:alpha" maskUnits="userSpaceOnUse" x="7" y="2" width="18" height="20">
<path fill-rule="evenodd" clip-rule="evenodd" d="M9.51534 15.9998L10.6953 14.8178C11.0733 14.4398 11.2813 13.9378 11.2813 13.4038V8.72683C11.2813 7.36983 11.8713 6.07283 12.9013 5.17083C13.9393 4.26083 15.2613 3.86083 16.6383 4.04183C18.9653 4.35083 20.7203 6.45483 20.7203 8.93683V13.4038C20.7203 13.9378 20.9283 14.4398 21.3053 14.8168L22.4863 15.9998H9.51534ZM18.0003 18.3408C18.0003 19.2398 17.0843 19.9998 16.0003 19.9998C14.9163 19.9998 14.0003 19.2398 14.0003 18.3408V17.9998H18.0003V18.3408ZM24.5213 15.2078L22.7203 13.4038V8.93683C22.7203 5.45583 20.2183 2.49883 16.9003 2.05983C14.9783 1.80383 13.0383 2.39083 11.5833 3.66683C10.1193 4.94883 9.28134 6.79283 9.28134 8.72683L9.28034 13.4038L7.47934 15.2078C7.01034 15.6778 6.87134 16.3768 7.12534 16.9898C7.38034 17.6038 7.97334 17.9998 8.63734 17.9998H12.0003V18.3408C12.0003 20.3588 13.7943 21.9998 16.0003 21.9998C18.2063 21.9998 20.0003 20.3588 20.0003 18.3408V17.9998H23.3633C24.0273 17.9998 24.6193 17.6038 24.8733 16.9908C25.1283 16.3768 24.9903 15.6768 24.5213 15.2078Z" fill="white"/>
</mask>
<g mask="url(#mask0_5317_31152)">
</g>
<circle cx="21" cy="7" r="3" fill="#FF3D71"/>
</g>
<defs>
<filter id="filter0_d_5317_31152" x="0" y="0" width="32" height="32" filterUnits="userSpaceOnUse" color-interpolation-filters="sRGB">
<feFlood flood-opacity="0" result="BackgroundImageFix"/>
<feColorMatrix in="SourceAlpha" type="matrix" values="0 0 0 0 0 0 0 0 0 0 0 0 0 0 0 0 0 0 127 0" result="hardAlpha"/>
<feOffset dy="4"/>
<feGaussianBlur stdDeviation="2"/>
<feComposite in2="hardAlpha" operator="out"/>
<feColorMatrix type="matrix" values="0 0 0 0 0 0 0 0 0 0 0 0 0 0 0 0 0 0 0.25 0"/>
<feBlend mode="normal" in2="BackgroundImageFix" result="effect1_dropShadow_5317_31152"/>
<feBlend mode="normal" in="SourceGraphic" in2="effect1_dropShadow_5317_31152" result="shape"/>
</filter>
</defs>
</svg>
