<svg width="20" height="20" viewBox="0 0 20 20" fill="none" xmlns="http://www.w3.org/2000/svg">
<path d="M3.33333 10.8337C3.79357 10.8337 4.16667 10.4606 4.16667 10.0003C4.16667 9.54009 3.79357 9.16699 3.33333 9.16699C2.8731 9.16699 2.5 9.54009 2.5 10.0003C2.5 10.4606 2.8731 10.8337 3.33333 10.8337Z" fill="#8F9BB3"/>
<path d="M16.7154 9.16699H6.61536C6.18274 9.16699 5.83203 9.5177 5.83203 9.95033V10.0503C5.83203 10.4829 6.18274 10.8337 6.61536 10.8337H16.7154C17.148 10.8337 17.4987 10.4829 17.4987 10.0503V9.95033C17.4987 9.5177 17.148 9.16699 16.7154 9.16699Z" fill="#8F9BB3"/>
<path d="M16.7167 13.333H3.28333C2.85071 13.333 2.5 13.6837 2.5 14.1163V14.2163C2.5 14.649 2.85071 14.9997 3.28333 14.9997H16.7167C17.1493 14.9997 17.5 14.649 17.5 14.2163V14.1163C17.5 13.6837 17.1493 13.333 16.7167 13.333Z" fill="#8F9BB3"/>
<path d="M16.7167 5H3.28333C2.85071 5 2.5 5.35071 2.5 5.78333V5.88333C2.5 6.31596 2.85071 6.66667 3.28333 6.66667H16.7167C17.1493 6.66667 17.5 6.31596 17.5 5.88333V5.78333C17.5 5.35071 17.1493 5 16.7167 5Z" fill="#8F9BB3"/>
</svg>
