<svg width="20" height="20" viewBox="0 0 20 20" fill="none" xmlns="http://www.w3.org/2000/svg">
<path d="M4.16797 1.66699C3.67352 1.66699 3.19017 1.81361 2.77904 2.08832C2.36792 2.36302 2.04749 2.75347 1.85827 3.21028C1.66905 3.6671 1.61954 4.16977 1.71601 4.65472C1.81247 5.13967 2.05057 5.58513 2.4002 5.93476C2.74983 6.28439 3.19529 6.52249 3.68024 6.61896C4.1652 6.71542 4.66786 6.66591 5.12468 6.47669C5.58149 6.28747 5.97194 5.96704 6.24664 5.55592C6.52135 5.1448 6.66797 4.66145 6.66797 4.16699C6.66797 3.50395 6.40458 2.86807 5.93574 2.39923C5.4669 1.93038 4.83101 1.66699 4.16797 1.66699ZM4.16797 5.00033C4.00315 5.00033 3.84204 4.95145 3.70499 4.85988C3.56795 4.76832 3.46114 4.63817 3.39807 4.4859C3.335 4.33362 3.31849 4.16607 3.35065 4.00442C3.3828 3.84277 3.46217 3.69428 3.57871 3.57774C3.69526 3.46119 3.84374 3.38183 4.00539 3.34967C4.16705 3.31752 4.3346 3.33402 4.48687 3.39709C4.63914 3.46017 4.76929 3.56698 4.86086 3.70402C4.95243 3.84106 5.0013 4.00217 5.0013 4.16699C5.0013 4.38801 4.91351 4.59997 4.75723 4.75625C4.60095 4.91253 4.38898 5.00033 4.16797 5.00033Z" fill="#8F9BB3"/>
<path d="M10 1.66699C9.50555 1.66699 9.0222 1.81361 8.61108 2.08832C8.19995 2.36302 7.87952 2.75347 7.6903 3.21028C7.50108 3.6671 7.45157 4.16977 7.54804 4.65472C7.6445 5.13967 7.8826 5.58513 8.23223 5.93476C8.58187 6.28439 9.02732 6.52249 9.51228 6.61896C9.99723 6.71542 10.4999 6.66591 10.9567 6.47669C11.4135 6.28747 11.804 5.96704 12.0787 5.55592C12.3534 5.1448 12.5 4.66145 12.5 4.16699C12.5 3.50395 12.2366 2.86807 11.7678 2.39923C11.2989 1.93038 10.663 1.66699 10 1.66699ZM10 5.00033C9.83518 5.00033 9.67407 4.95145 9.53703 4.85988C9.39998 4.76832 9.29317 4.63817 9.2301 4.4859C9.16703 4.33362 9.15053 4.16607 9.18268 4.00442C9.21483 3.84277 9.2942 3.69428 9.41075 3.57774C9.52729 3.46119 9.67577 3.38183 9.83743 3.34967C9.99908 3.31752 10.1666 3.33402 10.3189 3.39709C10.4712 3.46017 10.6013 3.56698 10.6929 3.70402C10.7845 3.84106 10.8333 4.00217 10.8333 4.16699C10.8333 4.38801 10.7455 4.59997 10.5893 4.75625C10.433 4.91253 10.221 5.00033 10 5.00033Z" fill="#8F9BB3"/>
<path d="M15.832 6.66699C16.3265 6.66699 16.8098 6.52037 17.221 6.24567C17.6321 5.97096 17.9525 5.58052 18.1417 5.1237C18.3309 4.66689 18.3805 4.16422 18.284 3.67927C18.1875 3.19432 17.9494 2.74886 17.5998 2.39923C17.2502 2.0496 16.8047 1.81149 16.3198 1.71503C15.8348 1.61857 15.3321 1.66808 14.8753 1.85729C14.4185 2.04651 14.0281 2.36694 13.7534 2.77807C13.4787 3.18919 13.332 3.67254 13.332 4.16699C13.332 4.83003 13.5954 5.46592 14.0643 5.93476C14.5331 6.4036 15.169 6.66699 15.832 6.66699ZM15.832 3.33366C15.9968 3.33366 16.158 3.38253 16.295 3.4741C16.432 3.56567 16.5389 3.69582 16.6019 3.84809C16.665 4.00036 16.6815 4.16792 16.6494 4.32957C16.6172 4.49122 16.5378 4.63971 16.4213 4.75625C16.3047 4.87279 16.1563 4.95216 15.9946 4.98431C15.833 5.01647 15.6654 4.99997 15.5131 4.93689C15.3609 4.87382 15.2307 4.76701 15.1391 4.62997C15.0476 4.49293 14.9987 4.33181 14.9987 4.16699C14.9987 3.94598 15.0865 3.73402 15.2428 3.57774C15.3991 3.42146 15.611 3.33366 15.832 3.33366V3.33366Z" fill="#8F9BB3"/>
<path d="M4.16797 7.5C3.67352 7.5 3.19017 7.64662 2.77904 7.92133C2.36792 8.19603 2.04749 8.58648 1.85827 9.04329C1.66905 9.50011 1.61954 10.0028 1.71601 10.4877C1.81247 10.9727 2.05057 11.4181 2.4002 11.7678C2.74983 12.1174 3.19529 12.3555 3.68024 12.452C4.1652 12.5484 4.66786 12.4989 5.12468 12.3097C5.58149 12.1205 5.97194 11.8 6.24664 11.3889C6.52135 10.9778 6.66797 10.4945 6.66797 10C6.66797 9.33696 6.40458 8.70107 5.93574 8.23223C5.4669 7.76339 4.83101 7.5 4.16797 7.5ZM4.16797 10.8333C4.00315 10.8333 3.84204 10.7845 3.70499 10.6929C3.56795 10.6013 3.46114 10.4712 3.39807 10.3189C3.335 10.1666 3.31849 9.99907 3.35065 9.83742C3.3828 9.67577 3.46217 9.52729 3.57871 9.41074C3.69526 9.2942 3.84374 9.21483 4.00539 9.18268C4.16705 9.15052 4.3346 9.16703 4.48687 9.2301C4.63914 9.29317 4.76929 9.39998 4.86086 9.53702C4.95243 9.67406 5.0013 9.83518 5.0013 10C5.0013 10.221 4.91351 10.433 4.75723 10.5893C4.60095 10.7455 4.38898 10.8333 4.16797 10.8333Z" fill="#8F9BB3"/>
<path d="M10 7.5C9.50555 7.5 9.0222 7.64662 8.61108 7.92133C8.19995 8.19603 7.87952 8.58648 7.6903 9.04329C7.50108 9.50011 7.45157 10.0028 7.54804 10.4877C7.6445 10.9727 7.8826 11.4181 8.23223 11.7678C8.58187 12.1174 9.02732 12.3555 9.51228 12.452C9.99723 12.5484 10.4999 12.4989 10.9567 12.3097C11.4135 12.1205 11.804 11.8 12.0787 11.3889C12.3534 10.9778 12.5 10.4945 12.5 10C12.5 9.33696 12.2366 8.70107 11.7678 8.23223C11.2989 7.76339 10.663 7.5 10 7.5ZM10 10.8333C9.83518 10.8333 9.67407 10.7845 9.53703 10.6929C9.39998 10.6013 9.29317 10.4712 9.2301 10.3189C9.16703 10.1666 9.15053 9.99907 9.18268 9.83742C9.21483 9.67577 9.2942 9.52729 9.41075 9.41074C9.52729 9.2942 9.67577 9.21483 9.83743 9.18268C9.99908 9.15052 10.1666 9.16703 10.3189 9.2301C10.4712 9.29317 10.6013 9.39998 10.6929 9.53702C10.7845 9.67406 10.8333 9.83518 10.8333 10C10.8333 10.221 10.7455 10.433 10.5893 10.5893C10.433 10.7455 10.221 10.8333 10 10.8333Z" fill="#8F9BB3"/>
<path d="M15.832 7.5C15.3376 7.5 14.8542 7.64662 14.4431 7.92133C14.032 8.19603 13.7116 8.58648 13.5223 9.04329C13.3331 9.50011 13.2836 10.0028 13.3801 10.4877C13.4765 10.9727 13.7146 11.4181 14.0643 11.7678C14.4139 12.1174 14.8594 12.3555 15.3443 12.452C15.8293 12.5484 16.3319 12.4989 16.7887 12.3097C17.2456 12.1205 17.636 11.8 17.9107 11.3889C18.1854 10.9778 18.332 10.4945 18.332 10C18.332 9.33696 18.0686 8.70107 17.5998 8.23223C17.131 7.76339 16.4951 7.5 15.832 7.5ZM15.832 10.8333C15.6672 10.8333 15.5061 10.7845 15.3691 10.6929C15.232 10.6013 15.1252 10.4712 15.0621 10.3189C14.9991 10.1666 14.9826 9.99907 15.0147 9.83742C15.0469 9.67577 15.1262 9.52729 15.2428 9.41074C15.3593 9.2942 15.5078 9.21483 15.6695 9.18268C15.8311 9.15052 15.9987 9.16703 16.1509 9.2301C16.3032 9.29317 16.4334 9.39998 16.5249 9.53702C16.6165 9.67406 16.6654 9.83518 16.6654 10C16.6654 10.221 16.5776 10.433 16.4213 10.5893C16.265 10.7455 16.053 10.8333 15.832 10.8333Z" fill="#8F9BB3"/>
<path d="M4.16797 13.333C3.67352 13.333 3.19017 13.4796 2.77904 13.7543C2.36792 14.029 2.04749 14.4195 1.85827 14.8763C1.66905 15.3331 1.61954 15.8358 1.71601 16.3207C1.81247 16.8057 2.05057 17.2511 2.4002 17.6008C2.74983 17.9504 3.19529 18.1885 3.68024 18.285C4.1652 18.3814 4.66786 18.3319 5.12468 18.1427C5.58149 17.9535 5.97194 17.6331 6.24664 17.2219C6.52135 16.8108 6.66797 16.3275 6.66797 15.833C6.66797 15.17 6.40458 14.5341 5.93574 14.0652C5.4669 13.5964 4.83101 13.333 4.16797 13.333V13.333ZM4.16797 16.6663C4.00315 16.6663 3.84204 16.6175 3.70499 16.5259C3.56795 16.4343 3.46114 16.3042 3.39807 16.1519C3.335 15.9996 3.31849 15.8321 3.35065 15.6704C3.3828 15.5088 3.46217 15.3603 3.57871 15.2438C3.69526 15.1272 3.84374 15.0478 4.00539 15.0157C4.16705 14.9835 4.3346 15 4.48687 15.0631C4.63914 15.1262 4.76929 15.233 4.86086 15.37C4.95243 15.5071 5.0013 15.6682 5.0013 15.833C5.0013 16.054 4.91351 16.266 4.75723 16.4223C4.60095 16.5785 4.38898 16.6663 4.16797 16.6663Z" fill="#8F9BB3"/>
<path d="M10 13.333C9.50555 13.333 9.0222 13.4796 8.61108 13.7543C8.19995 14.029 7.87952 14.4195 7.6903 14.8763C7.50108 15.3331 7.45157 15.8358 7.54804 16.3207C7.6445 16.8057 7.8826 17.2511 8.23223 17.6008C8.58187 17.9504 9.02732 18.1885 9.51228 18.285C9.99723 18.3814 10.4999 18.3319 10.9567 18.1427C11.4135 17.9535 11.804 17.6331 12.0787 17.2219C12.3534 16.8108 12.5 16.3275 12.5 15.833C12.5 15.17 12.2366 14.5341 11.7678 14.0652C11.2989 13.5964 10.663 13.333 10 13.333V13.333ZM10 16.6663C9.83518 16.6663 9.67407 16.6175 9.53703 16.5259C9.39998 16.4343 9.29317 16.3042 9.2301 16.1519C9.16703 15.9996 9.15053 15.8321 9.18268 15.6704C9.21483 15.5088 9.2942 15.3603 9.41075 15.2438C9.52729 15.1272 9.67577 15.0478 9.83743 15.0157C9.99908 14.9835 10.1666 15 10.3189 15.0631C10.4712 15.1262 10.6013 15.233 10.6929 15.37C10.7845 15.5071 10.8333 15.6682 10.8333 15.833C10.8333 16.054 10.7455 16.266 10.5893 16.4223C10.433 16.5785 10.221 16.6663 10 16.6663Z" fill="#8F9BB3"/>
<path d="M15.832 13.333C15.3376 13.333 14.8542 13.4796 14.4431 13.7543C14.032 14.029 13.7116 14.4195 13.5223 14.8763C13.3331 15.3331 13.2836 15.8358 13.3801 16.3207C13.4765 16.8057 13.7146 17.2511 14.0643 17.6008C14.4139 17.9504 14.8594 18.1885 15.3443 18.285C15.8293 18.3814 16.3319 18.3319 16.7887 18.1427C17.2456 17.9535 17.636 17.6331 17.9107 17.2219C18.1854 16.8108 18.332 16.3275 18.332 15.833C18.332 15.17 18.0686 14.5341 17.5998 14.0652C17.131 13.5964 16.4951 13.333 15.832 13.333V13.333ZM15.832 16.6663C15.6672 16.6663 15.5061 16.6175 15.3691 16.5259C15.232 16.4343 15.1252 16.3042 15.0621 16.1519C14.9991 15.9996 14.9826 15.8321 15.0147 15.6704C15.0469 15.5088 15.1262 15.3603 15.2428 15.2438C15.3593 15.1272 15.5078 15.0478 15.6695 15.0157C15.8311 14.9835 15.9987 15 16.1509 15.0631C16.3032 15.1262 16.4334 15.233 16.5249 15.37C16.6165 15.5071 16.6654 15.6682 16.6654 15.833C16.6654 16.054 16.5776 16.266 16.4213 16.4223C16.265 16.5785 16.053 16.6663 15.832 16.6663Z" fill="#8F9BB3"/>
</svg>
