<svg width="304" height="648" viewBox="0 0 304 648" fill="none" xmlns="http://www.w3.org/2000/svg">
<g filter="url(#filter0_d_5317_31155)">
<path d="M4.5 0.5H299.5V636C299.5 637.933 297.933 639.5 296 639.5H8C6.067 639.5 4.5 637.933 4.5 636V0.5Z" fill="white" stroke="#EDF1F7"/>
<g clip-path="url(#clip0_5317_31155)">
<rect x="4" width="296" height="64" fill="white"/>
<rect x="4" width="296" height="1" fill="#EDF1F7"/>
<mask id="mask0_5317_31155" style="mask-type:alpha" maskUnits="userSpaceOnUse" x="4" y="0" width="296" height="1">
<rect x="4" width="296" height="1" fill="white"/>
</mask>
<g mask="url(#mask0_5317_31155)">
</g>
<path fill-rule="evenodd" clip-rule="evenodd" d="M37.4937 27.8025C37.4921 27.7425 37.4746 27.6858 37.4587 27.6283C37.4462 27.58 37.4404 27.5308 37.4196 27.4867C37.4004 27.4433 37.3679 27.4083 37.3396 27.3683C37.3046 27.3175 37.2729 27.2667 37.2279 27.225C37.2204 27.2175 37.2171 27.2075 37.2087 27.2008C37.1787 27.175 37.1421 27.1658 37.1096 27.145C37.0596 27.1125 37.0104 27.0792 36.9537 27.0575C36.8979 27.0375 36.8429 27.0325 36.7854 27.0242C36.7454 27.0183 36.7096 27 36.6671 27H32.5004C32.0396 27 31.6671 27.3733 31.6671 27.8333C31.6671 28.2933 32.0396 28.6667 32.5004 28.6667H34.8554L31.4921 32.59L27.9287 30.4525C27.5762 30.2392 27.1229 30.3175 26.8596 30.6333L22.6929 35.6333C22.3987 35.9867 22.4462 36.5125 22.7996 36.8067C22.9562 36.9367 23.1446 37 23.3329 37C23.5721 37 23.8087 36.8983 23.9737 36.7L27.6837 32.2483L31.2379 34.3817C31.5871 34.5908 32.0354 34.5175 32.2996 34.2092L35.8337 30.0858V32C35.8337 32.46 36.2062 32.8333 36.6671 32.8333C37.1279 32.8333 37.5004 32.46 37.5004 32V27.8333C37.5004 27.8225 37.4946 27.8133 37.4937 27.8025" fill="#8F9BB3"/>
<mask id="mask1_5317_31155" style="mask-type:alpha" maskUnits="userSpaceOnUse" x="22" y="27" width="16" height="10">
<path fill-rule="evenodd" clip-rule="evenodd" d="M37.4937 27.8025C37.4921 27.7425 37.4746 27.6858 37.4587 27.6283C37.4462 27.58 37.4404 27.5308 37.4196 27.4867C37.4004 27.4433 37.3679 27.4083 37.3396 27.3683C37.3046 27.3175 37.2729 27.2667 37.2279 27.225C37.2204 27.2175 37.2171 27.2075 37.2087 27.2008C37.1787 27.175 37.1421 27.1658 37.1096 27.145C37.0596 27.1125 37.0104 27.0792 36.9537 27.0575C36.8979 27.0375 36.8429 27.0325 36.7854 27.0242C36.7454 27.0183 36.7096 27 36.6671 27H32.5004C32.0396 27 31.6671 27.3733 31.6671 27.8333C31.6671 28.2933 32.0396 28.6667 32.5004 28.6667H34.8554L31.4921 32.59L27.9287 30.4525C27.5762 30.2392 27.1229 30.3175 26.8596 30.6333L22.6929 35.6333C22.3987 35.9867 22.4462 36.5125 22.7996 36.8067C22.9562 36.9367 23.1446 37 23.3329 37C23.5721 37 23.8087 36.8983 23.9737 36.7L27.6837 32.2483L31.2379 34.3817C31.5871 34.5908 32.0354 34.5175 32.2996 34.2092L35.8337 30.0858V32C35.8337 32.46 36.2062 32.8333 36.6671 32.8333C37.1279 32.8333 37.5004 32.46 37.5004 32V27.8333C37.5004 27.8225 37.4946 27.8133 37.4937 27.8025" fill="white"/>
</mask>
<g mask="url(#mask1_5317_31155)">
</g>
<path d="M57.0117 37V27.0469H59.9512C60.8307 27.0469 61.61 27.2428 62.2891 27.6348C62.9727 28.0267 63.5013 28.5827 63.875 29.3027C64.2487 30.0228 64.4355 30.8477 64.4355 31.7773V32.2764C64.4355 33.2197 64.2464 34.0492 63.8682 34.7646C63.4945 35.4801 62.959 36.0316 62.2617 36.4189C61.569 36.8063 60.7738 37 59.876 37H57.0117ZM58.7412 28.4414V35.6191H59.8691C60.776 35.6191 61.471 35.3366 61.9541 34.7715C62.4417 34.2018 62.6901 33.3861 62.6992 32.3242V31.7705C62.6992 30.6904 62.4645 29.8656 61.9951 29.2959C61.5257 28.7262 60.8444 28.4414 59.9512 28.4414H58.7412ZM70.667 37C70.5941 36.8587 70.5303 36.6286 70.4756 36.3096C69.9469 36.861 69.2998 37.1367 68.5342 37.1367C67.7913 37.1367 67.1852 36.9248 66.7158 36.501C66.2464 36.0771 66.0117 35.5531 66.0117 34.9287C66.0117 34.1403 66.3034 33.5365 66.8867 33.1172C67.4746 32.6934 68.3132 32.4814 69.4023 32.4814H70.4209V31.9961C70.4209 31.6133 70.3138 31.3079 70.0996 31.0801C69.8854 30.8477 69.5596 30.7314 69.1221 30.7314C68.7438 30.7314 68.4339 30.8271 68.1924 31.0186C67.9508 31.2054 67.8301 31.4447 67.8301 31.7363H66.1689C66.1689 31.3307 66.3034 30.9525 66.5723 30.6016C66.8411 30.2461 67.2057 29.9681 67.666 29.7676C68.1309 29.5671 68.6481 29.4668 69.2178 29.4668C70.0837 29.4668 70.7741 29.6855 71.2891 30.123C71.804 30.556 72.0684 31.1667 72.082 31.9551V35.291C72.082 35.9564 72.1755 36.4873 72.3623 36.8838V37H70.667ZM68.8418 35.8037C69.1699 35.8037 69.4775 35.724 69.7646 35.5645C70.0563 35.4049 70.2751 35.1908 70.4209 34.9219V33.5273H69.5254C68.9102 33.5273 68.4476 33.6344 68.1377 33.8486C67.8278 34.0628 67.6729 34.3659 67.6729 34.7578C67.6729 35.0768 67.7777 35.332 67.9873 35.5234C68.2015 35.7103 68.4863 35.8037 68.8418 35.8037ZM78.2178 34.9902C78.2178 34.694 78.0947 34.4684 77.8486 34.3135C77.6071 34.1585 77.2038 34.0218 76.6387 33.9033C76.0736 33.7848 75.6019 33.6344 75.2236 33.4521C74.3942 33.0511 73.9795 32.4701 73.9795 31.709C73.9795 31.071 74.2484 30.5378 74.7861 30.1094C75.3239 29.681 76.0075 29.4668 76.8369 29.4668C77.721 29.4668 78.4342 29.6855 78.9766 30.123C79.5234 30.5605 79.7969 31.1279 79.7969 31.8252H78.1357C78.1357 31.5062 78.0173 31.2419 77.7803 31.0322C77.5433 30.818 77.2288 30.7109 76.8369 30.7109C76.4723 30.7109 76.1738 30.7952 75.9414 30.9639C75.7135 31.1325 75.5996 31.3581 75.5996 31.6406C75.5996 31.8958 75.7067 32.0941 75.9209 32.2354C76.1351 32.3766 76.568 32.5202 77.2197 32.666C77.8714 32.8073 78.3818 32.9782 78.751 33.1787C79.1247 33.3747 79.4004 33.6117 79.5781 33.8896C79.7604 34.1676 79.8516 34.5049 79.8516 34.9014C79.8516 35.5667 79.5758 36.1068 79.0244 36.5215C78.473 36.9316 77.7507 37.1367 76.8574 37.1367C76.2513 37.1367 75.7113 37.0273 75.2373 36.8086C74.7633 36.5898 74.3942 36.2891 74.1299 35.9062C73.8656 35.5234 73.7334 35.111 73.7334 34.6689H75.3467C75.3695 35.0609 75.5176 35.3639 75.791 35.5781C76.0645 35.7878 76.4268 35.8926 76.8779 35.8926C77.3154 35.8926 77.6481 35.8105 77.876 35.6465C78.1038 35.4779 78.2178 35.2591 78.2178 34.9902ZM83.1914 30.4102C83.7337 29.7812 84.4196 29.4668 85.249 29.4668C86.8258 29.4668 87.6257 30.3669 87.6484 32.167V37H85.9873V32.2285C85.9873 31.7181 85.8757 31.3581 85.6523 31.1484C85.4336 30.9342 85.11 30.8271 84.6816 30.8271C84.0163 30.8271 83.5195 31.1234 83.1914 31.7158V37H81.5303V26.5H83.1914V30.4102ZM96.0742 33.377C96.0742 34.5254 95.8167 35.4391 95.3018 36.1182C94.7913 36.7972 94.0872 37.1367 93.1895 37.1367C92.3236 37.1367 91.6491 36.8245 91.166 36.2002L91.084 37H89.5801V26.5H91.2412V30.3145C91.7197 29.7493 92.3646 29.4668 93.1758 29.4668C94.0781 29.4668 94.7868 29.8018 95.3018 30.4717C95.8167 31.1416 96.0742 32.0781 96.0742 33.2812V33.377ZM94.4131 33.2334C94.4131 32.4313 94.2718 31.8298 93.9893 31.4287C93.7067 31.0277 93.2965 30.8271 92.7588 30.8271C92.0387 30.8271 91.5329 31.1416 91.2412 31.7705V34.8193C91.5374 35.4619 92.0479 35.7832 92.7725 35.7832C93.292 35.7832 93.693 35.5895 93.9756 35.2021C94.2581 34.8148 94.404 34.2292 94.4131 33.4453V33.2334ZM97.4111 33.2334C97.4111 32.5088 97.5547 31.8571 97.8418 31.2783C98.1289 30.695 98.5322 30.2484 99.0518 29.9385C99.5713 29.624 100.168 29.4668 100.843 29.4668C101.841 29.4668 102.65 29.7881 103.27 30.4307C103.894 31.0732 104.231 31.9255 104.281 32.9873L104.288 33.377C104.288 34.1061 104.147 34.7578 103.864 35.332C103.586 35.9062 103.185 36.3506 102.661 36.665C102.142 36.9795 101.54 37.1367 100.856 37.1367C99.8128 37.1367 98.9766 36.7904 98.3477 36.0977C97.7233 35.4004 97.4111 34.473 97.4111 33.3154V33.2334ZM99.0723 33.377C99.0723 34.138 99.2295 34.735 99.5439 35.168C99.8584 35.5964 100.296 35.8105 100.856 35.8105C101.417 35.8105 101.852 35.5918 102.162 35.1543C102.477 34.7168 102.634 34.0765 102.634 33.2334C102.634 32.486 102.472 31.8936 102.148 31.4561C101.829 31.0186 101.394 30.7998 100.843 30.7998C100.3 30.7998 99.8698 31.0163 99.5508 31.4492C99.2318 31.8776 99.0723 32.5202 99.0723 33.377ZM110.362 37C110.289 36.8587 110.226 36.6286 110.171 36.3096C109.642 36.861 108.995 37.1367 108.229 37.1367C107.487 37.1367 106.881 36.9248 106.411 36.501C105.942 36.0771 105.707 35.5531 105.707 34.9287C105.707 34.1403 105.999 33.5365 106.582 33.1172C107.17 32.6934 108.008 32.4814 109.098 32.4814H110.116V31.9961C110.116 31.6133 110.009 31.3079 109.795 31.0801C109.581 30.8477 109.255 30.7314 108.817 30.7314C108.439 30.7314 108.129 30.8271 107.888 31.0186C107.646 31.2054 107.525 31.4447 107.525 31.7363H105.864C105.864 31.3307 105.999 30.9525 106.268 30.6016C106.536 30.2461 106.901 29.9681 107.361 29.7676C107.826 29.5671 108.343 29.4668 108.913 29.4668C109.779 29.4668 110.469 29.6855 110.984 30.123C111.499 30.556 111.764 31.1667 111.777 31.9551V35.291C111.777 35.9564 111.871 36.4873 112.058 36.8838V37H110.362ZM108.537 35.8037C108.865 35.8037 109.173 35.724 109.46 35.5645C109.752 35.4049 109.97 35.1908 110.116 34.9219V33.5273H109.221C108.605 33.5273 108.143 33.6344 107.833 33.8486C107.523 34.0628 107.368 34.3659 107.368 34.7578C107.368 35.0768 107.473 35.332 107.683 35.5234C107.897 35.7103 108.182 35.8037 108.537 35.8037ZM117.64 31.1211C117.421 31.0846 117.195 31.0664 116.963 31.0664C116.202 31.0664 115.689 31.3581 115.425 31.9414V37H113.764V29.6035H115.35L115.391 30.4307C115.792 29.7881 116.348 29.4668 117.059 29.4668C117.296 29.4668 117.492 29.4987 117.646 29.5625L117.64 31.1211ZM118.491 33.2471C118.491 32.1077 118.756 31.194 119.284 30.5059C119.813 29.8132 120.521 29.4668 121.41 29.4668C122.194 29.4668 122.827 29.7402 123.311 30.2871V26.5H124.972V37H123.468L123.386 36.2344C122.889 36.8359 122.226 37.1367 121.396 37.1367C120.531 37.1367 119.829 36.7881 119.291 36.0908C118.758 35.3936 118.491 34.4456 118.491 33.2471ZM120.152 33.3906C120.152 34.1426 120.296 34.7305 120.583 35.1543C120.875 35.5736 121.287 35.7832 121.82 35.7832C122.499 35.7832 122.996 35.4801 123.311 34.874V31.7158C123.005 31.1234 122.513 30.8271 121.834 30.8271C121.296 30.8271 120.882 31.0413 120.59 31.4697C120.298 31.8936 120.152 32.5339 120.152 33.3906Z" fill="#222B45"/>
<rect x="4" y="63" width="296" height="1" fill="#EDF1F7"/>
<mask id="mask2_5317_31155" style="mask-type:alpha" maskUnits="userSpaceOnUse" x="4" y="63" width="296" height="1">
<rect x="4" y="63" width="296" height="1" fill="white"/>
</mask>
<g mask="url(#mask2_5317_31155)">
</g>
</g>
<g clip-path="url(#clip1_5317_31155)">
<rect x="4" y="64" width="296" height="64" fill="white"/>
<path d="M58.7754 91.0469V99.6191H61.8105V91.0469H63.5332V99.6191H66.5479V91.0469H68.2705V101H57.0391V91.0469H58.7754ZM74.8369 101C74.764 100.859 74.7002 100.629 74.6455 100.31C74.1169 100.861 73.4697 101.137 72.7041 101.137C71.9613 101.137 71.3551 100.925 70.8857 100.501C70.4163 100.077 70.1816 99.5531 70.1816 98.9287C70.1816 98.1403 70.4733 97.5365 71.0566 97.1172C71.6445 96.6934 72.4831 96.4814 73.5723 96.4814H74.5908V95.9961C74.5908 95.6133 74.4837 95.3079 74.2695 95.0801C74.0553 94.8477 73.7295 94.7314 73.292 94.7314C72.9137 94.7314 72.6038 94.8271 72.3623 95.0186C72.1208 95.2054 72 95.4447 72 95.7363H70.3389C70.3389 95.3307 70.4733 94.9525 70.7422 94.6016C71.0111 94.2461 71.3757 93.9681 71.8359 93.7676C72.3008 93.5671 72.818 93.4668 73.3877 93.4668C74.2536 93.4668 74.944 93.6855 75.459 94.123C75.974 94.556 76.2383 95.1667 76.252 95.9551V99.291C76.252 99.9564 76.3454 100.487 76.5322 100.884V101H74.8369ZM73.0117 99.8037C73.3398 99.8037 73.6475 99.724 73.9346 99.5645C74.2262 99.4049 74.445 99.1908 74.5908 98.9219V97.5273H73.6953C73.0801 97.5273 72.6175 97.6344 72.3076 97.8486C71.9977 98.0628 71.8428 98.3659 71.8428 98.7578C71.8428 99.0768 71.9476 99.332 72.1572 99.5234C72.3714 99.7103 72.6562 99.8037 73.0117 99.8037ZM80.8975 96.0371L82.3057 93.6035H84.1514L81.8887 97.2471L84.2266 101H82.3945L80.918 98.4707L79.4482 101H77.6025L79.9404 97.2471L77.6846 93.6035H79.5166L80.8975 96.0371ZM89.9248 98.9561L92.1123 93.6035H94.1904V101H92.5293V96.1055L90.4922 101H89.3643L87.3203 96.0781V101H85.6592V93.6035H87.751L89.9248 98.9561ZM100.729 101C100.657 100.859 100.593 100.629 100.538 100.31C100.009 100.861 99.3623 101.137 98.5967 101.137C97.8538 101.137 97.2477 100.925 96.7783 100.501C96.3089 100.077 96.0742 99.5531 96.0742 98.9287C96.0742 98.1403 96.3659 97.5365 96.9492 97.1172C97.5371 96.6934 98.3757 96.4814 99.4648 96.4814H100.483V95.9961C100.483 95.6133 100.376 95.3079 100.162 95.0801C99.9479 94.8477 99.6221 94.7314 99.1846 94.7314C98.8063 94.7314 98.4964 94.8271 98.2549 95.0186C98.0133 95.2054 97.8926 95.4447 97.8926 95.7363H96.2314C96.2314 95.3307 96.3659 94.9525 96.6348 94.6016C96.9036 94.2461 97.2682 93.9681 97.7285 93.7676C98.1934 93.5671 98.7106 93.4668 99.2803 93.4668C100.146 93.4668 100.837 93.6855 101.352 94.123C101.867 94.556 102.131 95.1667 102.145 95.9551V99.291C102.145 99.9564 102.238 100.487 102.425 100.884V101H100.729ZM98.9043 99.8037C99.2324 99.8037 99.54 99.724 99.8271 99.5645C100.119 99.4049 100.338 99.1908 100.483 98.9219V97.5273H99.5879C98.9727 97.5273 98.5101 97.6344 98.2002 97.8486C97.8903 98.0628 97.7354 98.3659 97.7354 98.7578C97.7354 99.0768 97.8402 99.332 98.0498 99.5234C98.264 99.7103 98.5488 99.8037 98.9043 99.8037ZM109.846 94.9229H107.446V101H105.785V94.9229H103.413V93.6035H109.846V94.9229ZM113.835 98.0742H112.994V101H111.333V93.6035H112.994V96.5566H113.726L115.77 93.6035H117.82L115.147 97.1445L118.046 101H115.886L113.835 98.0742ZM123.628 101C123.555 100.859 123.491 100.629 123.437 100.31C122.908 100.861 122.261 101.137 121.495 101.137C120.752 101.137 120.146 100.925 119.677 100.501C119.207 100.077 118.973 99.5531 118.973 98.9287C118.973 98.1403 119.264 97.5365 119.848 97.1172C120.436 96.6934 121.274 96.4814 122.363 96.4814H123.382V95.9961C123.382 95.6133 123.275 95.3079 123.061 95.0801C122.846 94.8477 122.521 94.7314 122.083 94.7314C121.705 94.7314 121.395 94.8271 121.153 95.0186C120.912 95.2054 120.791 95.4447 120.791 95.7363H119.13C119.13 95.3307 119.264 94.9525 119.533 94.6016C119.802 94.2461 120.167 93.9681 120.627 93.7676C121.092 93.5671 121.609 93.4668 122.179 93.4668C123.045 93.4668 123.735 93.6855 124.25 94.123C124.765 94.556 125.029 95.1667 125.043 95.9551V99.291C125.043 99.9564 125.136 100.487 125.323 100.884V101H123.628ZM121.803 99.8037C122.131 99.8037 122.438 99.724 122.726 99.5645C123.017 99.4049 123.236 99.1908 123.382 98.9219V97.5273H122.486C121.871 97.5273 121.409 97.6344 121.099 97.8486C120.789 98.0628 120.634 98.3659 120.634 98.7578C120.634 99.0768 120.739 99.332 120.948 99.5234C121.162 99.7103 121.447 99.8037 121.803 99.8037Z" fill="#222B45"/>
<path fill-rule="evenodd" clip-rule="evenodd" d="M32.5 101.833V98.5H35.8333L35.8342 101.833H32.5ZM35.8333 96.8333H32.5C31.5808 96.8333 30.8333 97.5808 30.8333 98.5V101.833C30.8333 102.753 31.5808 103.5 32.5 103.5H35.8333C36.7525 103.5 37.5 102.753 37.5 101.833V98.5C37.5 97.5808 36.7525 96.8333 35.8333 96.8333ZM24.1667 101.833V98.5H27.5L27.5008 101.833H24.1667ZM27.5 96.8333H24.1667C23.2475 96.8333 22.5 97.5808 22.5 98.5V101.833C22.5 102.753 23.2475 103.5 24.1667 103.5H27.5C28.4192 103.5 29.1667 102.753 29.1667 101.833V98.5C29.1667 97.5808 28.4192 96.8333 27.5 96.8333ZM32.5 93.5V90.1667H35.8333L35.8342 93.5H32.5ZM35.8333 88.5H32.5C31.5808 88.5 30.8333 89.2475 30.8333 90.1667V93.5C30.8333 94.4192 31.5808 95.1667 32.5 95.1667H35.8333C36.7525 95.1667 37.5 94.4192 37.5 93.5V90.1667C37.5 89.2475 36.7525 88.5 35.8333 88.5ZM24.1667 93.5V90.1667H27.5L27.5008 93.5H24.1667ZM27.5 88.5H24.1667C23.2475 88.5 22.5 89.2475 22.5 90.1667V93.5C22.5 94.4192 23.2475 95.1667 24.1667 95.1667H27.5C28.4192 95.1667 29.1667 94.4192 29.1667 93.5V90.1667C29.1667 89.2475 28.4192 88.5 27.5 88.5Z" fill="#8F9BB3"/>
<mask id="mask3_5317_31155" style="mask-type:alpha" maskUnits="userSpaceOnUse" x="22" y="88" width="16" height="16">
<path fill-rule="evenodd" clip-rule="evenodd" d="M32.5 101.833V98.5H35.8333L35.8342 101.833H32.5ZM35.8333 96.8333H32.5C31.5808 96.8333 30.8333 97.5808 30.8333 98.5V101.833C30.8333 102.753 31.5808 103.5 32.5 103.5H35.8333C36.7525 103.5 37.5 102.753 37.5 101.833V98.5C37.5 97.5808 36.7525 96.8333 35.8333 96.8333ZM24.1667 101.833V98.5H27.5L27.5008 101.833H24.1667ZM27.5 96.8333H24.1667C23.2475 96.8333 22.5 97.5808 22.5 98.5V101.833C22.5 102.753 23.2475 103.5 24.1667 103.5H27.5C28.4192 103.5 29.1667 102.753 29.1667 101.833V98.5C29.1667 97.5808 28.4192 96.8333 27.5 96.8333ZM32.5 93.5V90.1667H35.8333L35.8342 93.5H32.5ZM35.8333 88.5H32.5C31.5808 88.5 30.8333 89.2475 30.8333 90.1667V93.5C30.8333 94.4192 31.5808 95.1667 32.5 95.1667H35.8333C36.7525 95.1667 37.5 94.4192 37.5 93.5V90.1667C37.5 89.2475 36.7525 88.5 35.8333 88.5ZM24.1667 93.5V90.1667H27.5L27.5008 93.5H24.1667ZM27.5 88.5H24.1667C23.2475 88.5 22.5 89.2475 22.5 90.1667V93.5C22.5 94.4192 23.2475 95.1667 24.1667 95.1667H27.5C28.4192 95.1667 29.1667 94.4192 29.1667 93.5V90.1667C29.1667 89.2475 28.4192 88.5 27.5 88.5Z" fill="white"/>
</mask>
<g mask="url(#mask3_5317_31155)">
</g>
<rect x="4" y="127" width="296" height="1" fill="#EDF1F7"/>
<mask id="mask4_5317_31155" style="mask-type:alpha" maskUnits="userSpaceOnUse" x="4" y="127" width="296" height="1">
<rect x="4" y="127" width="296" height="1" fill="white"/>
</mask>
<g mask="url(#mask4_5317_31155)">
</g>
</g>
<g clip-path="url(#clip2_5317_31155)">
<path d="M64.6064 161.76C64.5062 162.822 64.1143 163.651 63.4307 164.248C62.7471 164.84 61.8379 165.137 60.7031 165.137C59.9102 165.137 59.2106 164.95 58.6045 164.576C58.0029 164.198 57.5381 163.662 57.21 162.97C56.8818 162.277 56.7109 161.473 56.6973 160.557V159.627C56.6973 158.688 56.8636 157.861 57.1963 157.146C57.529 156.43 58.0052 155.879 58.625 155.491C59.2493 155.104 59.9694 154.91 60.7852 154.91C61.8835 154.91 62.7676 155.209 63.4375 155.806C64.1074 156.403 64.4971 157.246 64.6064 158.335H62.8838C62.8018 157.619 62.5921 157.104 62.2549 156.79C61.9222 156.471 61.4323 156.312 60.7852 156.312C60.0332 156.312 59.4544 156.587 59.0488 157.139C58.6478 157.686 58.4427 158.49 58.4336 159.552V160.434C58.4336 161.509 58.625 162.329 59.0078 162.895C59.3952 163.46 59.9603 163.742 60.7031 163.742C61.3822 163.742 61.8926 163.59 62.2344 163.284C62.5762 162.979 62.7926 162.471 62.8838 161.76H64.6064ZM72.5332 157.604V165H70.8721V158.943H68.7803L68.6436 161.521C68.557 162.76 68.3177 163.651 67.9258 164.193C67.5384 164.731 66.9437 165 66.1416 165H65.6289L65.6221 163.619L65.9639 163.585C66.3285 163.535 66.5928 163.314 66.7568 162.922C66.9255 162.525 67.0326 161.805 67.0781 160.762L67.2148 157.604H72.5332ZM77.1377 162.621L78.6416 157.604H80.4121L77.4727 166.121C77.0215 167.365 76.2559 167.987 75.1758 167.987C74.9342 167.987 74.6676 167.946 74.376 167.864V166.579L74.6904 166.6C75.1097 166.6 75.4242 166.522 75.6338 166.367C75.848 166.217 76.0166 165.962 76.1396 165.602L76.3789 164.966L73.7812 157.604H75.5723L77.1377 162.621ZM88.1338 162.026H87.252V165H85.5908V162.026H84.7158L83.0137 165H80.9766L83.4307 161.151L81.1064 157.604H83.1367L84.8115 160.509H85.5908V157.604H87.252V160.509H88.0381L89.7197 157.604H91.75L89.4326 161.131L91.9004 165H89.8359L88.1338 162.026ZM96.6621 158.014C97.5918 158.014 98.3369 158.326 98.8975 158.95C99.458 159.57 99.7383 160.413 99.7383 161.479V161.562C99.7383 162.628 99.4329 163.492 98.8223 164.152C98.2161 164.813 97.3913 165.144 96.3477 165.144C95.3314 165.144 94.5111 164.806 93.8867 164.132C93.2624 163.457 92.9502 162.537 92.9502 161.37V160.892C92.9502 159.297 93.2327 158.034 93.7979 157.104C94.363 156.175 95.2061 155.594 96.3271 155.361C96.9561 155.234 97.3617 155.099 97.5439 154.958C97.7308 154.812 97.8242 154.616 97.8242 154.37H99.1641C99.1641 154.83 99.0889 155.204 98.9385 155.491C98.7881 155.778 98.5579 156.013 98.248 156.195C97.9382 156.373 97.4049 156.542 96.6484 156.701C95.9557 156.847 95.4271 157.107 95.0625 157.48C94.7025 157.854 94.4609 158.371 94.3379 159.032C94.9987 158.353 95.7734 158.014 96.6621 158.014ZM96.334 159.347C95.7962 159.347 95.3747 159.529 95.0693 159.894C94.764 160.254 94.6113 160.81 94.6113 161.562C94.6113 162.272 94.7617 162.826 95.0625 163.223C95.3633 163.619 95.7917 163.817 96.3477 163.817C96.8991 163.817 97.3252 163.619 97.626 163.223C97.9313 162.822 98.084 162.22 98.084 161.418C98.084 160.78 97.9313 160.276 97.626 159.907C97.3252 159.534 96.8945 159.347 96.334 159.347ZM105.71 165C105.637 164.859 105.573 164.629 105.519 164.31C104.99 164.861 104.343 165.137 103.577 165.137C102.834 165.137 102.228 164.925 101.759 164.501C101.289 164.077 101.055 163.553 101.055 162.929C101.055 162.14 101.346 161.536 101.93 161.117C102.518 160.693 103.356 160.481 104.445 160.481H105.464V159.996C105.464 159.613 105.357 159.308 105.143 159.08C104.928 158.848 104.603 158.731 104.165 158.731C103.787 158.731 103.477 158.827 103.235 159.019C102.994 159.205 102.873 159.445 102.873 159.736H101.212C101.212 159.331 101.346 158.952 101.615 158.602C101.884 158.246 102.249 157.968 102.709 157.768C103.174 157.567 103.691 157.467 104.261 157.467C105.127 157.467 105.817 157.686 106.332 158.123C106.847 158.556 107.111 159.167 107.125 159.955V163.291C107.125 163.956 107.218 164.487 107.405 164.884V165H105.71ZM103.885 163.804C104.213 163.804 104.521 163.724 104.808 163.564C105.099 163.405 105.318 163.191 105.464 162.922V161.527H104.568C103.953 161.527 103.491 161.634 103.181 161.849C102.871 162.063 102.716 162.366 102.716 162.758C102.716 163.077 102.821 163.332 103.03 163.523C103.244 163.71 103.529 163.804 103.885 163.804ZM119.123 165H117.462V158.943H114.577V165H112.916V157.604H119.123V165ZM127.617 161.377C127.617 162.521 127.357 163.435 126.838 164.118C126.318 164.797 125.621 165.137 124.746 165.137C123.935 165.137 123.285 164.87 122.798 164.337V167.844H121.137V157.604H122.668L122.736 158.355C123.224 157.763 123.887 157.467 124.726 157.467C125.628 157.467 126.334 157.804 126.845 158.479C127.36 159.148 127.617 160.08 127.617 161.274V161.377ZM125.963 161.233C125.963 160.495 125.815 159.91 125.519 159.477C125.227 159.044 124.808 158.827 124.261 158.827C123.582 158.827 123.094 159.107 122.798 159.668V162.949C123.099 163.523 123.591 163.811 124.274 163.811C124.803 163.811 125.215 163.599 125.512 163.175C125.812 162.746 125.963 162.099 125.963 161.233ZM133.896 157.604H135.551V165H133.896V160.064L130.998 165H129.344V157.604H130.998V162.539L133.896 157.604ZM140.825 165.137C139.772 165.137 138.918 164.806 138.262 164.146C137.61 163.48 137.284 162.596 137.284 161.493V161.288C137.284 160.55 137.425 159.891 137.708 159.312C137.995 158.729 138.396 158.276 138.911 157.952C139.426 157.629 140 157.467 140.634 157.467C141.641 157.467 142.418 157.788 142.965 158.431C143.516 159.073 143.792 159.982 143.792 161.158V161.828H138.959C139.009 162.439 139.212 162.922 139.567 163.277C139.927 163.633 140.379 163.811 140.921 163.811C141.682 163.811 142.302 163.503 142.78 162.888L143.676 163.742C143.38 164.184 142.983 164.528 142.486 164.774C141.994 165.016 141.44 165.137 140.825 165.137ZM140.627 158.8C140.171 158.8 139.802 158.959 139.52 159.278C139.242 159.597 139.064 160.042 138.986 160.611H142.151V160.488C142.115 159.932 141.967 159.513 141.707 159.23C141.447 158.943 141.087 158.8 140.627 158.8ZM138.091 155.662C138.091 155.434 138.166 155.243 138.316 155.088C138.471 154.933 138.683 154.855 138.952 154.855C139.221 154.855 139.433 154.933 139.588 155.088C139.743 155.243 139.82 155.434 139.82 155.662C139.82 155.89 139.743 156.081 139.588 156.236C139.433 156.391 139.221 156.469 138.952 156.469C138.683 156.469 138.471 156.391 138.316 156.236C138.166 156.081 138.091 155.89 138.091 155.662ZM141.215 155.669C141.215 155.441 141.29 155.25 141.44 155.095C141.595 154.94 141.807 154.862 142.076 154.862C142.345 154.862 142.557 154.94 142.712 155.095C142.867 155.25 142.944 155.441 142.944 155.669C142.944 155.897 142.867 156.088 142.712 156.243C142.557 156.398 142.345 156.476 142.076 156.476C141.807 156.476 141.595 156.398 141.44 156.243C141.29 156.088 141.215 155.897 141.215 155.669ZM149.729 162.956L151.917 157.604H153.995V165H152.334V160.105L150.297 165H149.169L147.125 160.078V165H145.464V157.604H147.556L149.729 162.956ZM160.534 165C160.461 164.859 160.397 164.629 160.343 164.31C159.814 164.861 159.167 165.137 158.401 165.137C157.659 165.137 157.052 164.925 156.583 164.501C156.114 164.077 155.879 163.553 155.879 162.929C155.879 162.14 156.171 161.536 156.754 161.117C157.342 160.693 158.18 160.481 159.27 160.481H160.288V159.996C160.288 159.613 160.181 159.308 159.967 159.08C159.753 158.848 159.427 158.731 158.989 158.731C158.611 158.731 158.301 158.827 158.06 159.019C157.818 159.205 157.697 159.445 157.697 159.736H156.036C156.036 159.331 156.171 158.952 156.439 158.602C156.708 158.246 157.073 157.968 157.533 157.768C157.998 157.567 158.515 157.467 159.085 157.467C159.951 157.467 160.641 157.686 161.156 158.123C161.671 158.556 161.936 159.167 161.949 159.955V163.291C161.949 163.956 162.043 164.487 162.229 164.884V165H160.534ZM158.709 163.804C159.037 163.804 159.345 163.724 159.632 163.564C159.924 163.405 160.142 163.191 160.288 162.922V161.527H159.393C158.777 161.527 158.315 161.634 158.005 161.849C157.695 162.063 157.54 162.366 157.54 162.758C157.54 163.077 157.645 163.332 157.854 163.523C158.069 163.71 158.354 163.804 158.709 163.804Z" fill="#222B45"/>
<path d="M35 153.334H34.1667V152.5C34.1667 152.279 34.0789 152.067 33.9226 151.911C33.7663 151.755 33.5543 151.667 33.3333 151.667C33.1123 151.667 32.9004 151.755 32.7441 151.911C32.5878 152.067 32.5 152.279 32.5 152.5V153.334H27.5V152.5C27.5 152.279 27.4122 152.067 27.2559 151.911C27.0996 151.755 26.8877 151.667 26.6667 151.667C26.4457 151.667 26.2337 151.755 26.0774 151.911C25.9211 152.067 25.8333 152.279 25.8333 152.5V153.334H25C24.337 153.334 23.7011 153.597 23.2322 154.066C22.7634 154.535 22.5 155.171 22.5 155.834V165.834C22.5 166.497 22.7634 167.133 23.2322 167.601C23.7011 168.07 24.337 168.334 25 168.334H35C35.663 168.334 36.2989 168.07 36.7678 167.601C37.2366 167.133 37.5 166.497 37.5 165.834V155.834C37.5 155.171 37.2366 154.535 36.7678 154.066C36.2989 153.597 35.663 153.334 35 153.334ZM25 155H25.8333V155.834C25.8333 156.055 25.9211 156.267 26.0774 156.423C26.2337 156.579 26.4457 156.667 26.6667 156.667C26.8877 156.667 27.0996 156.579 27.2559 156.423C27.4122 156.267 27.5 156.055 27.5 155.834V155H32.5V155.834C32.5 156.055 32.5878 156.267 32.7441 156.423C32.9004 156.579 33.1123 156.667 33.3333 156.667C33.5543 156.667 33.7663 156.579 33.9226 156.423C34.0789 156.267 34.1667 156.055 34.1667 155.834V155H35C35.221 155 35.433 155.088 35.5893 155.244C35.7455 155.401 35.8333 155.613 35.8333 155.834V159.167H24.1667V155.834C24.1667 155.613 24.2545 155.401 24.4107 155.244C24.567 155.088 24.779 155 25 155ZM35 166.667H25C24.779 166.667 24.567 166.579 24.4107 166.423C24.2545 166.267 24.1667 166.055 24.1667 165.834V160.834H35.8333V165.834C35.8333 166.055 35.7455 166.267 35.5893 166.423C35.433 166.579 35.221 166.667 35 166.667Z" fill="#8F9BB3"/>
<path d="M26.6654 164.167C27.1256 164.167 27.4987 163.794 27.4987 163.333C27.4987 162.873 27.1256 162.5 26.6654 162.5C26.2051 162.5 25.832 162.873 25.832 163.333C25.832 163.794 26.2051 164.167 26.6654 164.167Z" fill="#8F9BB3"/>
<path d="M33.3346 162.5H30.0013C29.7803 162.5 29.5683 162.588 29.412 162.744C29.2558 162.9 29.168 163.112 29.168 163.333C29.168 163.554 29.2558 163.766 29.412 163.923C29.5683 164.079 29.7803 164.167 30.0013 164.167H33.3346C33.5556 164.167 33.7676 164.079 33.9239 163.923C34.0802 163.766 34.168 163.554 34.168 163.333C34.168 163.112 34.0802 162.9 33.9239 162.744C33.7676 162.588 33.5556 162.5 33.3346 162.5Z" fill="#8F9BB3"/>
<rect x="4" y="191" width="296" height="1" fill="#EDF1F7"/>
<mask id="mask5_5317_31155" style="mask-type:alpha" maskUnits="userSpaceOnUse" x="4" y="191" width="296" height="1">
<rect x="4" y="191" width="296" height="1" fill="white"/>
</mask>
<g mask="url(#mask5_5317_31155)">
</g>
</g>
<g clip-path="url(#clip3_5317_31155)">
<rect x="4" y="192" width="296" height="64" fill="white"/>
<path d="M64.8867 229H63.1641V220.441H58.7822V229H57.0596V219.047H64.8867V229ZM73.5449 225.377C73.5449 226.521 73.2852 227.435 72.7656 228.118C72.2461 228.797 71.5488 229.137 70.6738 229.137C69.8626 229.137 69.2132 228.87 68.7256 228.337V231.844H67.0645V221.604H68.5957L68.6641 222.355C69.1517 221.763 69.8148 221.467 70.6533 221.467C71.5557 221.467 72.262 221.804 72.7725 222.479C73.2874 223.148 73.5449 224.08 73.5449 225.274V225.377ZM71.8906 225.233C71.8906 224.495 71.7425 223.91 71.4463 223.477C71.1546 223.044 70.7354 222.827 70.1885 222.827C69.5094 222.827 69.0218 223.107 68.7256 223.668V226.949C69.0264 227.523 69.5186 227.811 70.2021 227.811C70.7308 227.811 71.1432 227.599 71.4395 227.175C71.7402 226.746 71.8906 226.099 71.8906 225.233ZM74.8955 225.233C74.8955 224.509 75.0391 223.857 75.3262 223.278C75.6133 222.695 76.0166 222.248 76.5361 221.938C77.0557 221.624 77.6527 221.467 78.3271 221.467C79.3252 221.467 80.1341 221.788 80.7539 222.431C81.3783 223.073 81.7155 223.925 81.7656 224.987L81.7725 225.377C81.7725 226.106 81.6312 226.758 81.3486 227.332C81.0706 227.906 80.6696 228.351 80.1455 228.665C79.626 228.979 79.0244 229.137 78.3408 229.137C77.2972 229.137 76.4609 228.79 75.832 228.098C75.2077 227.4 74.8955 226.473 74.8955 225.315V225.233ZM76.5566 225.377C76.5566 226.138 76.7139 226.735 77.0283 227.168C77.3428 227.596 77.7803 227.811 78.3408 227.811C78.9014 227.811 79.3366 227.592 79.6465 227.154C79.9609 226.717 80.1182 226.076 80.1182 225.233C80.1182 224.486 79.9564 223.894 79.6328 223.456C79.3138 223.019 78.8786 222.8 78.3271 222.8C77.7848 222.8 77.3542 223.016 77.0352 223.449C76.7161 223.878 76.5566 224.52 76.5566 225.377ZM83.1504 225.404C83.1504 224.197 83.3874 223.24 83.8613 222.533C84.3398 221.822 85.0052 221.467 85.8574 221.467C86.2038 221.467 86.5182 221.531 86.8008 221.658V218.5H88.4551V221.686C88.7467 221.54 89.0885 221.467 89.4805 221.467C90.3281 221.467 90.9912 221.82 91.4697 222.526C91.9528 223.228 92.1943 224.235 92.1943 225.548C92.1943 226.655 91.9528 227.53 91.4697 228.173C90.9867 228.815 90.3281 229.137 89.4941 229.137C89.1159 229.137 88.7695 229.068 88.4551 228.932V231.844H86.8008V228.959C86.5228 229.077 86.2038 229.137 85.8438 229.137C85.0462 229.137 84.4082 228.843 83.9297 228.255C83.4557 227.662 83.1982 226.849 83.1572 225.814L83.1504 225.404ZM90.5332 225.404C90.5332 224.575 90.401 223.935 90.1367 223.483C89.8724 223.028 89.4987 222.8 89.0156 222.8C88.8105 222.8 88.6237 222.829 88.4551 222.889V227.742C88.6055 227.788 88.7969 227.811 89.0293 227.811C90.0319 227.811 90.5332 227.008 90.5332 225.404ZM84.8047 225.548C84.8047 226.286 84.9277 226.849 85.1738 227.236C85.4199 227.619 85.7845 227.811 86.2676 227.811C86.4727 227.811 86.6504 227.788 86.8008 227.742V222.868C86.6458 222.823 86.4727 222.8 86.2812 222.8C85.8073 222.8 85.4427 223.021 85.1875 223.463C84.9323 223.9 84.8047 224.595 84.8047 225.548ZM98.4941 221.604H100.148V229H98.4941V224.064L95.5957 229H93.9414V221.604H95.5957V226.539L98.4941 221.604ZM108.451 221.604V229H106.79V222.943H104.698L104.562 225.521C104.475 226.76 104.236 227.651 103.844 228.193C103.456 228.731 102.862 229 102.06 229H101.547L101.54 227.619L101.882 227.585C102.246 227.535 102.511 227.314 102.675 226.922C102.843 226.525 102.951 225.805 102.996 224.762L103.133 221.604H108.451ZM115.086 221.604H116.74V229H115.086V224.064L112.188 229H110.533V221.604H112.188V226.539L115.086 221.604ZM127.419 222.943H124.206V229H122.552V221.604H127.419V222.943ZM128.161 225.233C128.161 224.509 128.305 223.857 128.592 223.278C128.879 222.695 129.282 222.248 129.802 221.938C130.321 221.624 130.918 221.467 131.593 221.467C132.591 221.467 133.4 221.788 134.02 222.431C134.644 223.073 134.981 223.925 135.031 224.987L135.038 225.377C135.038 226.106 134.897 226.758 134.614 227.332C134.336 227.906 133.935 228.351 133.411 228.665C132.892 228.979 132.29 229.137 131.606 229.137C130.563 229.137 129.727 228.79 129.098 228.098C128.473 227.4 128.161 226.473 128.161 225.315V225.233ZM129.822 225.377C129.822 226.138 129.979 226.735 130.294 227.168C130.608 227.596 131.046 227.811 131.606 227.811C132.167 227.811 132.602 227.592 132.912 227.154C133.227 226.717 133.384 226.076 133.384 225.233C133.384 224.486 133.222 223.894 132.898 223.456C132.579 223.019 132.144 222.8 131.593 222.8C131.05 222.8 130.62 223.016 130.301 223.449C129.982 223.878 129.822 224.52 129.822 225.377ZM139.731 227.811C140.146 227.811 140.49 227.69 140.764 227.448C141.037 227.207 141.183 226.908 141.201 226.553H142.767C142.748 227.013 142.605 227.444 142.336 227.845C142.067 228.241 141.702 228.556 141.242 228.788C140.782 229.021 140.285 229.137 139.752 229.137C138.717 229.137 137.897 228.802 137.291 228.132C136.685 227.462 136.382 226.537 136.382 225.356V225.186C136.382 224.06 136.683 223.16 137.284 222.485C137.886 221.806 138.706 221.467 139.745 221.467C140.625 221.467 141.34 221.724 141.892 222.239C142.448 222.75 142.739 223.422 142.767 224.256H141.201C141.183 223.832 141.037 223.483 140.764 223.21C140.495 222.937 140.151 222.8 139.731 222.8C139.194 222.8 138.779 222.996 138.487 223.388C138.196 223.775 138.048 224.365 138.043 225.158V225.425C138.043 226.227 138.187 226.826 138.474 227.223C138.765 227.615 139.185 227.811 139.731 227.811ZM150.092 222.923H147.692V229H146.031V222.923H143.659V221.604H150.092V222.923ZM154.272 229.137C153.22 229.137 152.365 228.806 151.709 228.146C151.057 227.48 150.731 226.596 150.731 225.493V225.288C150.731 224.55 150.873 223.891 151.155 223.312C151.442 222.729 151.843 222.276 152.358 221.952C152.873 221.629 153.448 221.467 154.081 221.467C155.088 221.467 155.865 221.788 156.412 222.431C156.964 223.073 157.239 223.982 157.239 225.158V225.828H152.406C152.456 226.439 152.659 226.922 153.015 227.277C153.375 227.633 153.826 227.811 154.368 227.811C155.129 227.811 155.749 227.503 156.228 226.888L157.123 227.742C156.827 228.184 156.43 228.528 155.934 228.774C155.441 229.016 154.888 229.137 154.272 229.137ZM154.074 222.8C153.618 222.8 153.249 222.959 152.967 223.278C152.689 223.597 152.511 224.042 152.434 224.611H155.599V224.488C155.562 223.932 155.414 223.513 155.154 223.23C154.895 222.943 154.535 222.8 154.074 222.8ZM163.402 221.604H165.057V229H163.402V224.064L160.504 229H158.85V221.604H160.504V226.539L163.402 221.604ZM164.182 218.767C164.182 219.341 163.981 219.806 163.58 220.161C163.179 220.517 162.644 220.694 161.974 220.694C161.304 220.694 160.768 220.517 160.367 220.161C159.966 219.806 159.766 219.341 159.766 218.767H161.01C161.01 219.067 161.094 219.302 161.263 219.471C161.436 219.635 161.673 219.717 161.974 219.717C162.274 219.717 162.509 219.635 162.678 219.471C162.846 219.302 162.931 219.067 162.931 218.767H164.182Z" fill="#222B45"/>
<path d="M35 218.167V217.334C35 216.892 34.8244 216.468 34.5118 216.155C34.1993 215.843 33.7754 215.667 33.3333 215.667H26.6667C26.2246 215.667 25.8007 215.843 25.4882 216.155C25.1756 216.468 25 216.892 25 217.334V218.167C24.337 218.167 23.7011 218.43 23.2322 218.899C22.7634 219.368 22.5 220.004 22.5 220.667V229.834C22.5 230.497 22.7634 231.133 23.2322 231.601C23.7011 232.07 24.337 232.334 25 232.334H35C35.663 232.334 36.2989 232.07 36.7678 231.601C37.2366 231.133 37.5 230.497 37.5 229.834V220.667C37.5 220.004 37.2366 219.368 36.7678 218.899C36.2989 218.43 35.663 218.167 35 218.167ZM26.6667 217.334H33.3333V220.667H26.6667V217.334ZM35.8333 229.834C35.8333 230.055 35.7455 230.267 35.5893 230.423C35.433 230.579 35.221 230.667 35 230.667H25C24.779 230.667 24.567 230.579 24.4107 230.423C24.2545 230.267 24.1667 230.055 24.1667 229.834V220.667C24.1667 220.446 24.2545 220.234 24.4107 220.078C24.567 219.921 24.779 219.834 25 219.834V220.667C25 221.109 25.1756 221.533 25.4882 221.846C25.8007 222.158 26.2246 222.334 26.6667 222.334H33.3333C33.7754 222.334 34.1993 222.158 34.5118 221.846C34.8244 221.533 35 221.109 35 220.667V219.834C35.221 219.834 35.433 219.921 35.5893 220.078C35.7455 220.234 35.8333 220.446 35.8333 220.667V229.834Z" fill="#8F9BB3"/>
<rect x="4" y="255" width="296" height="1" fill="#EDF1F7"/>
<mask id="mask6_5317_31155" style="mask-type:alpha" maskUnits="userSpaceOnUse" x="4" y="255" width="296" height="1">
<rect x="4" y="255" width="296" height="1" fill="white"/>
</mask>
<g mask="url(#mask6_5317_31155)">
</g>
</g>
<g clip-path="url(#clip4_5317_31155)">
<rect x="4" y="256" width="296" height="64" fill="white"/>
<path d="M60.6689 289.165H58.7412V293H57.0117V283.047H60.5117C61.6602 283.047 62.5465 283.304 63.1709 283.819C63.7952 284.334 64.1074 285.079 64.1074 286.055C64.1074 286.72 63.9456 287.278 63.6221 287.729C63.3031 288.176 62.8564 288.52 62.2822 288.762L64.5176 292.911V293H62.665L60.6689 289.165ZM58.7412 287.777H60.5186C61.1019 287.777 61.5576 287.632 61.8857 287.34C62.2139 287.044 62.3779 286.64 62.3779 286.13C62.3779 285.597 62.2253 285.184 61.9199 284.893C61.6191 284.601 61.168 284.451 60.5664 284.441H58.7412V287.777ZM65.5264 289.233C65.5264 288.509 65.6699 287.857 65.957 287.278C66.2441 286.695 66.6475 286.248 67.167 285.938C67.6865 285.624 68.2835 285.467 68.958 285.467C69.9561 285.467 70.765 285.788 71.3848 286.431C72.0091 287.073 72.3464 287.925 72.3965 288.987L72.4033 289.377C72.4033 290.106 72.262 290.758 71.9795 291.332C71.7015 291.906 71.3005 292.351 70.7764 292.665C70.2568 292.979 69.6553 293.137 68.9717 293.137C67.9281 293.137 67.0918 292.79 66.4629 292.098C65.8385 291.4 65.5264 290.473 65.5264 289.315V289.233ZM67.1875 289.377C67.1875 290.138 67.3447 290.735 67.6592 291.168C67.9736 291.596 68.4111 291.811 68.9717 291.811C69.5322 291.811 69.9674 291.592 70.2773 291.154C70.5918 290.717 70.749 290.076 70.749 289.233C70.749 288.486 70.5872 287.894 70.2637 287.456C69.9447 287.019 69.5094 286.8 68.958 286.8C68.4157 286.8 67.985 287.016 67.666 287.449C67.347 287.878 67.1875 288.52 67.1875 289.377ZM73.7471 289.233C73.7471 288.509 73.8906 287.857 74.1777 287.278C74.4648 286.695 74.8682 286.248 75.3877 285.938C75.9072 285.624 76.5042 285.467 77.1787 285.467C78.1768 285.467 78.9857 285.788 79.6055 286.431C80.2298 287.073 80.5671 287.925 80.6172 288.987L80.624 289.377C80.624 290.106 80.4827 290.758 80.2002 291.332C79.9222 291.906 79.5212 292.351 78.9971 292.665C78.4775 292.979 77.876 293.137 77.1924 293.137C76.1488 293.137 75.3125 292.79 74.6836 292.098C74.0592 291.4 73.7471 290.473 73.7471 289.315V289.233ZM75.4082 289.377C75.4082 290.138 75.5654 290.735 75.8799 291.168C76.1943 291.596 76.6318 291.811 77.1924 291.811C77.7529 291.811 78.1882 291.592 78.498 291.154C78.8125 290.717 78.9697 290.076 78.9697 289.233C78.9697 288.486 78.8079 287.894 78.4844 287.456C78.1654 287.019 77.7301 286.8 77.1787 286.8C76.6364 286.8 76.2057 287.016 75.8867 287.449C75.5677 287.878 75.4082 288.52 75.4082 289.377ZM83.8408 285.604L83.8887 286.376C84.4082 285.77 85.1191 285.467 86.0215 285.467C87.0104 285.467 87.6872 285.845 88.0518 286.602C88.5895 285.845 89.346 285.467 90.3213 285.467C91.137 285.467 91.7432 285.692 92.1396 286.144C92.5407 286.595 92.7458 287.26 92.7549 288.14V293H91.0938V288.188C91.0938 287.718 90.9912 287.374 90.7861 287.155C90.5811 286.937 90.2415 286.827 89.7676 286.827C89.3893 286.827 89.0794 286.93 88.8379 287.135C88.6009 287.335 88.4346 287.6 88.3389 287.928L88.3457 293H86.6846V288.133C86.6618 287.262 86.2174 286.827 85.3516 286.827C84.6862 286.827 84.2145 287.098 83.9365 287.641V293H82.2754V285.604H83.8408ZM101.201 289.377C101.201 290.525 100.944 291.439 100.429 292.118C99.9183 292.797 99.2142 293.137 98.3164 293.137C97.4505 293.137 96.776 292.825 96.293 292.2L96.2109 293H94.707V282.5H96.3682V286.314C96.8467 285.749 97.4915 285.467 98.3027 285.467C99.2051 285.467 99.9137 285.802 100.429 286.472C100.944 287.142 101.201 288.078 101.201 289.281V289.377ZM99.54 289.233C99.54 288.431 99.3988 287.83 99.1162 287.429C98.8337 287.028 98.4235 286.827 97.8857 286.827C97.1657 286.827 96.6598 287.142 96.3682 287.771V290.819C96.6644 291.462 97.1748 291.783 97.8994 291.783C98.4189 291.783 98.82 291.59 99.1025 291.202C99.3851 290.815 99.5309 290.229 99.54 289.445V289.233ZM102.538 289.233C102.538 288.509 102.682 287.857 102.969 287.278C103.256 286.695 103.659 286.248 104.179 285.938C104.698 285.624 105.295 285.467 105.97 285.467C106.968 285.467 107.777 285.788 108.396 286.431C109.021 287.073 109.358 287.925 109.408 288.987L109.415 289.377C109.415 290.106 109.274 290.758 108.991 291.332C108.713 291.906 108.312 292.351 107.788 292.665C107.269 292.979 106.667 293.137 105.983 293.137C104.94 293.137 104.104 292.79 103.475 292.098C102.85 291.4 102.538 290.473 102.538 289.315V289.233ZM104.199 289.377C104.199 290.138 104.356 290.735 104.671 291.168C104.985 291.596 105.423 291.811 105.983 291.811C106.544 291.811 106.979 291.592 107.289 291.154C107.604 290.717 107.761 290.076 107.761 289.233C107.761 288.486 107.599 287.894 107.275 287.456C106.956 287.019 106.521 286.8 105.97 286.8C105.427 286.8 104.997 287.016 104.678 287.449C104.359 287.878 104.199 288.52 104.199 289.377ZM115.489 293C115.416 292.859 115.353 292.629 115.298 292.31C114.769 292.861 114.122 293.137 113.356 293.137C112.614 293.137 112.007 292.925 111.538 292.501C111.069 292.077 110.834 291.553 110.834 290.929C110.834 290.14 111.126 289.536 111.709 289.117C112.297 288.693 113.135 288.481 114.225 288.481H115.243V287.996C115.243 287.613 115.136 287.308 114.922 287.08C114.708 286.848 114.382 286.731 113.944 286.731C113.566 286.731 113.256 286.827 113.015 287.019C112.773 287.205 112.652 287.445 112.652 287.736H110.991C110.991 287.331 111.126 286.952 111.395 286.602C111.663 286.246 112.028 285.968 112.488 285.768C112.953 285.567 113.47 285.467 114.04 285.467C114.906 285.467 115.596 285.686 116.111 286.123C116.626 286.556 116.891 287.167 116.904 287.955V291.291C116.904 291.956 116.998 292.487 117.185 292.884V293H115.489ZM113.664 291.804C113.992 291.804 114.3 291.724 114.587 291.564C114.879 291.405 115.097 291.191 115.243 290.922V289.527H114.348C113.732 289.527 113.27 289.634 112.96 289.849C112.65 290.063 112.495 290.366 112.495 290.758C112.495 291.077 112.6 291.332 112.81 291.523C113.024 291.71 113.309 291.804 113.664 291.804ZM122.767 287.121C122.548 287.085 122.322 287.066 122.09 287.066C121.329 287.066 120.816 287.358 120.552 287.941V293H118.891V285.604H120.477L120.518 286.431C120.919 285.788 121.475 285.467 122.186 285.467C122.423 285.467 122.618 285.499 122.773 285.562L122.767 287.121ZM123.618 289.247C123.618 288.108 123.882 287.194 124.411 286.506C124.94 285.813 125.648 285.467 126.537 285.467C127.321 285.467 127.954 285.74 128.438 286.287V282.5H130.099V293H128.595L128.513 292.234C128.016 292.836 127.353 293.137 126.523 293.137C125.658 293.137 124.956 292.788 124.418 292.091C123.885 291.394 123.618 290.446 123.618 289.247ZM125.279 289.391C125.279 290.143 125.423 290.73 125.71 291.154C126.002 291.574 126.414 291.783 126.947 291.783C127.626 291.783 128.123 291.48 128.438 290.874V287.716C128.132 287.123 127.64 286.827 126.961 286.827C126.423 286.827 126.008 287.041 125.717 287.47C125.425 287.894 125.279 288.534 125.279 289.391Z" fill="#222B45"/>
<path d="M24.168 279.667C23.6735 279.667 23.1902 279.814 22.779 280.088C22.3679 280.363 22.0475 280.753 21.8583 281.21C21.6691 281.667 21.6195 282.17 21.716 282.655C21.8125 283.14 22.0506 283.585 22.4002 283.935C22.7498 284.284 23.1953 284.522 23.6802 284.619C24.1652 284.715 24.6679 284.666 25.1247 284.477C25.5815 284.287 25.9719 283.967 26.2466 283.556C26.5213 283.145 26.668 282.661 26.668 282.167C26.668 281.504 26.4046 280.868 25.9357 280.399C25.4669 279.93 24.831 279.667 24.168 279.667ZM24.168 283C24.0032 283 23.842 282.951 23.705 282.86C23.568 282.768 23.4611 282.638 23.3981 282.486C23.335 282.334 23.3185 282.166 23.3506 282.004C23.3828 281.843 23.4622 281.694 23.5787 281.578C23.6953 281.461 23.8437 281.382 24.0054 281.35C24.167 281.318 24.3346 281.334 24.4869 281.397C24.6391 281.46 24.7693 281.567 24.8609 281.704C24.9524 281.841 25.0013 282.002 25.0013 282.167C25.0013 282.388 24.9135 282.6 24.7572 282.756C24.6009 282.913 24.389 283 24.168 283Z" fill="#8F9BB3"/>
<path d="M30 279.667C29.5055 279.667 29.0222 279.814 28.6111 280.088C28.2 280.363 27.8795 280.753 27.6903 281.21C27.5011 281.667 27.4516 282.17 27.548 282.655C27.6445 283.14 27.8826 283.585 28.2322 283.935C28.5819 284.284 29.0273 284.522 29.5123 284.619C29.9972 284.715 30.4999 284.666 30.9567 284.477C31.4135 284.287 31.804 283.967 32.0787 283.556C32.3534 283.145 32.5 282.661 32.5 282.167C32.5 281.504 32.2366 280.868 31.7678 280.399C31.2989 279.93 30.663 279.667 30 279.667ZM30 283C29.8352 283 29.6741 282.951 29.537 282.86C29.4 282.768 29.2932 282.638 29.2301 282.486C29.167 282.334 29.1505 282.166 29.1827 282.004C29.2148 281.843 29.2942 281.694 29.4107 281.578C29.5273 281.461 29.6758 281.382 29.8374 281.35C29.9991 281.318 30.1666 281.334 30.3189 281.397C30.4712 281.46 30.6013 281.567 30.6929 281.704C30.7845 281.841 30.8333 282.002 30.8333 282.167C30.8333 282.388 30.7455 282.6 30.5893 282.756C30.433 282.913 30.221 283 30 283Z" fill="#8F9BB3"/>
<path d="M35.832 284.667C36.3265 284.667 36.8098 284.52 37.221 284.246C37.6321 283.971 37.9525 283.581 38.1417 283.124C38.3309 282.667 38.3805 282.164 38.284 281.679C38.1875 281.194 37.9494 280.749 37.5998 280.399C37.2502 280.05 36.8047 279.811 36.3198 279.715C35.8348 279.619 35.3321 279.668 34.8753 279.857C34.4185 280.047 34.0281 280.367 33.7534 280.778C33.4787 281.189 33.332 281.673 33.332 282.167C33.332 282.83 33.5954 283.466 34.0643 283.935C34.5331 284.404 35.169 284.667 35.832 284.667ZM35.832 281.334C35.9968 281.334 36.158 281.383 36.295 281.474C36.432 281.566 36.5389 281.696 36.6019 281.848C36.665 282 36.6815 282.168 36.6494 282.33C36.6172 282.491 36.5378 282.64 36.4213 282.756C36.3047 282.873 36.1563 282.952 35.9946 282.984C35.833 283.016 35.6654 283 35.5131 282.937C35.3609 282.874 35.2307 282.767 35.1391 282.63C35.0476 282.493 34.9987 282.332 34.9987 282.167C34.9987 281.946 35.0865 281.734 35.2428 281.578C35.3991 281.421 35.611 281.334 35.832 281.334Z" fill="#8F9BB3"/>
<path d="M24.168 285.5C23.6735 285.5 23.1902 285.647 22.779 285.921C22.3679 286.196 22.0475 286.586 21.8583 287.043C21.6691 287.5 21.6195 288.003 21.716 288.488C21.8125 288.973 22.0506 289.418 22.4002 289.768C22.7498 290.117 23.1953 290.355 23.6802 290.452C24.1652 290.548 24.6679 290.499 25.1247 290.31C25.5815 290.12 25.9719 289.8 26.2466 289.389C26.5213 288.978 26.668 288.494 26.668 288C26.668 287.337 26.4046 286.701 25.9357 286.232C25.4669 285.763 24.831 285.5 24.168 285.5ZM24.168 288.833C24.0032 288.833 23.842 288.784 23.705 288.693C23.568 288.601 23.4611 288.471 23.3981 288.319C23.335 288.167 23.3185 287.999 23.3506 287.837C23.3828 287.676 23.4622 287.527 23.5787 287.411C23.6953 287.294 23.8437 287.215 24.0054 287.183C24.167 287.151 24.3346 287.167 24.4869 287.23C24.6391 287.293 24.7693 287.4 24.8609 287.537C24.9524 287.674 25.0013 287.835 25.0013 288C25.0013 288.221 24.9135 288.433 24.7572 288.589C24.6009 288.746 24.389 288.833 24.168 288.833Z" fill="#8F9BB3"/>
<path d="M30 285.5C29.5055 285.5 29.0222 285.647 28.6111 285.921C28.2 286.196 27.8795 286.586 27.6903 287.043C27.5011 287.5 27.4516 288.003 27.548 288.488C27.6445 288.973 27.8826 289.418 28.2322 289.768C28.5819 290.117 29.0273 290.355 29.5123 290.452C29.9972 290.548 30.4999 290.499 30.9567 290.31C31.4135 290.12 31.804 289.8 32.0787 289.389C32.3534 288.978 32.5 288.494 32.5 288C32.5 287.337 32.2366 286.701 31.7678 286.232C31.2989 285.763 30.663 285.5 30 285.5ZM30 288.833C29.8352 288.833 29.6741 288.784 29.537 288.693C29.4 288.601 29.2932 288.471 29.2301 288.319C29.167 288.167 29.1505 287.999 29.1827 287.837C29.2148 287.676 29.2942 287.527 29.4107 287.411C29.5273 287.294 29.6758 287.215 29.8374 287.183C29.9991 287.151 30.1666 287.167 30.3189 287.23C30.4712 287.293 30.6013 287.4 30.6929 287.537C30.7845 287.674 30.8333 287.835 30.8333 288C30.8333 288.221 30.7455 288.433 30.5893 288.589C30.433 288.746 30.221 288.833 30 288.833Z" fill="#8F9BB3"/>
<path d="M35.832 285.5C35.3376 285.5 34.8542 285.647 34.4431 285.921C34.032 286.196 33.7116 286.586 33.5223 287.043C33.3331 287.5 33.2836 288.003 33.3801 288.488C33.4765 288.973 33.7146 289.418 34.0643 289.768C34.4139 290.117 34.8594 290.355 35.3443 290.452C35.8293 290.548 36.3319 290.499 36.7887 290.31C37.2456 290.12 37.636 289.8 37.9107 289.389C38.1854 288.978 38.332 288.494 38.332 288C38.332 287.337 38.0686 286.701 37.5998 286.232C37.131 285.763 36.4951 285.5 35.832 285.5ZM35.832 288.833C35.6672 288.833 35.5061 288.784 35.3691 288.693C35.232 288.601 35.1252 288.471 35.0621 288.319C34.9991 288.167 34.9826 287.999 35.0147 287.837C35.0469 287.676 35.1262 287.527 35.2428 287.411C35.3593 287.294 35.5078 287.215 35.6695 287.183C35.8311 287.151 35.9987 287.167 36.1509 287.23C36.3032 287.293 36.4334 287.4 36.5249 287.537C36.6165 287.674 36.6654 287.835 36.6654 288C36.6654 288.221 36.5776 288.433 36.4213 288.589C36.265 288.746 36.053 288.833 35.832 288.833Z" fill="#8F9BB3"/>
<path d="M24.168 291.333C23.6735 291.333 23.1902 291.48 22.779 291.754C22.3679 292.029 22.0475 292.419 21.8583 292.876C21.6691 293.333 21.6195 293.836 21.716 294.321C21.8125 294.806 22.0506 295.251 22.4002 295.601C22.7498 295.95 23.1953 296.189 23.6802 296.285C24.1652 296.381 24.6679 296.332 25.1247 296.143C25.5815 295.953 25.9719 295.633 26.2466 295.222C26.5213 294.811 26.668 294.327 26.668 293.833C26.668 293.17 26.4046 292.534 25.9357 292.065C25.4669 291.596 24.831 291.333 24.168 291.333ZM24.168 294.666C24.0032 294.666 23.842 294.617 23.705 294.526C23.568 294.434 23.4611 294.304 23.3981 294.152C23.335 294 23.3185 293.832 23.3506 293.67C23.3828 293.509 23.4622 293.36 23.5787 293.244C23.6953 293.127 23.8437 293.048 24.0054 293.016C24.167 292.984 24.3346 293 24.4869 293.063C24.6391 293.126 24.7693 293.233 24.8609 293.37C24.9524 293.507 25.0013 293.668 25.0013 293.833C25.0013 294.054 24.9135 294.266 24.7572 294.422C24.6009 294.579 24.389 294.666 24.168 294.666Z" fill="#8F9BB3"/>
<path d="M30 291.333C29.5055 291.333 29.0222 291.48 28.6111 291.754C28.2 292.029 27.8795 292.419 27.6903 292.876C27.5011 293.333 27.4516 293.836 27.548 294.321C27.6445 294.806 27.8826 295.251 28.2322 295.601C28.5819 295.95 29.0273 296.189 29.5123 296.285C29.9972 296.381 30.4999 296.332 30.9567 296.143C31.4135 295.953 31.804 295.633 32.0787 295.222C32.3534 294.811 32.5 294.327 32.5 293.833C32.5 293.17 32.2366 292.534 31.7678 292.065C31.2989 291.596 30.663 291.333 30 291.333ZM30 294.666C29.8352 294.666 29.6741 294.617 29.537 294.526C29.4 294.434 29.2932 294.304 29.2301 294.152C29.167 294 29.1505 293.832 29.1827 293.67C29.2148 293.509 29.2942 293.36 29.4107 293.244C29.5273 293.127 29.6758 293.048 29.8374 293.016C29.9991 292.984 30.1666 293 30.3189 293.063C30.4712 293.126 30.6013 293.233 30.6929 293.37C30.7845 293.507 30.8333 293.668 30.8333 293.833C30.8333 294.054 30.7455 294.266 30.5893 294.422C30.433 294.579 30.221 294.666 30 294.666Z" fill="#8F9BB3"/>
<path d="M35.832 291.333C35.3376 291.333 34.8542 291.48 34.4431 291.754C34.032 292.029 33.7116 292.419 33.5223 292.876C33.3331 293.333 33.2836 293.836 33.3801 294.321C33.4765 294.806 33.7146 295.251 34.0643 295.601C34.4139 295.95 34.8594 296.189 35.3443 296.285C35.8293 296.381 36.3319 296.332 36.7887 296.143C37.2456 295.953 37.636 295.633 37.9107 295.222C38.1854 294.811 38.332 294.327 38.332 293.833C38.332 293.17 38.0686 292.534 37.5998 292.065C37.131 291.596 36.4951 291.333 35.832 291.333ZM35.832 294.666C35.6672 294.666 35.5061 294.617 35.3691 294.526C35.232 294.434 35.1252 294.304 35.0621 294.152C34.9991 294 34.9826 293.832 35.0147 293.67C35.0469 293.509 35.1262 293.36 35.2428 293.244C35.3593 293.127 35.5078 293.048 35.6695 293.016C35.8311 292.984 35.9987 293 36.1509 293.063C36.3032 293.126 36.4334 293.233 36.5249 293.37C36.6165 293.507 36.6654 293.668 36.6654 293.833C36.6654 294.054 36.5776 294.266 36.4213 294.422C36.265 294.579 36.053 294.666 35.832 294.666Z" fill="#8F9BB3"/>
<rect x="4" y="319" width="296" height="1" fill="#EDF1F7"/>
<mask id="mask7_5317_31155" style="mask-type:alpha" maskUnits="userSpaceOnUse" x="4" y="319" width="296" height="1">
<rect x="4" y="319" width="296" height="1" fill="white"/>
</mask>
<g mask="url(#mask7_5317_31155)">
</g>
</g>
<g clip-path="url(#clip5_5317_31155)">
<rect x="4" y="320" width="296" height="64" fill="white"/>
<path d="M58.7412 353.302V357H57.0117V347.047H60.8193C61.9313 347.047 62.8132 347.336 63.4648 347.915C64.1211 348.494 64.4492 349.259 64.4492 350.212C64.4492 351.187 64.1279 351.946 63.4854 352.488C62.8473 353.031 61.9518 353.302 60.7988 353.302H58.7412ZM58.7412 351.914H60.8193C61.4346 351.914 61.904 351.771 62.2275 351.483C62.5511 351.192 62.7129 350.772 62.7129 350.226C62.7129 349.688 62.5488 349.259 62.2207 348.94C61.8926 348.617 61.4414 348.451 60.8672 348.441H58.7412V351.914ZM69.2178 357.137C68.165 357.137 67.3105 356.806 66.6543 356.146C66.0026 355.48 65.6768 354.596 65.6768 353.493V353.288C65.6768 352.55 65.818 351.891 66.1006 351.312C66.3877 350.729 66.7887 350.276 67.3037 349.952C67.8187 349.629 68.3929 349.467 69.0264 349.467C70.0335 349.467 70.8105 349.788 71.3574 350.431C71.9089 351.073 72.1846 351.982 72.1846 353.158V353.828H67.3516C67.4017 354.439 67.6045 354.922 67.96 355.277C68.32 355.633 68.7712 355.811 69.3135 355.811C70.0745 355.811 70.6943 355.503 71.1729 354.888L72.0684 355.742C71.7721 356.184 71.3757 356.528 70.8789 356.774C70.3867 357.016 69.833 357.137 69.2178 357.137ZM69.0195 350.8C68.5638 350.8 68.1947 350.959 67.9121 351.278C67.6341 351.597 67.4564 352.042 67.3789 352.611H70.5439V352.488C70.5075 351.932 70.3594 351.513 70.0996 351.23C69.8398 350.943 69.4798 350.8 69.0195 350.8ZM76.7686 355.811C77.1833 355.811 77.5273 355.69 77.8008 355.448C78.0742 355.207 78.2201 354.908 78.2383 354.553H79.8037C79.7855 355.013 79.6419 355.444 79.373 355.845C79.1042 356.241 78.7396 356.556 78.2793 356.788C77.819 357.021 77.3223 357.137 76.7891 357.137C75.7546 357.137 74.9342 356.802 74.3281 356.132C73.722 355.462 73.4189 354.537 73.4189 353.356V353.186C73.4189 352.06 73.7197 351.16 74.3213 350.485C74.9229 349.806 75.7432 349.467 76.7822 349.467C77.6618 349.467 78.3773 349.724 78.9287 350.239C79.4847 350.75 79.7764 351.422 79.8037 352.256H78.2383C78.2201 351.832 78.0742 351.483 77.8008 351.21C77.5319 350.937 77.1878 350.8 76.7686 350.8C76.2308 350.8 75.8161 350.996 75.5244 351.388C75.2327 351.775 75.0846 352.365 75.0801 353.158V353.425C75.0801 354.227 75.2236 354.826 75.5107 355.223C75.8024 355.615 76.2217 355.811 76.7686 355.811ZM87.1289 350.923H84.7295V357H83.0684V350.923H80.6963V349.604H87.1289V350.923ZM87.9736 353.233C87.9736 352.509 88.1172 351.857 88.4043 351.278C88.6914 350.695 89.0947 350.248 89.6143 349.938C90.1338 349.624 90.7308 349.467 91.4053 349.467C92.4033 349.467 93.2122 349.788 93.832 350.431C94.4564 351.073 94.7936 351.925 94.8438 352.987L94.8506 353.377C94.8506 354.106 94.7093 354.758 94.4268 355.332C94.1488 355.906 93.7477 356.351 93.2236 356.665C92.7041 356.979 92.1025 357.137 91.4189 357.137C90.3753 357.137 89.5391 356.79 88.9102 356.098C88.2858 355.4 87.9736 354.473 87.9736 353.315V353.233ZM89.6348 353.377C89.6348 354.138 89.792 354.735 90.1064 355.168C90.4209 355.596 90.8584 355.811 91.4189 355.811C91.9795 355.811 92.4147 355.592 92.7246 355.154C93.0391 354.717 93.1963 354.076 93.1963 353.233C93.1963 352.486 93.0345 351.894 92.7109 351.456C92.3919 351.019 91.9567 350.8 91.4053 350.8C90.863 350.8 90.4323 351.016 90.1133 351.449C89.7943 351.878 89.6348 352.52 89.6348 353.377ZM102.982 353.377C102.982 354.521 102.723 355.435 102.203 356.118C101.684 356.797 100.986 357.137 100.111 357.137C99.3001 357.137 98.6507 356.87 98.1631 356.337V359.844H96.502V349.604H98.0332L98.1016 350.355C98.5892 349.763 99.2523 349.467 100.091 349.467C100.993 349.467 101.7 349.804 102.21 350.479C102.725 351.148 102.982 352.08 102.982 353.274V353.377ZM101.328 353.233C101.328 352.495 101.18 351.91 100.884 351.477C100.592 351.044 100.173 350.827 99.626 350.827C98.9469 350.827 98.4593 351.107 98.1631 351.668V354.949C98.4639 355.523 98.9561 355.811 99.6396 355.811C100.168 355.811 100.581 355.599 100.877 355.175C101.178 354.746 101.328 354.099 101.328 353.233ZM109.063 357C108.991 356.859 108.927 356.629 108.872 356.31C108.343 356.861 107.696 357.137 106.931 357.137C106.188 357.137 105.582 356.925 105.112 356.501C104.643 356.077 104.408 355.553 104.408 354.929C104.408 354.14 104.7 353.536 105.283 353.117C105.871 352.693 106.71 352.481 107.799 352.481H108.817V351.996C108.817 351.613 108.71 351.308 108.496 351.08C108.282 350.848 107.956 350.731 107.519 350.731C107.14 350.731 106.83 350.827 106.589 351.019C106.347 351.205 106.227 351.445 106.227 351.736H104.565C104.565 351.331 104.7 350.952 104.969 350.602C105.238 350.246 105.602 349.968 106.062 349.768C106.527 349.567 107.045 349.467 107.614 349.467C108.48 349.467 109.171 349.686 109.686 350.123C110.201 350.556 110.465 351.167 110.479 351.955V355.291C110.479 355.956 110.572 356.487 110.759 356.884V357H109.063ZM107.238 355.804C107.566 355.804 107.874 355.724 108.161 355.564C108.453 355.405 108.672 355.191 108.817 354.922V353.527H107.922C107.307 353.527 106.844 353.634 106.534 353.849C106.224 354.063 106.069 354.366 106.069 354.758C106.069 355.077 106.174 355.332 106.384 355.523C106.598 355.71 106.883 355.804 107.238 355.804ZM118.733 357H117.072V354.013H114.194V357H112.533V349.604H114.194V352.687H117.072V349.604H118.733V357ZM129.111 349.604H130.766V357H129.111V352.064L126.213 357H124.559V349.604H126.213V354.539L129.111 349.604ZM142.969 348.441H138.382V350.854H140.419C141.148 350.854 141.784 350.98 142.326 351.23C142.868 351.481 143.281 351.837 143.563 352.297C143.846 352.757 143.987 353.29 143.987 353.896C143.987 354.826 143.671 355.574 143.037 356.139C142.408 356.704 141.549 356.991 140.46 357H136.652V347.047H142.969V348.441ZM138.382 352.242V355.619H140.412C140.995 355.619 141.449 355.462 141.772 355.147C142.101 354.828 142.265 354.407 142.265 353.883C142.265 353.382 142.105 352.985 141.786 352.693C141.467 352.402 141.025 352.251 140.46 352.242H138.382ZM149.993 357C149.92 356.859 149.856 356.629 149.802 356.31C149.273 356.861 148.626 357.137 147.86 357.137C147.118 357.137 146.511 356.925 146.042 356.501C145.573 356.077 145.338 355.553 145.338 354.929C145.338 354.14 145.63 353.536 146.213 353.117C146.801 352.693 147.639 352.481 148.729 352.481H149.747V351.996C149.747 351.613 149.64 351.308 149.426 351.08C149.212 350.848 148.886 350.731 148.448 350.731C148.07 350.731 147.76 350.827 147.519 351.019C147.277 351.205 147.156 351.445 147.156 351.736H145.495C145.495 351.331 145.63 350.952 145.898 350.602C146.167 350.246 146.532 349.968 146.992 349.768C147.457 349.567 147.974 349.467 148.544 349.467C149.41 349.467 150.1 349.686 150.615 350.123C151.13 350.556 151.395 351.167 151.408 351.955V355.291C151.408 355.956 151.502 356.487 151.688 356.884V357H149.993ZM148.168 355.804C148.496 355.804 148.804 355.724 149.091 355.564C149.382 355.405 149.601 355.191 149.747 354.922V353.527H148.852C148.236 353.527 147.774 353.634 147.464 353.849C147.154 354.063 146.999 354.366 146.999 354.758C146.999 355.077 147.104 355.332 147.313 355.523C147.528 355.71 147.812 355.804 148.168 355.804ZM159.875 353.377C159.875 354.521 159.615 355.435 159.096 356.118C158.576 356.797 157.879 357.137 157.004 357.137C156.193 357.137 155.543 356.87 155.056 356.337V359.844H153.395V349.604H154.926L154.994 350.355C155.482 349.763 156.145 349.467 156.983 349.467C157.886 349.467 158.592 349.804 159.103 350.479C159.618 351.148 159.875 352.08 159.875 353.274V353.377ZM158.221 353.233C158.221 352.495 158.073 351.91 157.776 351.477C157.485 351.044 157.065 350.827 156.519 350.827C155.84 350.827 155.352 351.107 155.056 351.668V354.949C155.356 355.523 155.849 355.811 156.532 355.811C157.061 355.811 157.473 355.599 157.77 355.175C158.07 354.746 158.221 354.099 158.221 353.233Z" fill="#222B45"/>
<path d="M23.3333 352.834C23.7936 352.834 24.1667 352.461 24.1667 352C24.1667 351.54 23.7936 351.167 23.3333 351.167C22.8731 351.167 22.5 351.54 22.5 352C22.5 352.461 22.8731 352.834 23.3333 352.834Z" fill="#8F9BB3"/>
<path d="M36.7154 351.167H26.6154C26.1827 351.167 25.832 351.518 25.832 351.95V352.05C25.832 352.483 26.1827 352.834 26.6154 352.834H36.7154C37.148 352.834 37.4987 352.483 37.4987 352.05V351.95C37.4987 351.518 37.148 351.167 36.7154 351.167Z" fill="#8F9BB3"/>
<path d="M36.7167 355.333H23.2833C22.8507 355.333 22.5 355.684 22.5 356.116V356.216C22.5 356.649 22.8507 357 23.2833 357H36.7167C37.1493 357 37.5 356.649 37.5 356.216V356.116C37.5 355.684 37.1493 355.333 36.7167 355.333Z" fill="#8F9BB3"/>
<path d="M36.7167 347H23.2833C22.8507 347 22.5 347.351 22.5 347.783V347.883C22.5 348.316 22.8507 348.667 23.2833 348.667H36.7167C37.1493 348.667 37.5 348.316 37.5 347.883V347.783C37.5 347.351 37.1493 347 36.7167 347Z" fill="#8F9BB3"/>
<rect x="4" y="383" width="296" height="1" fill="#EDF1F7"/>
<mask id="mask8_5317_31155" style="mask-type:alpha" maskUnits="userSpaceOnUse" x="4" y="383" width="296" height="1">
<rect x="4" y="383" width="296" height="1" fill="white"/>
</mask>
<g mask="url(#mask8_5317_31155)">
</g>
</g>
<g clip-path="url(#clip6_5317_31155)">
<rect x="4" y="384" width="296" height="64" fill="white"/>
<path d="M62.4395 411.99H62.5898C63.3555 411.99 64.0505 412.163 64.6748 412.51C65.3037 412.852 65.7913 413.335 66.1377 413.959C66.4886 414.583 66.6641 415.285 66.6641 416.064C66.6641 416.839 66.4886 417.536 66.1377 418.156C65.7913 418.771 65.3083 419.25 64.6885 419.592C64.0732 419.934 63.3828 420.107 62.6172 420.111H62.4395V421.41H60.7783V420.111H60.6143C59.8441 420.111 59.1445 419.94 58.5156 419.599C57.8867 419.252 57.3991 418.771 57.0527 418.156C56.7109 417.541 56.54 416.848 56.54 416.078C56.54 415.299 56.7132 414.597 57.0596 413.973C57.4059 413.348 57.8913 412.863 58.5156 412.517C59.14 412.166 59.8395 411.99 60.6143 411.99H60.7783V410.637H62.4395V411.99ZM60.6143 413.378C59.8486 413.378 59.2493 413.617 58.8164 414.096C58.388 414.574 58.1738 415.235 58.1738 416.078C58.1738 416.898 58.388 417.546 58.8164 418.02C59.2448 418.489 59.8509 418.724 60.6348 418.724H60.7783V413.378H60.6143ZM62.4395 413.378V418.724H62.6035C63.3691 418.724 63.9639 418.484 64.3877 418.006C64.8161 417.527 65.0303 416.88 65.0303 416.064C65.0303 415.23 64.8161 414.574 64.3877 414.096C63.9639 413.617 63.3623 413.378 62.583 413.378H62.4395ZM72.875 413.604H74.5293V421H72.875V416.064L69.9766 421H68.3223V413.604H69.9766V418.539L72.875 413.604ZM82.8115 421H81.1504V418.013H78.2725V421H76.6113V413.604H78.2725V416.687H81.1504V413.604H82.8115V421ZM89.2549 421C89.182 420.859 89.1182 420.629 89.0635 420.31C88.5348 420.861 87.8877 421.137 87.1221 421.137C86.3792 421.137 85.7731 420.925 85.3037 420.501C84.8343 420.077 84.5996 419.553 84.5996 418.929C84.5996 418.14 84.8913 417.536 85.4746 417.117C86.0625 416.693 86.901 416.481 87.9902 416.481H89.0088V415.996C89.0088 415.613 88.9017 415.308 88.6875 415.08C88.4733 414.848 88.1475 414.731 87.71 414.731C87.3317 414.731 87.0218 414.827 86.7803 415.019C86.5387 415.205 86.418 415.445 86.418 415.736H84.7568C84.7568 415.331 84.8913 414.952 85.1602 414.602C85.429 414.246 85.7936 413.968 86.2539 413.768C86.7188 413.567 87.236 413.467 87.8057 413.467C88.6715 413.467 89.362 413.686 89.877 414.123C90.3919 414.556 90.6562 415.167 90.6699 415.955V419.291C90.6699 419.956 90.7633 420.487 90.9502 420.884V421H89.2549ZM87.4297 419.804C87.7578 419.804 88.0654 419.724 88.3525 419.564C88.6442 419.405 88.863 419.191 89.0088 418.922V417.527H88.1133C87.498 417.527 87.0355 417.634 86.7256 417.849C86.4157 418.063 86.2607 418.366 86.2607 418.758C86.2607 419.077 86.3656 419.332 86.5752 419.523C86.7894 419.71 87.0742 419.804 87.4297 419.804ZM98.9248 421H97.2637V418.013H94.3857V421H92.7246V413.604H94.3857V416.687H97.2637V413.604H98.9248V421ZM103.987 419.811C104.402 419.811 104.746 419.69 105.02 419.448C105.293 419.207 105.439 418.908 105.457 418.553H107.022C107.004 419.013 106.861 419.444 106.592 419.845C106.323 420.241 105.958 420.556 105.498 420.788C105.038 421.021 104.541 421.137 104.008 421.137C102.973 421.137 102.153 420.802 101.547 420.132C100.941 419.462 100.638 418.537 100.638 417.356V417.186C100.638 416.06 100.938 415.16 101.54 414.485C102.142 413.806 102.962 413.467 104.001 413.467C104.881 413.467 105.596 413.724 106.147 414.239C106.703 414.75 106.995 415.422 107.022 416.256H105.457C105.439 415.832 105.293 415.483 105.02 415.21C104.751 414.937 104.407 414.8 103.987 414.8C103.45 414.8 103.035 414.996 102.743 415.388C102.451 415.775 102.303 416.365 102.299 417.158V417.425C102.299 418.227 102.442 418.826 102.729 419.223C103.021 419.615 103.44 419.811 103.987 419.811ZM110.314 415.955H111.941C112.548 415.955 113.076 416.06 113.527 416.27C113.979 416.479 114.32 416.773 114.553 417.151C114.79 417.53 114.908 417.969 114.908 418.471C114.908 419.232 114.639 419.842 114.102 420.303C113.564 420.763 112.848 420.995 111.955 421H108.653V413.604H110.314V415.955ZM117.8 421H116.139V413.604H117.8V421ZM110.314 417.288V419.674H111.935C112.34 419.674 112.659 419.574 112.892 419.373C113.129 419.168 113.247 418.879 113.247 418.505C113.247 418.131 113.131 417.837 112.898 417.623C112.671 417.404 112.361 417.293 111.969 417.288H110.314Z" fill="#222B45"/>
<path d="M35.8346 410.167H24.168C23.5049 410.167 22.869 410.43 22.4002 410.899C21.9314 411.368 21.668 412.004 21.668 412.667V419.334C21.668 419.997 21.9314 420.633 22.4002 421.101C22.869 421.57 23.5049 421.834 24.168 421.834H35.8346C36.4977 421.834 37.1336 421.57 37.6024 421.101C38.0712 420.633 38.3346 419.997 38.3346 419.334V412.667C38.3346 412.004 38.0712 411.368 37.6024 410.899C37.1336 410.43 36.4977 410.167 35.8346 410.167ZM23.3346 412.667C23.3346 412.446 23.4224 412.234 23.5787 412.078C23.735 411.921 23.947 411.834 24.168 411.834H35.8346C36.0556 411.834 36.2676 411.921 36.4239 412.078C36.5802 412.234 36.668 412.446 36.668 412.667V413.5H23.3346V412.667ZM36.668 419.334C36.668 419.555 36.5802 419.767 36.4239 419.923C36.2676 420.079 36.0556 420.167 35.8346 420.167H24.168C23.947 420.167 23.735 420.079 23.5787 419.923C23.4224 419.767 23.3346 419.555 23.3346 419.334V415.167H36.668V419.334Z" fill="#8F9BB3"/>
<path d="M25.8333 418.5H29.1667C29.3877 418.5 29.5996 418.412 29.7559 418.256C29.9122 418.099 30 417.887 30 417.666C30 417.445 29.9122 417.233 29.7559 417.077C29.5996 416.921 29.3877 416.833 29.1667 416.833H25.8333C25.6123 416.833 25.4004 416.921 25.2441 417.077C25.0878 417.233 25 417.445 25 417.666C25 417.887 25.0878 418.099 25.2441 418.256C25.4004 418.412 25.6123 418.5 25.8333 418.5Z" fill="#8F9BB3"/>
<path d="M32.5013 418.5H34.168C34.389 418.5 34.6009 418.412 34.7572 418.256C34.9135 418.099 35.0013 417.887 35.0013 417.666C35.0013 417.445 34.9135 417.233 34.7572 417.077C34.6009 416.921 34.389 416.833 34.168 416.833H32.5013C32.2803 416.833 32.0683 416.921 31.912 417.077C31.7558 417.233 31.668 417.445 31.668 417.666C31.668 417.887 31.7558 418.099 31.912 418.256C32.0683 418.412 32.2803 418.5 32.5013 418.5Z" fill="#8F9BB3"/>
<rect x="4" y="447" width="296" height="1" fill="#EDF1F7"/>
<mask id="mask9_5317_31155" style="mask-type:alpha" maskUnits="userSpaceOnUse" x="4" y="447" width="296" height="1">
<rect x="4" y="447" width="296" height="1" fill="white"/>
</mask>
<g mask="url(#mask9_5317_31155)">
</g>
</g>
<g clip-path="url(#clip7_5317_31155)">
<rect x="4" y="448" width="296" height="64" fill="white"/>
<path d="M64.6064 481.76C64.5062 482.822 64.1143 483.651 63.4307 484.248C62.7471 484.84 61.8379 485.137 60.7031 485.137C59.9102 485.137 59.2106 484.95 58.6045 484.576C58.0029 484.198 57.5381 483.662 57.21 482.97C56.8818 482.277 56.7109 481.473 56.6973 480.557V479.627C56.6973 478.688 56.8636 477.861 57.1963 477.146C57.529 476.43 58.0052 475.879 58.625 475.491C59.2493 475.104 59.9694 474.91 60.7852 474.91C61.8835 474.91 62.7676 475.209 63.4375 475.806C64.1074 476.403 64.4971 477.246 64.6064 478.335H62.8838C62.8018 477.619 62.5921 477.104 62.2549 476.79C61.9222 476.471 61.4323 476.312 60.7852 476.312C60.0332 476.312 59.4544 476.587 59.0488 477.139C58.6478 477.686 58.4427 478.49 58.4336 479.552V480.434C58.4336 481.509 58.625 482.329 59.0078 482.895C59.3952 483.46 59.9603 483.742 60.7031 483.742C61.3822 483.742 61.8926 483.59 62.2344 483.284C62.5762 482.979 62.7926 482.471 62.8838 481.76H64.6064ZM72.0684 478.923H69.6689V485H68.0078V478.923H65.6357V477.604H72.0684V478.923ZM77.7393 485C77.6663 484.859 77.6025 484.629 77.5479 484.31C77.0192 484.861 76.3721 485.137 75.6064 485.137C74.8636 485.137 74.2575 484.925 73.7881 484.501C73.3187 484.077 73.084 483.553 73.084 482.929C73.084 482.14 73.3757 481.536 73.959 481.117C74.5469 480.693 75.3854 480.481 76.4746 480.481H77.4932V479.996C77.4932 479.613 77.3861 479.308 77.1719 479.08C76.9577 478.848 76.6318 478.731 76.1943 478.731C75.8161 478.731 75.5062 478.827 75.2646 479.019C75.0231 479.205 74.9023 479.445 74.9023 479.736H73.2412C73.2412 479.331 73.3757 478.952 73.6445 478.602C73.9134 478.246 74.278 477.968 74.7383 477.768C75.2031 477.567 75.7204 477.467 76.29 477.467C77.1559 477.467 77.8464 477.686 78.3613 478.123C78.8763 478.556 79.1406 479.167 79.1543 479.955V483.291C79.1543 483.956 79.2477 484.487 79.4346 484.884V485H77.7393ZM75.9141 483.804C76.2422 483.804 76.5498 483.724 76.8369 483.564C77.1286 483.405 77.3473 483.191 77.4932 482.922V481.527H76.5977C75.9824 481.527 75.5199 481.634 75.21 481.849C74.9001 482.063 74.7451 482.366 74.7451 482.758C74.7451 483.077 74.8499 483.332 75.0596 483.523C75.2738 483.71 75.5586 483.804 75.9141 483.804ZM86.8555 478.923H84.4561V485H82.7949V478.923H80.4229V477.604H86.8555V478.923ZM92.834 477.604H94.4883V485H92.834V480.064L89.9355 485H88.2812V477.604H89.9355V482.539L92.834 477.604ZM99.5439 483.811C99.9587 483.811 100.303 483.69 100.576 483.448C100.85 483.207 100.995 482.908 101.014 482.553H102.579C102.561 483.013 102.417 483.444 102.148 483.845C101.88 484.241 101.515 484.556 101.055 484.788C100.594 485.021 100.098 485.137 99.5645 485.137C98.5299 485.137 97.7096 484.802 97.1035 484.132C96.4974 483.462 96.1943 482.537 96.1943 481.356V481.186C96.1943 480.06 96.4951 479.16 97.0967 478.485C97.6982 477.806 98.5186 477.467 99.5576 477.467C100.437 477.467 101.153 477.724 101.704 478.239C102.26 478.75 102.552 479.422 102.579 480.256H101.014C100.995 479.832 100.85 479.483 100.576 479.21C100.307 478.937 99.9632 478.8 99.5439 478.8C99.0062 478.8 98.5915 478.996 98.2998 479.388C98.0081 479.775 97.86 480.365 97.8555 481.158V481.425C97.8555 482.227 97.999 482.826 98.2861 483.223C98.5778 483.615 98.9971 483.811 99.5439 483.811ZM109.904 478.923H107.505V485H105.844V478.923H103.472V477.604H109.904V478.923ZM115.883 477.604H117.537V485H115.883V480.064L112.984 485H111.33V477.604H112.984V482.539L115.883 477.604ZM122.183 482.074H121.342V485H119.681V477.604H121.342V480.557H122.073L124.117 477.604H126.168L123.495 481.145L126.394 485H124.233L122.183 482.074ZM131.976 485C131.903 484.859 131.839 484.629 131.784 484.31C131.256 484.861 130.608 485.137 129.843 485.137C129.1 485.137 128.494 484.925 128.024 484.501C127.555 484.077 127.32 483.553 127.32 482.929C127.32 482.14 127.612 481.536 128.195 481.117C128.783 480.693 129.622 480.481 130.711 480.481H131.729V479.996C131.729 479.613 131.622 479.308 131.408 479.08C131.194 478.848 130.868 478.731 130.431 478.731C130.052 478.731 129.743 478.827 129.501 479.019C129.259 479.205 129.139 479.445 129.139 479.736H127.478C127.478 479.331 127.612 478.952 127.881 478.602C128.15 478.246 128.514 477.968 128.975 477.768C129.439 477.567 129.957 477.467 130.526 477.467C131.392 477.467 132.083 477.686 132.598 478.123C133.113 478.556 133.377 479.167 133.391 479.955V483.291C133.391 483.956 133.484 484.487 133.671 484.884V485H131.976ZM130.15 483.804C130.479 483.804 130.786 483.724 131.073 483.564C131.365 483.405 131.584 483.191 131.729 482.922V481.527H130.834C130.219 481.527 129.756 481.634 129.446 481.849C129.136 482.063 128.981 482.366 128.981 482.758C128.981 483.077 129.086 483.332 129.296 483.523C129.51 483.71 129.795 483.804 130.15 483.804ZM143.734 477.604H145.389V485H143.734V480.064L140.836 485H139.182V477.604H140.836V482.539L143.734 477.604ZM159.246 480.283C159.246 481.258 159.077 482.115 158.74 482.854C158.403 483.587 157.92 484.152 157.291 484.549C156.667 484.941 155.947 485.137 155.131 485.137C154.324 485.137 153.604 484.941 152.971 484.549C152.342 484.152 151.854 483.59 151.508 482.86C151.166 482.131 150.993 481.29 150.988 480.338V479.777C150.988 478.807 151.159 477.95 151.501 477.207C151.847 476.464 152.333 475.897 152.957 475.505C153.586 475.108 154.306 474.91 155.117 474.91C155.928 474.91 156.646 475.106 157.271 475.498C157.899 475.885 158.385 476.446 158.727 477.18C159.068 477.909 159.242 478.759 159.246 479.729V480.283ZM157.517 479.764C157.517 478.661 157.307 477.815 156.888 477.228C156.473 476.64 155.883 476.346 155.117 476.346C154.37 476.346 153.784 476.64 153.36 477.228C152.941 477.811 152.727 478.638 152.718 479.709V480.283C152.718 481.377 152.93 482.222 153.354 482.819C153.782 483.416 154.374 483.715 155.131 483.715C155.896 483.715 156.484 483.423 156.895 482.84C157.309 482.257 157.517 481.404 157.517 480.283V479.764ZM166.879 478.923H164.479V485H162.818V478.923H160.446V477.604H166.879V478.923ZM174.17 485H172.509V482.532C172.08 482.632 171.629 482.683 171.155 482.683C170.144 482.683 169.371 482.441 168.838 481.958C168.305 481.47 168.038 480.773 168.038 479.866V477.597H169.699V479.866C169.699 480.404 169.818 480.785 170.055 481.008C170.296 481.231 170.663 481.343 171.155 481.343C171.602 481.343 172.053 481.29 172.509 481.186V477.604H174.17V485ZM179.444 485.137C178.392 485.137 177.537 484.806 176.881 484.146C176.229 483.48 175.903 482.596 175.903 481.493V481.288C175.903 480.55 176.045 479.891 176.327 479.312C176.614 478.729 177.015 478.276 177.53 477.952C178.045 477.629 178.619 477.467 179.253 477.467C180.26 477.467 181.037 477.788 181.584 478.431C182.135 479.073 182.411 479.982 182.411 481.158V481.828H177.578C177.628 482.439 177.831 482.922 178.187 483.277C178.547 483.633 178.998 483.811 179.54 483.811C180.301 483.811 180.921 483.503 181.399 482.888L182.295 483.742C181.999 484.184 181.602 484.528 181.105 484.774C180.613 485.016 180.06 485.137 179.444 485.137ZM179.246 478.8C178.79 478.8 178.421 478.959 178.139 479.278C177.861 479.597 177.683 480.042 177.605 480.611H180.771V480.488C180.734 479.932 180.586 479.513 180.326 479.23C180.066 478.943 179.706 478.8 179.246 478.8ZM176.71 475.662C176.71 475.434 176.785 475.243 176.936 475.088C177.09 474.933 177.302 474.855 177.571 474.855C177.84 474.855 178.052 474.933 178.207 475.088C178.362 475.243 178.439 475.434 178.439 475.662C178.439 475.89 178.362 476.081 178.207 476.236C178.052 476.391 177.84 476.469 177.571 476.469C177.302 476.469 177.09 476.391 176.936 476.236C176.785 476.081 176.71 475.89 176.71 475.662ZM179.834 475.669C179.834 475.441 179.909 475.25 180.06 475.095C180.215 474.94 180.426 474.862 180.695 474.862C180.964 474.862 181.176 474.94 181.331 475.095C181.486 475.25 181.563 475.441 181.563 475.669C181.563 475.897 181.486 476.088 181.331 476.243C181.176 476.398 180.964 476.476 180.695 476.476C180.426 476.476 180.215 476.398 180.06 476.243C179.909 476.088 179.834 475.897 179.834 475.669ZM189.695 478.923H187.296V485H185.635V478.923H183.263V477.604H189.695V478.923ZM192.844 479.955H194.471C195.077 479.955 195.605 480.06 196.057 480.27C196.508 480.479 196.85 480.773 197.082 481.151C197.319 481.53 197.438 481.969 197.438 482.471C197.438 483.232 197.169 483.842 196.631 484.303C196.093 484.763 195.378 484.995 194.484 485H191.183V477.604H192.844V479.955ZM200.329 485H198.668V477.604H200.329V485ZM192.844 481.288V483.674H194.464C194.869 483.674 195.188 483.574 195.421 483.373C195.658 483.168 195.776 482.879 195.776 482.505C195.776 482.131 195.66 481.837 195.428 481.623C195.2 481.404 194.89 481.293 194.498 481.288H192.844Z" fill="#222B45"/>
<path d="M32.5013 483.333H27.5013C27.2803 483.333 27.0683 483.421 26.912 483.577C26.7558 483.733 26.668 483.945 26.668 484.166C26.668 484.387 26.7558 484.599 26.912 484.756C27.0683 484.912 27.2803 485 27.5013 485H32.5013C32.7223 485 32.9343 484.912 33.0906 484.756C33.2468 484.599 33.3346 484.387 33.3346 484.166C33.3346 483.945 33.2468 483.733 33.0906 483.577C32.9343 483.421 32.7223 483.333 32.5013 483.333Z" fill="#8F9BB3"/>
<path d="M27.5013 481.667H30.0013C30.2223 481.667 30.4343 481.579 30.5906 481.423C30.7468 481.266 30.8346 481.054 30.8346 480.833C30.8346 480.612 30.7468 480.4 30.5906 480.244C30.4343 480.088 30.2223 480 30.0013 480H27.5013C27.2803 480 27.0683 480.088 26.912 480.244C26.7558 480.4 26.668 480.612 26.668 480.833C26.668 481.054 26.7558 481.266 26.912 481.423C27.0683 481.579 27.2803 481.667 27.5013 481.667Z" fill="#8F9BB3"/>
<path d="M36.4487 476.941L31.9154 471.941C31.8375 471.855 31.7423 471.786 31.6361 471.738C31.5299 471.691 31.415 471.666 31.2987 471.666H25.4654C25.1885 471.663 24.9137 471.714 24.6566 471.817C24.3996 471.92 24.1653 472.073 23.9672 472.266C23.7691 472.459 23.611 472.69 23.502 472.945C23.3931 473.199 23.3353 473.473 23.332 473.749V486.249C23.3353 486.526 23.3931 486.8 23.502 487.054C23.611 487.309 23.7691 487.54 23.9672 487.733C24.1653 487.926 24.3996 488.079 24.6566 488.182C24.9137 488.285 25.1885 488.336 25.4654 488.333H34.532C34.8089 488.336 35.0837 488.285 35.3408 488.182C35.5978 488.079 35.8321 487.926 36.0302 487.733C36.2283 487.54 36.3864 487.309 36.4953 487.054C36.6043 486.8 36.6621 486.526 36.6654 486.249V477.499C36.6648 477.293 36.5876 477.094 36.4487 476.941ZM31.6654 474.166L33.9487 476.666H32.282C32.1948 476.661 32.1094 476.638 32.031 476.6C31.9525 476.561 31.8826 476.507 31.8252 476.441C31.7678 476.375 31.7241 476.299 31.6966 476.216C31.6692 476.133 31.6586 476.045 31.6654 475.958V474.166ZM34.532 486.666H25.4654C25.4073 486.67 25.3492 486.661 25.2943 486.642C25.2395 486.623 25.1889 486.593 25.1455 486.555C25.1022 486.516 25.0669 486.469 25.0417 486.417C25.0165 486.364 25.0019 486.308 24.9987 486.249V473.749C25.0019 473.691 25.0165 473.635 25.0417 473.582C25.0669 473.53 25.1022 473.483 25.1455 473.444C25.1889 473.406 25.2395 473.376 25.2943 473.357C25.3492 473.338 25.4073 473.329 25.4654 473.333H29.9987V475.958C29.9852 476.572 30.2152 477.166 30.6383 477.611C31.0614 478.056 31.6433 478.315 32.257 478.333H34.9987V486.249C34.9955 486.308 34.9809 486.364 34.9557 486.417C34.9305 486.469 34.8952 486.516 34.8519 486.555C34.8085 486.593 34.7579 486.623 34.7031 486.642C34.6482 486.661 34.5901 486.67 34.532 486.666Z" fill="#8F9BB3"/>
<rect x="4" y="511" width="296" height="1" fill="#EDF1F7"/>
<mask id="mask10_5317_31155" style="mask-type:alpha" maskUnits="userSpaceOnUse" x="4" y="511" width="296" height="1">
<rect x="4" y="511" width="296" height="1" fill="white"/>
</mask>
<g mask="url(#mask10_5317_31155)">
</g>
</g>
<g clip-path="url(#clip8_5317_31155)">
<rect x="4" y="512" width="296" height="64" fill="white"/>
<path d="M64.627 539.047V549H62.9043V545.083C62.166 545.27 61.3958 545.363 60.5938 545.363C59.4043 545.363 58.5042 545.101 57.8936 544.577C57.2829 544.053 56.9753 543.262 56.9707 542.205V539.047H58.6934V542.219C58.6979 542.852 58.8438 543.303 59.1309 543.572C59.418 543.841 59.9056 543.976 60.5938 543.976C61.3867 543.976 62.1569 543.88 62.9043 543.688V539.047H64.627ZM71.2139 549C71.141 548.859 71.0771 548.629 71.0225 548.31C70.4938 548.861 69.8467 549.137 69.0811 549.137C68.3382 549.137 67.7321 548.925 67.2627 548.501C66.7933 548.077 66.5586 547.553 66.5586 546.929C66.5586 546.14 66.8503 545.536 67.4336 545.117C68.0215 544.693 68.86 544.481 69.9492 544.481H70.9678V543.996C70.9678 543.613 70.8607 543.308 70.6465 543.08C70.4323 542.848 70.1064 542.731 69.6689 542.731C69.2907 542.731 68.9808 542.827 68.7393 543.019C68.4977 543.205 68.377 543.445 68.377 543.736H66.7158C66.7158 543.331 66.8503 542.952 67.1191 542.602C67.388 542.246 67.7526 541.968 68.2129 541.768C68.6777 541.567 69.195 541.467 69.7646 541.467C70.6305 541.467 71.321 541.686 71.8359 542.123C72.3509 542.556 72.6152 543.167 72.6289 543.955V547.291C72.6289 547.956 72.7223 548.487 72.9092 548.884V549H71.2139ZM69.3887 547.804C69.7168 547.804 70.0244 547.724 70.3115 547.564C70.6032 547.405 70.8219 547.191 70.9678 546.922V545.527H70.0723C69.457 545.527 68.9945 545.634 68.6846 545.849C68.3747 546.063 68.2197 546.366 68.2197 546.758C68.2197 547.077 68.3245 547.332 68.5342 547.523C68.7484 547.71 69.0332 547.804 69.3887 547.804ZM80.3301 542.923H77.9307V549H76.2695V542.923H73.8975V541.604H80.3301V542.923Z" fill="#222B45"/>
<path d="M30.0013 544C30.4615 544 30.8346 543.627 30.8346 543.166C30.8346 542.706 30.4615 542.333 30.0013 542.333C29.5411 542.333 29.168 542.706 29.168 543.166C29.168 543.627 29.5411 544 30.0013 544Z" fill="#8F9BB3"/>
<path d="M33.3333 544C33.7936 544 34.1667 543.627 34.1667 543.166C34.1667 542.706 33.7936 542.333 33.3333 542.333C32.8731 542.333 32.5 542.706 32.5 543.166C32.5 543.627 32.8731 544 33.3333 544Z" fill="#8F9BB3"/>
<path d="M26.6654 544C27.1256 544 27.4987 543.627 27.4987 543.166C27.4987 542.706 27.1256 542.333 26.6654 542.333C26.2051 542.333 25.832 542.706 25.832 543.166C25.832 543.627 26.2051 544 26.6654 544Z" fill="#8F9BB3"/>
<path d="M35.8346 536.5H24.168C23.5049 536.5 22.869 536.763 22.4002 537.232C21.9314 537.701 21.668 538.337 21.668 539V551.5C21.6682 551.648 21.7077 551.793 21.7824 551.92C21.8571 552.047 21.9642 552.153 22.093 552.225C22.2175 552.296 22.3581 552.333 22.5013 552.333C22.6509 552.333 22.7977 552.293 22.9263 552.217L26.668 549.95C26.8063 549.868 26.9655 549.827 27.1263 549.833H35.8346C36.4977 549.833 37.1336 549.57 37.6024 549.101C38.0712 548.632 38.3346 547.996 38.3346 547.333V539C38.3346 538.337 38.0712 537.701 37.6024 537.232C37.1336 536.763 36.4977 536.5 35.8346 536.5ZM36.668 547.333C36.668 547.554 36.5802 547.766 36.4239 547.923C36.2676 548.079 36.0556 548.167 35.8346 548.167H27.1263C26.6712 548.166 26.2245 548.29 25.8346 548.525L23.3346 550.025V539C23.3346 538.779 23.4224 538.567 23.5787 538.411C23.735 538.254 23.947 538.167 24.168 538.167H35.8346C36.0556 538.167 36.2676 538.254 36.4239 538.411C36.5802 538.567 36.668 538.779 36.668 539V547.333Z" fill="#8F9BB3"/>
<rect x="4" y="575" width="296" height="1" fill="#EDF1F7"/>
<mask id="mask11_5317_31155" style="mask-type:alpha" maskUnits="userSpaceOnUse" x="4" y="575" width="296" height="1">
<rect x="4" y="575" width="296" height="1" fill="white"/>
</mask>
<g mask="url(#mask11_5317_31155)">
</g>
</g>
<g clip-path="url(#clip9_5317_31155)">
<rect x="4" y="576" width="296" height="64" fill="white"/>
<rect x="4" y="639" width="296" height="1" fill="#EDF1F7"/>
<mask id="mask12_5317_31155" style="mask-type:alpha" maskUnits="userSpaceOnUse" x="4" y="639" width="296" height="1">
<rect x="4" y="639" width="296" height="1" fill="white"/>
</mask>
<g mask="url(#mask12_5317_31155)">
</g>
<path d="M64.9141 613H63.1914V608.577H58.7412V613H57.0117V603.047H58.7412V607.189H63.1914V603.047H64.9141V613ZM71.4736 613C71.4007 612.859 71.3369 612.629 71.2822 612.31C70.7536 612.861 70.1064 613.137 69.3408 613.137C68.598 613.137 67.9919 612.925 67.5225 612.501C67.0531 612.077 66.8184 611.553 66.8184 610.929C66.8184 610.14 67.11 609.536 67.6934 609.117C68.2812 608.693 69.1198 608.481 70.209 608.481H71.2275V607.996C71.2275 607.613 71.1204 607.308 70.9062 607.08C70.6921 606.848 70.3662 606.731 69.9287 606.731C69.5505 606.731 69.2406 606.827 68.999 607.019C68.7575 607.205 68.6367 607.445 68.6367 607.736H66.9756C66.9756 607.331 67.11 606.952 67.3789 606.602C67.6478 606.246 68.0124 605.968 68.4727 605.768C68.9375 605.567 69.4548 605.467 70.0244 605.467C70.8903 605.467 71.5807 605.686 72.0957 606.123C72.6107 606.556 72.875 607.167 72.8887 607.955V611.291C72.8887 611.956 72.9821 612.487 73.1689 612.884V613H71.4736ZM69.6484 611.804C69.9766 611.804 70.2842 611.724 70.5713 611.564C70.863 611.405 71.0817 611.191 71.2275 610.922V609.527H70.332C69.7168 609.527 69.2542 609.634 68.9443 609.849C68.6344 610.063 68.4795 610.366 68.4795 610.758C68.4795 611.077 68.5843 611.332 68.7939 611.523C69.0081 611.71 69.293 611.804 69.6484 611.804ZM77.917 611.811C78.3317 611.811 78.6758 611.69 78.9492 611.448C79.2227 611.207 79.3685 610.908 79.3867 610.553H80.9521C80.9339 611.013 80.7904 611.444 80.5215 611.845C80.2526 612.241 79.888 612.556 79.4277 612.788C78.9674 613.021 78.4707 613.137 77.9375 613.137C76.903 613.137 76.0827 612.802 75.4766 612.132C74.8704 611.462 74.5674 610.537 74.5674 609.356V609.186C74.5674 608.06 74.8682 607.16 75.4697 606.485C76.0713 605.806 76.8916 605.467 77.9307 605.467C78.8102 605.467 79.5257 605.724 80.0771 606.239C80.6331 606.75 80.9248 607.422 80.9521 608.256H79.3867C79.3685 607.832 79.2227 607.483 78.9492 607.21C78.6803 606.937 78.3363 606.8 77.917 606.8C77.3792 606.8 76.9645 606.996 76.6729 607.388C76.3812 607.775 76.2331 608.365 76.2285 609.158V609.425C76.2285 610.227 76.3721 610.826 76.6592 611.223C76.9508 611.615 77.3701 611.811 77.917 611.811ZM88.2773 606.923H85.8779V613H84.2168V606.923H81.8447V605.604H88.2773V606.923ZM96.1152 609.377C96.1152 610.521 95.8555 611.435 95.3359 612.118C94.8164 612.797 94.1191 613.137 93.2441 613.137C92.4329 613.137 91.7835 612.87 91.2959 612.337V615.844H89.6348V605.604H91.166L91.2344 606.355C91.722 605.763 92.3851 605.467 93.2236 605.467C94.126 605.467 94.8324 605.804 95.3428 606.479C95.8577 607.148 96.1152 608.08 96.1152 609.274V609.377ZM94.4609 609.233C94.4609 608.495 94.3128 607.91 94.0166 607.477C93.7249 607.044 93.3057 606.827 92.7588 606.827C92.0798 606.827 91.5921 607.107 91.2959 607.668V610.949C91.5967 611.523 92.0889 611.811 92.7725 611.811C93.3011 611.811 93.7135 611.599 94.0098 611.175C94.3105 610.746 94.4609 610.099 94.4609 609.233ZM97.4658 609.233C97.4658 608.509 97.6094 607.857 97.8965 607.278C98.1836 606.695 98.5869 606.248 99.1064 605.938C99.626 605.624 100.223 605.467 100.897 605.467C101.896 605.467 102.704 605.788 103.324 606.431C103.949 607.073 104.286 607.925 104.336 608.987L104.343 609.377C104.343 610.106 104.201 610.758 103.919 611.332C103.641 611.906 103.24 612.351 102.716 612.665C102.196 612.979 101.595 613.137 100.911 613.137C99.8675 613.137 99.0312 612.79 98.4023 612.098C97.778 611.4 97.4658 610.473 97.4658 609.315V609.233ZM99.127 609.377C99.127 610.138 99.2842 610.735 99.5986 611.168C99.9131 611.596 100.351 611.811 100.911 611.811C101.472 611.811 101.907 611.592 102.217 611.154C102.531 610.717 102.688 610.076 102.688 609.233C102.688 608.486 102.527 607.894 102.203 607.456C101.884 607.019 101.449 606.8 100.897 606.8C100.355 606.8 99.9245 607.016 99.6055 607.449C99.2865 607.878 99.127 608.52 99.127 609.377ZM110.615 605.604H112.27V613H110.615V608.064L107.717 613H106.062V605.604H107.717V610.539L110.615 605.604ZM111.395 602.767C111.395 603.341 111.194 603.806 110.793 604.161C110.392 604.517 109.856 604.694 109.187 604.694C108.517 604.694 107.981 604.517 107.58 604.161C107.179 603.806 106.979 603.341 106.979 602.767H108.223C108.223 603.067 108.307 603.302 108.476 603.471C108.649 603.635 108.886 603.717 109.187 603.717C109.487 603.717 109.722 603.635 109.891 603.471C110.059 603.302 110.144 603.067 110.144 602.767H111.395ZM116.915 610.074H116.074V613H114.413V605.604H116.074V608.557H116.806L118.85 605.604H120.9L118.228 609.145L121.126 613H118.966L116.915 610.074ZM126.708 613C126.635 612.859 126.571 612.629 126.517 612.31C125.988 612.861 125.341 613.137 124.575 613.137C123.832 613.137 123.226 612.925 122.757 612.501C122.287 612.077 122.053 611.553 122.053 610.929C122.053 610.14 122.344 609.536 122.928 609.117C123.516 608.693 124.354 608.481 125.443 608.481H126.462V607.996C126.462 607.613 126.355 607.308 126.141 607.08C125.926 606.848 125.601 606.731 125.163 606.731C124.785 606.731 124.475 606.827 124.233 607.019C123.992 607.205 123.871 607.445 123.871 607.736H122.21C122.21 607.331 122.344 606.952 122.613 606.602C122.882 606.246 123.247 605.968 123.707 605.768C124.172 605.567 124.689 605.467 125.259 605.467C126.125 605.467 126.815 605.686 127.33 606.123C127.845 606.556 128.109 607.167 128.123 607.955V611.291C128.123 611.956 128.216 612.487 128.403 612.884V613H126.708ZM124.883 611.804C125.211 611.804 125.519 611.724 125.806 611.564C126.097 611.405 126.316 611.191 126.462 610.922V609.527H125.566C124.951 609.527 124.489 609.634 124.179 609.849C123.869 610.063 123.714 610.366 123.714 610.758C123.714 611.077 123.819 611.332 124.028 611.523C124.243 611.71 124.527 611.804 124.883 611.804Z" fill="#222B45"/>
<path d="M27.1759 616.334C26.7692 616.331 26.3744 616.197 26.0509 615.95L24.3259 614.667C23.9278 614.357 23.6637 613.906 23.5877 613.407C23.5118 612.908 23.6298 612.398 23.9176 611.984C24.0698 611.759 24.1665 611.501 24.1999 611.232C24.2332 610.962 24.2021 610.689 24.1092 610.434L24.0592 610.3C23.9945 610.069 23.8763 609.857 23.7141 609.68C23.552 609.504 23.3504 609.368 23.1259 609.284H22.9926C22.5058 609.12 22.1032 608.771 21.8723 608.312C21.6414 607.853 21.6008 607.322 21.7592 606.834L22.4426 604.667C22.5055 604.416 22.6213 604.181 22.7822 603.979C22.9432 603.776 23.1456 603.61 23.3759 603.492C23.5903 603.381 23.825 603.316 24.0656 603.298C24.3063 603.281 24.5479 603.313 24.7759 603.392C25.0241 603.476 25.289 603.497 25.5475 603.455C25.806 603.413 26.0503 603.308 26.2592 603.15L26.3676 603.067C26.5566 602.916 26.7094 602.725 26.8147 602.507C26.92 602.289 26.9751 602.051 26.9759 601.809V601.609C26.9736 601.099 27.1729 600.609 27.5303 600.245C27.8878 599.881 28.3744 599.674 28.8842 599.667H31.0092C31.2573 599.668 31.5028 599.717 31.7316 599.813C31.9604 599.909 32.168 600.049 32.3426 600.225C32.7095 600.598 32.9133 601.102 32.9092 601.625V601.859C32.905 602.088 32.9548 602.316 33.0547 602.523C33.1546 602.73 33.3017 602.911 33.4842 603.05L33.5759 603.117C33.7629 603.257 33.9811 603.35 34.2118 603.388C34.4425 603.426 34.6789 603.407 34.9009 603.334L35.1842 603.242C35.4243 603.162 35.6779 603.132 35.93 603.153C36.182 603.173 36.4274 603.244 36.6513 603.362C36.8753 603.479 37.0733 603.64 37.2336 603.836C37.3939 604.032 37.5131 604.258 37.5842 604.5L38.2426 606.6C38.3949 607.086 38.3532 607.611 38.1264 608.066C37.8995 608.522 37.5051 608.871 37.0259 609.042L36.8592 609.1C36.6141 609.181 36.3924 609.32 36.2137 609.506C36.035 609.692 35.9047 609.919 35.8342 610.167C35.7679 610.398 35.7522 610.64 35.7881 610.877C35.8241 611.115 35.9109 611.341 36.0426 611.542L36.2592 611.859C36.5466 612.276 36.6635 612.787 36.586 613.287C36.5085 613.788 36.2425 614.24 35.8426 614.55L34.1676 615.842C33.9652 615.997 33.7333 616.108 33.4861 616.17C33.239 616.232 32.9818 616.242 32.7304 616.201C32.4791 616.16 32.2388 616.067 32.0245 615.93C31.8102 615.792 31.6263 615.612 31.4842 615.4L31.3842 615.259C31.2477 615.054 31.0615 614.886 30.8429 614.773C30.6243 614.659 30.3805 614.603 30.1342 614.609C29.8992 614.615 29.6689 614.676 29.4619 614.787C29.2549 614.899 29.077 615.057 28.9426 615.25L28.7509 615.525C28.6088 615.738 28.4245 615.92 28.2095 616.059C27.9946 616.198 27.7534 616.291 27.5009 616.334C27.3928 616.344 27.284 616.344 27.1759 616.334ZM23.6676 607.684C24.1381 607.851 24.5627 608.127 24.9072 608.489C25.2517 608.851 25.5064 609.289 25.6509 609.767V609.867C25.8308 610.364 25.8899 610.897 25.8233 611.422C25.7566 611.946 25.5661 612.447 25.2676 612.884C25.2148 612.942 25.1857 613.018 25.1857 613.096C25.1857 613.175 25.2148 613.25 25.2676 613.309L27.0592 614.667C27.0826 614.685 27.1096 614.698 27.1385 614.706C27.1674 614.713 27.1974 614.713 27.2266 614.708C27.2558 614.702 27.2835 614.691 27.3078 614.674C27.3321 614.656 27.3525 614.634 27.3676 614.609L27.5592 614.334C27.8483 613.916 28.2343 613.575 28.6843 613.339C29.1342 613.103 29.6346 612.98 30.1426 612.98C30.6505 612.98 31.1509 613.103 31.6008 613.339C32.0508 613.575 32.4368 613.916 32.7259 614.334L32.8259 614.484C32.8617 614.534 32.9152 614.57 32.9759 614.584C33.0037 614.588 33.0321 614.586 33.0593 614.579C33.0865 614.572 33.112 614.559 33.1342 614.542L34.8509 613.242C34.911 613.194 34.9505 613.125 34.9614 613.049C34.9722 612.973 34.9536 612.896 34.9092 612.834L34.6926 612.517C34.4102 612.105 34.224 611.636 34.1475 611.142C34.0711 610.649 34.1064 610.145 34.2509 609.667C34.3973 609.165 34.6622 608.705 35.0233 608.327C35.3844 607.948 35.8311 607.662 36.3259 607.492L36.4926 607.434C36.562 607.406 36.6176 607.352 36.6473 607.283C36.677 607.214 36.6783 607.137 36.6509 607.067L36.0009 604.992C35.9853 604.956 35.9625 604.923 35.9338 604.896C35.9052 604.868 35.8713 604.847 35.8342 604.834C35.8097 604.821 35.7826 604.815 35.7551 604.815C35.7275 604.815 35.7004 604.821 35.6759 604.834L35.3926 604.925C34.9133 605.084 34.4027 605.123 33.9048 605.04C33.4069 604.957 32.9366 604.755 32.5342 604.45L32.5009 604.375C32.1148 604.083 31.8017 603.705 31.5863 603.271C31.3708 602.837 31.2589 602.36 31.2592 601.875V601.617C31.2607 601.537 31.2308 601.459 31.1759 601.4C31.1279 601.357 31.0655 601.333 31.0009 601.334H28.8842C28.8503 601.336 28.8171 601.345 28.7865 601.36C28.756 601.375 28.7287 601.395 28.7063 601.421C28.6838 601.447 28.6666 601.476 28.6557 601.508C28.6448 601.541 28.6403 601.575 28.6426 601.609V601.817C28.6426 602.315 28.5284 602.805 28.3088 603.252C28.0892 603.698 27.77 604.088 27.3759 604.392L27.2676 604.475C26.8423 604.799 26.344 605.013 25.8165 605.099C25.2889 605.185 24.7484 605.139 24.2426 604.967C24.2047 604.954 24.1637 604.954 24.1259 604.967C24.0789 604.996 24.0434 605.04 24.0259 605.092L23.3342 607.267C23.3101 607.341 23.3158 607.422 23.35 607.492C23.3842 607.562 23.4443 607.616 23.5176 607.642L23.6676 607.684Z" fill="#8F9BB3"/>
<path d="M29.9987 610.916C29.4218 610.916 28.8579 610.745 28.3783 610.425C27.8986 610.104 27.5248 609.649 27.3041 609.116C27.0833 608.583 27.0255 607.996 27.1381 607.431C27.2506 606.865 27.5284 606.345 27.9363 605.937C28.3442 605.529 28.8639 605.252 29.4297 605.139C29.9955 605.027 30.5819 605.084 31.1149 605.305C31.6478 605.526 32.1033 605.9 32.4238 606.379C32.7443 606.859 32.9154 607.423 32.9154 608C32.9154 608.773 32.6081 609.515 32.0611 610.062C31.5141 610.609 30.7722 610.916 29.9987 610.916ZM29.9987 606.75C29.7515 606.75 29.5098 606.823 29.3042 606.96C29.0987 607.098 28.9385 607.293 28.8439 607.521C28.7492 607.75 28.7245 608.001 28.7727 608.244C28.8209 608.486 28.94 608.709 29.1148 608.884C29.2896 609.058 29.5124 609.177 29.7548 609.226C29.9973 609.274 30.2486 609.249 30.4771 609.155C30.7055 609.06 30.9007 608.9 31.038 608.694C31.1754 608.489 31.2487 608.247 31.2487 608C31.2487 607.668 31.117 607.35 30.8826 607.116C30.6482 606.881 30.3302 606.75 29.9987 606.75Z" fill="#8F9BB3"/>
<path fill-rule="evenodd" clip-rule="evenodd" d="M272 611.5C271.744 611.5 271.488 611.402 271.293 611.207L267.293 607.207C266.902 606.816 266.902 606.184 267.293 605.793C267.684 605.402 268.316 605.402 268.707 605.793L272.012 609.098L275.305 605.918C275.704 605.535 276.335 605.546 276.719 605.943C277.103 606.34 277.092 606.974 276.695 607.357L272.695 611.219C272.5 611.407 272.25 611.5 272 611.5Z" fill="#222B45"/>
<mask id="mask13_5317_31155" style="mask-type:alpha" maskUnits="userSpaceOnUse" x="267" y="605" width="10" height="7">
<path fill-rule="evenodd" clip-rule="evenodd" d="M272 611.5C271.744 611.5 271.488 611.402 271.293 611.207L267.293 607.207C266.902 606.816 266.902 606.184 267.293 605.793C267.684 605.402 268.316 605.402 268.707 605.793L272.012 609.098L275.305 605.918C275.704 605.535 276.335 605.546 276.719 605.943C277.103 606.34 277.092 606.974 276.695 607.357L272.695 611.219C272.5 611.407 272.25 611.5 272 611.5Z" fill="white"/>
</mask>
<g mask="url(#mask13_5317_31155)">
</g>
</g>
<path d="M4.5 0.5H299.5V636C299.5 637.933 297.933 639.5 296 639.5H8C6.067 639.5 4.5 637.933 4.5 636V0.5Z" stroke="#EDF1F7"/>
</g>
<defs>
<filter id="filter0_d_5317_31155" x="0" y="0" width="304" height="648" filterUnits="userSpaceOnUse" color-interpolation-filters="sRGB">
<feFlood flood-opacity="0" result="BackgroundImageFix"/>
<feColorMatrix in="SourceAlpha" type="matrix" values="0 0 0 0 0 0 0 0 0 0 0 0 0 0 0 0 0 0 127 0" result="hardAlpha"/>
<feOffset dy="4"/>
<feGaussianBlur stdDeviation="2"/>
<feComposite in2="hardAlpha" operator="out"/>
<feColorMatrix type="matrix" values="0 0 0 0 0 0 0 0 0 0 0 0 0 0 0 0 0 0 0.25 0"/>
<feBlend mode="normal" in2="BackgroundImageFix" result="effect1_dropShadow_5317_31155"/>
<feBlend mode="normal" in="SourceGraphic" in2="effect1_dropShadow_5317_31155" result="shape"/>
</filter>
<clipPath id="clip0_5317_31155">
<rect width="296" height="64" fill="white" transform="translate(4)"/>
</clipPath>
<clipPath id="clip1_5317_31155">
<rect width="296" height="64" fill="white" transform="translate(4 64)"/>
</clipPath>
<clipPath id="clip2_5317_31155">
<rect width="296" height="64" fill="white" transform="translate(4 128)"/>
</clipPath>
<clipPath id="clip3_5317_31155">
<rect width="296" height="64" fill="white" transform="translate(4 192)"/>
</clipPath>
<clipPath id="clip4_5317_31155">
<rect width="296" height="64" fill="white" transform="translate(4 256)"/>
</clipPath>
<clipPath id="clip5_5317_31155">
<rect width="296" height="64" fill="white" transform="translate(4 320)"/>
</clipPath>
<clipPath id="clip6_5317_31155">
<rect width="296" height="64" fill="white" transform="translate(4 384)"/>
</clipPath>
<clipPath id="clip7_5317_31155">
<rect width="296" height="64" fill="white" transform="translate(4 448)"/>
</clipPath>
<clipPath id="clip8_5317_31155">
<rect width="296" height="64" fill="white" transform="translate(4 512)"/>
</clipPath>
<clipPath id="clip9_5317_31155">
<rect width="296" height="64" fill="white" transform="translate(4 576)"/>
</clipPath>
</defs>
</svg>
