<svg width="25" height="25" viewBox="0 0 25 25" fill="none" xmlns="http://www.w3.org/2000/svg">
<path d="M12.5026 2.08301C10.4424 2.08301 8.42843 2.69393 6.71542 3.83853C5.00241 4.98313 3.66728 6.60999 2.87886 8.51339C2.09045 10.4168 1.88417 12.5112 2.2861 14.5319C2.68802 16.5525 3.68012 18.4086 5.13691 19.8654C6.59371 21.3222 8.44978 22.3143 10.4704 22.7162C12.4911 23.1181 14.5855 22.9118 16.4889 22.1234C18.3923 21.335 20.0191 19.9999 21.1637 18.2869C22.3083 16.5739 22.9193 14.5599 22.9193 12.4997C22.9193 11.1317 22.6498 9.7772 22.1264 8.51339C21.6029 7.24958 20.8356 6.10126 19.8683 5.13398C18.901 4.1667 17.7527 3.39942 16.4889 2.87593C15.2251 2.35244 13.8705 2.08301 12.5026 2.08301ZM12.5026 20.833C10.8544 20.833 9.24327 20.3443 7.87286 19.4286C6.50245 18.5129 5.43434 17.2114 4.80361 15.6887C4.17288 14.166 4.00785 12.4904 4.3294 10.8739C4.65094 9.25741 5.44461 7.77256 6.61005 6.60712C7.77549 5.44168 9.26035 4.64801 10.8769 4.32646C12.4934 4.00492 14.1689 4.16995 15.6916 4.80068C17.2144 5.43141 18.5158 6.49951 19.4315 7.86992C20.3472 9.24033 20.8359 10.8515 20.8359 12.4997C20.8359 14.7098 19.958 16.8294 18.3952 18.3922C16.8324 19.955 14.7127 20.833 12.5026 20.833Z" fill="#F63636"/>
<path d="M12.5026 17.7083C13.0779 17.7083 13.5443 17.242 13.5443 16.6667C13.5443 16.0914 13.0779 15.625 12.5026 15.625C11.9273 15.625 11.4609 16.0914 11.4609 16.6667C11.4609 17.242 11.9273 17.7083 12.5026 17.7083Z" fill="#F63636"/>
<path d="M12.5026 7.29199C12.2263 7.29199 11.9614 7.40174 11.766 7.59709C11.5707 7.79244 11.4609 8.05739 11.4609 8.33366V13.542C11.4609 13.8183 11.5707 14.0832 11.766 14.2786C11.9614 14.4739 12.2263 14.5837 12.5026 14.5837C12.7789 14.5837 13.0438 14.4739 13.2392 14.2786C13.4345 14.0832 13.5443 13.8183 13.5443 13.542V8.33366C13.5443 8.05739 13.4345 7.79244 13.2392 7.59709C13.0438 7.40174 12.7789 7.29199 12.5026 7.29199Z" fill="#F63636"/>
</svg>
